999
DXF created by VCGLib
0
SECTION
2
HEADER
9
$ACADVER
1
AC1009
9
$INSBASE
10
0.0
20
0.0
30
0.0
9
$EXTMIN
10
-15.000000
20
-15.000000
9
$EXTMAX
10
15.000000
20
15.000000
9
$LINMIN
10
-15.000000
20
-15.000000
9
$LINMAX
10
15.000000
20
15.000000
0
ENDSEC
0
SECTION
2
ENTITIES
0
3DFACE
8
0
10
10.461616
20
0.000000
30
-3.399206
11
14.488881
21
0.000000
31
-3.882303
12
15.000000
22
0.000000
32
0.000000
13
15.000000
23
0.000000
33
0.000000
0
3DFACE
8
0
10
15.000000
20
0.200000
30
0.000000
11
15.000000
21
0.000000
31
0.000000
12
14.488881
22
0.000000
32
-3.882303
13
14.488881
23
0.000000
33
-3.882303
0
3DFACE
8
0
10
11.000000
20
0.000000
30
0.000000
11
15.000000
21
0.000000
31
0.000000
12
14.488881
22
0.000000
32
3.882303
13
14.488881
23
0.000000
33
3.882303
0
3DFACE
8
0
10
14.488881
20
0.200000
30
3.882303
11
14.488881
21
0.000000
31
3.882303
12
15.000000
22
0.000000
32
0.000000
13
15.000000
23
0.000000
33
0.000000
0
3DFACE
8
0
10
10.461616
20
0.000000
30
-3.399206
11
15.000000
21
0.000000
31
0.000000
12
11.000000
22
0.000000
32
0.000000
13
11.000000
23
0.000000
33
0.000000
0
3DFACE
8
0
10
15.000000
20
0.200000
30
0.000000
11
14.488881
21
0.200000
31
3.882303
12
15.000000
22
0.000000
32
0.000000
13
15.000000
23
0.000000
33
0.000000
0
3DFACE
8
0
10
8.899171
20
0.000000
30
-6.465659
11
12.990389
21
0.000000
31
-7.499984
12
14.488881
22
0.000000
32
-3.882303
13
14.488881
23
0.000000
33
-3.882303
0
3DFACE
8
0
10
14.488881
20
0.200000
30
-3.882303
11
14.488881
21
0.000000
31
-3.882303
12
12.990389
22
0.000000
32
-7.499984
13
12.990389
23
0.000000
33
-7.499984
0
3DFACE
8
0
10
10.461616
20
0.000000
30
-3.399206
11
8.899171
21
0.000000
31
-6.465659
12
14.488881
22
0.000000
32
-3.882303
13
14.488881
23
0.000000
33
-3.882303
0
3DFACE
8
0
10
14.488881
20
0.200000
30
-3.882303
11
15.000000
21
0.200000
31
0.000000
12
14.488881
22
0.000000
32
-3.882303
13
14.488881
23
0.000000
33
-3.882303
0
3DFACE
8
0
10
3.399174
20
0.000000
30
-10.461624
11
10.606602
21
0.000000
31
-10.606602
12
12.990389
22
0.000000
32
-7.499984
13
12.990389
23
0.000000
33
-7.499984
0
3DFACE
8
0
10
12.990389
20
0.200000
30
-7.499984
11
12.990389
21
0.000000
31
-7.499984
12
10.606602
22
0.000000
32
-10.606602
13
10.606602
23
0.000000
33
-10.606602
0
3DFACE
8
0
10
6.465618
20
0.000000
30
-8.899199
11
3.399174
21
0.000000
31
-10.461624
12
12.990389
22
0.000000
32
-7.499984
13
12.990389
23
0.000000
33
-7.499984
0
3DFACE
8
0
10
8.899171
20
0.000000
30
-6.465659
11
6.465618
21
0.000000
31
-8.899199
12
12.990389
22
0.000000
32
-7.499984
13
12.990389
23
0.000000
33
-7.499984
0
3DFACE
8
0
10
14.488881
20
0.200000
30
-3.882303
11
12.990389
21
0.000000
31
-7.499984
12
12.990389
22
0.200000
32
-7.499984
13
12.990389
23
0.200000
33
-7.499984
0
3DFACE
8
0
10
-7.499984
20
0.000000
30
-12.990389
11
7.499984
21
0.000000
31
-12.990389
12
10.606602
22
0.000000
32
-10.606602
13
10.606602
23
0.000000
33
-10.606602
0
3DFACE
8
0
10
10.606602
20
0.200000
30
-10.606602
11
10.606602
21
0.000000
31
-10.606602
12
7.499984
22
0.000000
32
-12.990389
13
7.499984
23
0.000000
33
-12.990389
0
3DFACE
8
0
10
0.000000
20
0.000000
30
-10.999998
11
-7.499984
21
0.000000
31
-12.990389
12
10.606602
22
0.000000
32
-10.606602
13
10.606602
23
0.000000
33
-10.606602
0
3DFACE
8
0
10
3.399174
20
0.000000
30
-10.461624
11
0.000000
21
0.000000
31
-10.999998
12
10.606602
22
0.000000
32
-10.606602
13
10.606602
23
0.000000
33
-10.606602
0
3DFACE
8
0
10
12.990389
20
0.200000
30
-7.499984
11
10.606602
21
0.000000
31
-10.606602
12
10.606602
22
0.200000
32
-10.606602
13
10.606602
23
0.200000
33
-10.606602
0
3DFACE
8
0
10
-3.882303
20
0.000000
30
-14.488881
11
3.882303
21
0.000000
31
-14.488881
12
7.499984
22
0.000000
32
-12.990389
13
7.499984
23
0.000000
33
-12.990389
0
3DFACE
8
0
10
7.499984
20
0.200000
30
-12.990389
11
7.499984
21
0.000000
31
-12.990389
12
3.882303
22
0.000000
32
-14.488881
13
3.882303
23
0.000000
33
-14.488881
0
3DFACE
8
0
10
-7.499984
20
0.000000
30
-12.990389
11
-3.882303
21
0.000000
31
-14.488881
12
7.499984
22
0.000000
32
-12.990389
13
7.499984
23
0.000000
33
-12.990389
0
3DFACE
8
0
10
10.606602
20
0.200000
30
-10.606602
11
7.499984
21
0.000000
31
-12.990389
12
7.499984
22
0.200000
32
-12.990389
13
7.499984
23
0.200000
33
-12.990389
0
3DFACE
8
0
10
-3.882303
20
0.000000
30
-14.488881
11
0.000000
21
0.000000
31
-15.000000
12
3.882303
22
0.000000
32
-14.488881
13
3.882303
23
0.000000
33
-14.488881
0
3DFACE
8
0
10
3.882303
20
0.200000
30
-14.488881
11
3.882303
21
0.000000
31
-14.488881
12
0.000000
22
0.000000
32
-15.000000
13
0.000000
23
0.000000
33
-15.000000
0
3DFACE
8
0
10
7.499984
20
0.200000
30
-12.990389
11
3.882303
21
0.000000
31
-14.488881
12
3.882303
22
0.200000
32
-14.488881
13
3.882303
23
0.200000
33
-14.488881
0
3DFACE
8
0
10
0.000000
20
0.200000
30
-15.000000
11
0.000000
21
0.000000
31
-15.000000
12
-3.882303
22
0.000000
32
-14.488881
13
-3.882303
23
0.000000
33
-14.488881
0
3DFACE
8
0
10
3.882303
20
0.200000
30
-14.488881
11
0.000000
21
0.000000
31
-15.000000
12
0.000000
22
0.200000
32
-15.000000
13
0.000000
23
0.200000
33
-15.000000
0
3DFACE
8
0
10
-3.882303
20
0.200000
30
-14.488881
11
-3.882303
21
0.000000
31
-14.488881
12
-7.499984
22
0.000000
32
-12.990389
13
-7.499984
23
0.000000
33
-12.990389
0
3DFACE
8
0
10
0.000000
20
0.200000
30
-15.000000
11
-3.882303
21
0.000000
31
-14.488881
12
-3.882303
22
0.200000
32
-14.488881
13
-3.882303
23
0.200000
33
-14.488881
0
3DFACE
8
0
10
0.000000
20
0.000000
30
-10.999998
11
-10.606602
21
0.000000
31
-10.606602
12
-7.499984
22
0.000000
32
-12.990389
13
-7.499984
23
0.000000
33
-12.990389
0
3DFACE
8
0
10
-7.499984
20
0.200000
30
-12.990389
11
-7.499984
21
0.000000
31
-12.990389
12
-10.606602
22
0.000000
32
-10.606602
13
-10.606602
23
0.000000
33
-10.606602
0
3DFACE
8
0
10
-3.882303
20
0.200000
30
-14.488881
11
-7.499984
21
0.000000
31
-12.990389
12
-7.499984
22
0.200000
32
-12.990389
13
-7.499984
23
0.200000
33
-12.990389
0
3DFACE
8
0
10
-6.465618
20
0.000000
30
-8.899199
11
-12.990389
21
0.000000
31
-7.499984
12
-10.606602
22
0.000000
32
-10.606602
13
-10.606602
23
0.000000
33
-10.606602
0
3DFACE
8
0
10
-10.606602
20
0.200000
30
-10.606602
11
-10.606602
21
0.000000
31
-10.606602
12
-12.990389
22
0.000000
32
-7.499984
13
-12.990389
23
0.000000
33
-7.499984
0
3DFACE
8
0
10
-3.399174
20
0.000000
30
-10.461624
11
-6.465618
21
0.000000
31
-8.899199
12
-10.606602
22
0.000000
32
-10.606602
13
-10.606602
23
0.000000
33
-10.606602
0
3DFACE
8
0
10
0.000000
20
0.000000
30
-10.999998
11
-3.399174
21
0.000000
31
-10.461624
12
-10.606602
22
0.000000
32
-10.606602
13
-10.606602
23
0.000000
33
-10.606602
0
3DFACE
8
0
10
-7.499984
20
0.200000
30
-12.990389
11
-10.606602
21
0.000000
31
-10.606602
12
-10.606602
22
0.200000
32
-10.606602
13
-10.606602
23
0.200000
33
-10.606602
0
3DFACE
8
0
10
-8.899171
20
0.000000
30
-6.465659
11
-14.488881
21
0.000000
31
-3.882303
12
-12.990389
22
0.000000
32
-7.499984
13
-12.990389
23
0.000000
33
-7.499984
0
3DFACE
8
0
10
-12.990389
20
0.200000
30
-7.499984
11
-12.990389
21
0.000000
31
-7.499984
12
-14.488881
22
0.000000
32
-3.882303
13
-14.488881
23
0.000000
33
-3.882303
0
3DFACE
8
0
10
-6.465618
20
0.000000
30
-8.899199
11
-8.899171
21
0.000000
31
-6.465659
12
-12.990389
22
0.000000
32
-7.499984
13
-12.990389
23
0.000000
33
-7.499984
0
3DFACE
8
0
10
-10.606602
20
0.200000
30
-10.606602
11
-12.990389
21
0.000000
31
-7.499984
12
-12.990389
22
0.200000
32
-7.499984
13
-12.990389
23
0.200000
33
-7.499984
0
3DFACE
8
0
10
-11.000000
20
0.000000
30
0.000000
11
-15.000000
21
0.000000
31
0.000000
12
-14.488881
22
0.000000
32
-3.882303
13
-14.488881
23
0.000000
33
-3.882303
0
3DFACE
8
0
10
-14.488881
20
0.200000
30
-3.882303
11
-14.488881
21
0.000000
31
-3.882303
12
-15.000000
22
0.000000
32
0.000000
13
-15.000000
23
0.000000
33
0.000000
0
3DFACE
8
0
10
-10.461616
20
0.000000
30
-3.399206
11
-11.000000
21
0.000000
31
0.000000
12
-14.488881
22
0.000000
32
-3.882303
13
-14.488881
23
0.000000
33
-3.882303
0
3DFACE
8
0
10
-8.899171
20
0.000000
30
-6.465659
11
-10.461616
21
0.000000
31
-3.399206
12
-14.488881
22
0.000000
32
-3.882303
13
-14.488881
23
0.000000
33
-3.882303
0
3DFACE
8
0
10
-12.990389
20
0.200000
30
-7.499984
11
-14.488881
21
0.000000
31
-3.882303
12
-14.488881
22
0.200000
32
-3.882303
13
-14.488881
23
0.200000
33
-3.882303
0
3DFACE
8
0
10
-10.461616
20
0.000000
30
3.399206
11
-14.488881
21
0.000000
31
3.882303
12
-15.000000
22
0.000000
32
0.000000
13
-15.000000
23
0.000000
33
0.000000
0
3DFACE
8
0
10
-15.000000
20
0.200000
30
0.000000
11
-15.000000
21
0.000000
31
0.000000
12
-14.488881
22
0.000000
32
3.882303
13
-14.488881
23
0.000000
33
3.882303
0
3DFACE
8
0
10
-11.000000
20
0.000000
30
0.000000
11
-10.461616
21
0.000000
31
3.399206
12
-15.000000
22
0.000000
32
0.000000
13
-15.000000
23
0.000000
33
0.000000
0
3DFACE
8
0
10
-14.488881
20
0.200000
30
-3.882303
11
-15.000000
21
0.000000
31
0.000000
12
-15.000000
22
0.200000
32
0.000000
13
-15.000000
23
0.200000
33
0.000000
0
3DFACE
8
0
10
-8.899171
20
0.000000
30
6.465659
11
-12.990389
21
0.000000
31
7.499984
12
-14.488881
22
0.000000
32
3.882303
13
-14.488881
23
0.000000
33
3.882303
0
3DFACE
8
0
10
-14.488881
20
0.200000
30
3.882303
11
-14.488881
21
0.000000
31
3.882303
12
-12.990389
22
0.000000
32
7.499984
13
-12.990389
23
0.000000
33
7.499984
0
3DFACE
8
0
10
-10.461616
20
0.000000
30
3.399206
11
-8.899171
21
0.000000
31
6.465659
12
-14.488881
22
0.000000
32
3.882303
13
-14.488881
23
0.000000
33
3.882303
0
3DFACE
8
0
10
-14.488881
20
0.200000
30
3.882303
11
-15.000000
21
0.200000
31
0.000000
12
-14.488881
22
0.000000
32
3.882303
13
-14.488881
23
0.000000
33
3.882303
0
3DFACE
8
0
10
-3.399174
20
0.000000
30
10.461624
11
-10.606602
21
0.000000
31
10.606602
12
-12.990389
22
0.000000
32
7.499984
13
-12.990389
23
0.000000
33
7.499984
0
3DFACE
8
0
10
-12.990389
20
0.200000
30
7.499984
11
-12.990389
21
0.000000
31
7.499984
12
-10.606602
22
0.000000
32
10.606602
13
-10.606602
23
0.000000
33
10.606602
0
3DFACE
8
0
10
-6.465618
20
0.000000
30
8.899199
11
-3.399174
21
0.000000
31
10.461624
12
-12.990389
22
0.000000
32
7.499984
13
-12.990389
23
0.000000
33
7.499984
0
3DFACE
8
0
10
-8.899171
20
0.000000
30
6.465659
11
-6.465618
21
0.000000
31
8.899199
12
-12.990389
22
0.000000
32
7.499984
13
-12.990389
23
0.000000
33
7.499984
0
3DFACE
8
0
10
-12.990389
20
0.200000
30
7.499984
11
-14.488881
21
0.200000
31
3.882303
12
-12.990389
22
0.000000
32
7.499984
13
-12.990389
23
0.000000
33
7.499984
0
3DFACE
8
0
10
7.499984
20
0.000000
30
12.990389
11
-7.499984
21
0.000000
31
12.990389
12
-10.606602
22
0.000000
32
10.606602
13
-10.606602
23
0.000000
33
10.606602
0
3DFACE
8
0
10
-10.606602
20
0.200000
30
10.606602
11
-10.606602
21
0.000000
31
10.606602
12
-7.499984
22
0.000000
32
12.990389
13
-7.499984
23
0.000000
33
12.990389
0
3DFACE
8
0
10
0.000000
20
0.000000
30
10.999998
11
7.499984
21
0.000000
31
12.990389
12
-10.606602
22
0.000000
32
10.606602
13
-10.606602
23
0.000000
33
10.606602
0
3DFACE
8
0
10
-3.399174
20
0.000000
30
10.461624
11
0.000000
21
0.000000
31
10.999998
12
-10.606602
22
0.000000
32
10.606602
13
-10.606602
23
0.000000
33
10.606602
0
3DFACE
8
0
10
-10.606602
20
0.200000
30
10.606602
11
-12.990389
21
0.200000
31
7.499984
12
-10.606602
22
0.000000
32
10.606602
13
-10.606602
23
0.000000
33
10.606602
0
3DFACE
8
0
10
3.882303
20
0.000000
30
14.488881
11
-3.882303
21
0.000000
31
14.488881
12
-7.499984
22
0.000000
32
12.990389
13
-7.499984
23
0.000000
33
12.990389
0
3DFACE
8
0
10
-7.499984
20
0.200000
30
12.990389
11
-7.499984
21
0.000000
31
12.990389
12
-3.882303
22
0.000000
32
14.488881
13
-3.882303
23
0.000000
33
14.488881
0
3DFACE
8
0
10
7.499984
20
0.000000
30
12.990389
11
3.882303
21
0.000000
31
14.488881
12
-7.499984
22
0.000000
32
12.990389
13
-7.499984
23
0.000000
33
12.990389
0
3DFACE
8
0
10
-7.499984
20
0.200000
30
12.990389
11
-10.606602
21
0.200000
31
10.606602
12
-7.499984
22
0.000000
32
12.990389
13
-7.499984
23
0.000000
33
12.990389
0
3DFACE
8
0
10
3.882303
20
0.000000
30
14.488881
11
0.000000
21
0.000000
31
15.000000
12
-3.882303
22
0.000000
32
14.488881
13
-3.882303
23
0.000000
33
14.488881
0
3DFACE
8
0
10
-3.882303
20
0.200000
30
14.488881
11
-3.882303
21
0.000000
31
14.488881
12
0.000000
22
0.000000
32
15.000000
13
0.000000
23
0.000000
33
15.000000
0
3DFACE
8
0
10
-3.882303
20
0.200000
30
14.488881
11
-7.499984
21
0.200000
31
12.990389
12
-3.882303
22
0.000000
32
14.488881
13
-3.882303
23
0.000000
33
14.488881
0
3DFACE
8
0
10
0.000000
20
0.200000
30
15.000000
11
0.000000
21
0.000000
31
15.000000
12
3.882303
22
0.000000
32
14.488881
13
3.882303
23
0.000000
33
14.488881
0
3DFACE
8
0
10
0.000000
20
0.200000
30
15.000000
11
-3.882303
21
0.200000
31
14.488881
12
0.000000
22
0.000000
32
15.000000
13
0.000000
23
0.000000
33
15.000000
0
3DFACE
8
0
10
3.882303
20
0.200000
30
14.488881
11
3.882303
21
0.000000
31
14.488881
12
7.499984
22
0.000000
32
12.990389
13
7.499984
23
0.000000
33
12.990389
0
3DFACE
8
0
10
3.882303
20
0.200000
30
14.488881
11
0.000000
21
0.200000
31
15.000000
12
3.882303
22
0.000000
32
14.488881
13
3.882303
23
0.000000
33
14.488881
0
3DFACE
8
0
10
0.000000
20
0.000000
30
10.999998
11
10.606602
21
0.000000
31
10.606602
12
7.499984
22
0.000000
32
12.990389
13
7.499984
23
0.000000
33
12.990389
0
3DFACE
8
0
10
7.499984
20
0.200000
30
12.990389
11
7.499984
21
0.000000
31
12.990389
12
10.606602
22
0.000000
32
10.606602
13
10.606602
23
0.000000
33
10.606602
0
3DFACE
8
0
10
7.499984
20
0.200000
30
12.990389
11
3.882303
21
0.200000
31
14.488881
12
7.499984
22
0.000000
32
12.990389
13
7.499984
23
0.000000
33
12.990389
0
3DFACE
8
0
10
6.465618
20
0.000000
30
8.899199
11
12.990389
21
0.000000
31
7.499984
12
10.606602
22
0.000000
32
10.606602
13
10.606602
23
0.000000
33
10.606602
0
3DFACE
8
0
10
10.606602
20
0.200000
30
10.606602
11
10.606602
21
0.000000
31
10.606602
12
12.990389
22
0.000000
32
7.499984
13
12.990389
23
0.000000
33
7.499984
0
3DFACE
8
0
10
3.399174
20
0.000000
30
10.461624
11
6.465618
21
0.000000
31
8.899199
12
10.606602
22
0.000000
32
10.606602
13
10.606602
23
0.000000
33
10.606602
0
3DFACE
8
0
10
0.000000
20
0.000000
30
10.999998
11
3.399174
21
0.000000
31
10.461624
12
10.606602
22
0.000000
32
10.606602
13
10.606602
23
0.000000
33
10.606602
0
3DFACE
8
0
10
10.606602
20
0.200000
30
10.606602
11
7.499984
21
0.200000
31
12.990389
12
10.606602
22
0.000000
32
10.606602
13
10.606602
23
0.000000
33
10.606602
0
3DFACE
8
0
10
8.899171
20
0.000000
30
6.465659
11
14.488881
21
0.000000
31
3.882303
12
12.990389
22
0.000000
32
7.499984
13
12.990389
23
0.000000
33
7.499984
0
3DFACE
8
0
10
12.990389
20
0.200000
30
7.499984
11
12.990389
21
0.000000
31
7.499984
12
14.488881
22
0.000000
32
3.882303
13
14.488881
23
0.000000
33
3.882303
0
3DFACE
8
0
10
6.465618
20
0.000000
30
8.899199
11
8.899171
21
0.000000
31
6.465659
12
12.990389
22
0.000000
32
7.499984
13
12.990389
23
0.000000
33
7.499984
0
3DFACE
8
0
10
12.990389
20
0.200000
30
7.499984
11
10.606602
21
0.200000
31
10.606602
12
12.990389
22
0.000000
32
7.499984
13
12.990389
23
0.000000
33
7.499984
0
3DFACE
8
0
10
10.461616
20
0.000000
30
3.399206
11
11.000000
21
0.000000
31
0.000000
12
14.488881
22
0.000000
32
3.882303
13
14.488881
23
0.000000
33
3.882303
0
3DFACE
8
0
10
8.899171
20
0.000000
30
6.465659
11
10.461616
21
0.000000
31
3.399206
12
14.488881
22
0.000000
32
3.882303
13
14.488881
23
0.000000
33
3.882303
0
3DFACE
8
0
10
14.488881
20
0.200000
30
3.882303
11
12.990389
21
0.200000
31
7.499984
12
14.488881
22
0.000000
32
3.882303
13
14.488881
23
0.000000
33
3.882303
0
3DFACE
8
0
10
11.000000
20
0.200000
30
0.000000
11
11.000000
21
0.000000
31
0.000000
12
10.461616
22
0.000000
32
3.399206
13
10.461616
23
0.000000
33
3.399206
0
3DFACE
8
0
10
10.461616
20
0.200000
30
-3.399206
11
10.461616
21
0.000000
31
-3.399206
12
11.000000
22
0.000000
32
0.000000
13
11.000000
23
0.000000
33
0.000000
0
3DFACE
8
0
10
10.461616
20
0.200000
30
-3.399206
11
11.000000
21
0.000000
31
0.000000
12
11.000000
22
0.200000
32
0.000000
13
11.000000
23
0.200000
33
0.000000
0
3DFACE
8
0
10
10.461616
20
0.200000
30
3.399206
11
10.461616
21
0.000000
31
3.399206
12
8.899171
22
0.000000
32
6.465659
13
8.899171
23
0.000000
33
6.465659
0
3DFACE
8
0
10
10.461616
20
0.200000
30
3.399206
11
11.000000
21
0.200000
31
0.000000
12
10.461616
22
0.000000
32
3.399206
13
10.461616
23
0.000000
33
3.399206
0
3DFACE
8
0
10
8.899171
20
0.200000
30
6.465659
11
8.899171
21
0.000000
31
6.465659
12
6.465618
22
0.000000
32
8.899199
13
6.465618
23
0.000000
33
8.899199
0
3DFACE
8
0
10
10.461616
20
0.200000
30
3.399206
11
8.899171
21
0.000000
31
6.465659
12
8.899171
22
0.200000
32
6.465659
13
8.899171
23
0.200000
33
6.465659
0
3DFACE
8
0
10
6.465618
20
0.200000
30
8.899199
11
6.465618
21
0.000000
31
8.899199
12
3.399174
22
0.000000
32
10.461624
13
3.399174
23
0.000000
33
10.461624
0
3DFACE
8
0
10
8.899171
20
0.200000
30
6.465659
11
6.465618
21
0.000000
31
8.899199
12
6.465618
22
0.200000
32
8.899199
13
6.465618
23
0.200000
33
8.899199
0
3DFACE
8
0
10
3.399174
20
0.200000
30
10.461624
11
3.399174
21
0.000000
31
10.461624
12
0.000000
22
0.000000
32
10.999998
13
0.000000
23
0.000000
33
10.999998
0
3DFACE
8
0
10
6.465618
20
0.200000
30
8.899199
11
3.399174
21
0.000000
31
10.461624
12
3.399174
22
0.200000
32
10.461624
13
3.399174
23
0.200000
33
10.461624
0
3DFACE
8
0
10
0.000000
20
0.200000
30
10.999998
11
0.000000
21
0.000000
31
10.999998
12
-3.399174
22
0.000000
32
10.461624
13
-3.399174
23
0.000000
33
10.461624
0
3DFACE
8
0
10
3.399174
20
0.200000
30
10.461624
11
0.000000
21
0.000000
31
10.999998
12
0.000000
22
0.200000
32
10.999998
13
0.000000
23
0.200000
33
10.999998
0
3DFACE
8
0
10
-3.399174
20
0.200000
30
10.461624
11
-3.399174
21
0.000000
31
10.461624
12
-6.465618
22
0.000000
32
8.899199
13
-6.465618
23
0.000000
33
8.899199
0
3DFACE
8
0
10
0.000000
20
0.200000
30
10.999998
11
-3.399174
21
0.000000
31
10.461624
12
-3.399174
22
0.200000
32
10.461624
13
-3.399174
23
0.200000
33
10.461624
0
3DFACE
8
0
10
-6.465618
20
0.200000
30
8.899199
11
-6.465618
21
0.000000
31
8.899199
12
-8.899171
22
0.000000
32
6.465659
13
-8.899171
23
0.000000
33
6.465659
0
3DFACE
8
0
10
-3.399174
20
0.200000
30
10.461624
11
-6.465618
21
0.000000
31
8.899199
12
-6.465618
22
0.200000
32
8.899199
13
-6.465618
23
0.200000
33
8.899199
0
3DFACE
8
0
10
-8.899171
20
0.200000
30
6.465659
11
-8.899171
21
0.000000
31
6.465659
12
-10.461616
22
0.000000
32
3.399206
13
-10.461616
23
0.000000
33
3.399206
0
3DFACE
8
0
10
-6.465618
20
0.200000
30
8.899199
11
-8.899171
21
0.000000
31
6.465659
12
-8.899171
22
0.200000
32
6.465659
13
-8.899171
23
0.200000
33
6.465659
0
3DFACE
8
0
10
-10.461616
20
0.200000
30
3.399206
11
-10.461616
21
0.000000
31
3.399206
12
-11.000000
22
0.000000
32
0.000000
13
-11.000000
23
0.000000
33
0.000000
0
3DFACE
8
0
10
-8.899171
20
0.200000
30
6.465659
11
-10.461616
21
0.000000
31
3.399206
12
-10.461616
22
0.200000
32
3.399206
13
-10.461616
23
0.200000
33
3.399206
0
3DFACE
8
0
10
-11.000000
20
0.200000
30
0.000000
11
-11.000000
21
0.000000
31
0.000000
12
-10.461616
22
0.000000
32
-3.399206
13
-10.461616
23
0.000000
33
-3.399206
0
3DFACE
8
0
10
-10.461616
20
0.200000
30
3.399206
11
-11.000000
21
0.000000
31
0.000000
12
-11.000000
22
0.200000
32
0.000000
13
-11.000000
23
0.200000
33
0.000000
0
3DFACE
8
0
10
-10.461616
20
0.200000
30
-3.399206
11
-10.461616
21
0.000000
31
-3.399206
12
-8.899171
22
0.000000
32
-6.465659
13
-8.899171
23
0.000000
33
-6.465659
0
3DFACE
8
0
10
-11.000000
20
0.200000
30
0.000000
11
-10.461616
21
0.000000
31
-3.399206
12
-10.461616
22
0.200000
32
-3.399206
13
-10.461616
23
0.200000
33
-3.399206
0
3DFACE
8
0
10
-8.899171
20
0.200000
30
-6.465659
11
-8.899171
21
0.000000
31
-6.465659
12
-6.465618
22
0.000000
32
-8.899199
13
-6.465618
23
0.000000
33
-8.899199
0
3DFACE
8
0
10
-10.461616
20
0.200000
30
-3.399206
11
-8.899171
21
0.000000
31
-6.465659
12
-8.899171
22
0.200000
32
-6.465659
13
-8.899171
23
0.200000
33
-6.465659
0
3DFACE
8
0
10
-6.465618
20
0.200000
30
-8.899199
11
-6.465618
21
0.000000
31
-8.899199
12
-3.399174
22
0.000000
32
-10.461624
13
-3.399174
23
0.000000
33
-10.461624
0
3DFACE
8
0
10
-8.899171
20
0.200000
30
-6.465659
11
-6.465618
21
0.000000
31
-8.899199
12
-6.465618
22
0.200000
32
-8.899199
13
-6.465618
23
0.200000
33
-8.899199
0
3DFACE
8
0
10
-3.399174
20
0.200000
30
-10.461624
11
-3.399174
21
0.000000
31
-10.461624
12
0.000000
22
0.000000
32
-10.999998
13
0.000000
23
0.000000
33
-10.999998
0
3DFACE
8
0
10
-6.465618
20
0.200000
30
-8.899199
11
-3.399174
21
0.000000
31
-10.461624
12
-3.399174
22
0.200000
32
-10.461624
13
-3.399174
23
0.200000
33
-10.461624
0
3DFACE
8
0
10
0.000000
20
0.200000
30
-10.999998
11
0.000000
21
0.000000
31
-10.999998
12
3.399174
22
0.000000
32
-10.461624
13
3.399174
23
0.000000
33
-10.461624
0
3DFACE
8
0
10
-3.399174
20
0.200000
30
-10.461624
11
0.000000
21
0.000000
31
-10.999998
12
0.000000
22
0.200000
32
-10.999998
13
0.000000
23
0.200000
33
-10.999998
0
3DFACE
8
0
10
3.399174
20
0.200000
30
-10.461624
11
3.399174
21
0.000000
31
-10.461624
12
6.465618
22
0.000000
32
-8.899199
13
6.465618
23
0.000000
33
-8.899199
0
3DFACE
8
0
10
0.000000
20
0.200000
30
-10.999998
11
3.399174
21
0.000000
31
-10.461624
12
3.399174
22
0.200000
32
-10.461624
13
3.399174
23
0.200000
33
-10.461624
0
3DFACE
8
0
10
6.465618
20
0.200000
30
-8.899199
11
6.465618
21
0.000000
31
-8.899199
12
8.899171
22
0.000000
32
-6.465659
13
8.899171
23
0.000000
33
-6.465659
0
3DFACE
8
0
10
3.399174
20
0.200000
30
-10.461624
11
6.465618
21
0.000000
31
-8.899199
12
6.465618
22
0.200000
32
-8.899199
13
6.465618
23
0.200000
33
-8.899199
0
3DFACE
8
0
10
8.899171
20
0.200000
30
-6.465659
11
8.899171
21
0.000000
31
-6.465659
12
10.461616
22
0.000000
32
-3.399206
13
10.461616
23
0.000000
33
-3.399206
0
3DFACE
8
0
10
6.465618
20
0.200000
30
-8.899199
11
8.899171
21
0.000000
31
-6.465659
12
8.899171
22
0.200000
32
-6.465659
13
8.899171
23
0.200000
33
-6.465659
0
3DFACE
8
0
10
8.899171
20
0.200000
30
-6.465659
11
10.461616
21
0.000000
31
-3.399206
12
10.461616
22
0.200000
32
-3.399206
13
10.461616
23
0.200000
33
-3.399206
0
3DFACE
8
0
10
-11.000000
20
0.200000
30
0.000000
11
-15.000000
21
0.200000
31
0.000000
12
-14.488881
22
0.200000
32
3.882303
13
-14.488881
23
0.200000
33
3.882303
0
3DFACE
8
0
10
-11.000000
20
0.200000
30
0.000000
11
-10.461616
21
0.200000
31
-3.399206
12
-15.000000
22
0.200000
32
0.000000
13
-15.000000
23
0.200000
33
0.000000
0
3DFACE
8
0
10
-14.488881
20
0.200000
30
-3.882303
11
-15.000000
21
0.200000
31
0.000000
12
-10.461616
22
0.200000
32
-3.399206
13
-10.461616
23
0.200000
33
-3.399206
0
3DFACE
8
0
10
-8.899171
20
0.200000
30
6.465659
11
-14.488881
21
0.200000
31
3.882303
12
-12.990389
22
0.200000
32
7.499984
13
-12.990389
23
0.200000
33
7.499984
0
3DFACE
8
0
10
-10.461616
20
0.200000
30
3.399206
11
-11.000000
21
0.200000
31
0.000000
12
-14.488881
22
0.200000
32
3.882303
13
-14.488881
23
0.200000
33
3.882303
0
3DFACE
8
0
10
-8.899171
20
0.200000
30
6.465659
11
-10.461616
21
0.200000
31
3.399206
12
-14.488881
22
0.200000
32
3.882303
13
-14.488881
23
0.200000
33
3.882303
0
3DFACE
8
0
10
-6.465618
20
0.200000
30
8.899199
11
-12.990389
21
0.200000
31
7.499984
12
-10.606602
22
0.200000
32
10.606602
13
-10.606602
23
0.200000
33
10.606602
0
3DFACE
8
0
10
-6.465618
20
0.200000
30
8.899199
11
-8.899171
21
0.200000
31
6.465659
12
-12.990389
22
0.200000
32
7.499984
13
-12.990389
23
0.200000
33
7.499984
0
3DFACE
8
0
10
0.000000
20
0.200000
30
10.999998
11
-10.606602
21
0.200000
31
10.606602
12
-7.499984
22
0.200000
32
12.990389
13
-7.499984
23
0.200000
33
12.990389
0
3DFACE
8
0
10
-3.399174
20
0.200000
30
10.461624
11
-6.465618
21
0.200000
31
8.899199
12
-10.606602
22
0.200000
32
10.606602
13
-10.606602
23
0.200000
33
10.606602
0
3DFACE
8
0
10
0.000000
20
0.200000
30
10.999998
11
-3.399174
21
0.200000
31
10.461624
12
-10.606602
22
0.200000
32
10.606602
13
-10.606602
23
0.200000
33
10.606602
0
3DFACE
8
0
10
7.499984
20
0.200000
30
12.990389
11
-7.499984
21
0.200000
31
12.990389
12
-3.882303
22
0.200000
32
14.488881
13
-3.882303
23
0.200000
33
14.488881
0
3DFACE
8
0
10
10.606602
20
0.200000
30
10.606602
11
-7.499984
21
0.200000
31
12.990389
12
7.499984
22
0.200000
32
12.990389
13
7.499984
23
0.200000
33
12.990389
0
3DFACE
8
0
10
0.000000
20
0.200000
30
10.999998
11
-7.499984
21
0.200000
31
12.990389
12
10.606602
22
0.200000
32
10.606602
13
10.606602
23
0.200000
33
10.606602
0
3DFACE
8
0
10
3.882303
20
0.200000
30
14.488881
11
-3.882303
21
0.200000
31
14.488881
12
0.000000
22
0.200000
32
15.000000
13
0.000000
23
0.200000
33
15.000000
0
3DFACE
8
0
10
7.499984
20
0.200000
30
12.990389
11
-3.882303
21
0.200000
31
14.488881
12
3.882303
22
0.200000
32
14.488881
13
3.882303
23
0.200000
33
14.488881
0
3DFACE
8
0
10
3.399174
20
0.200000
30
10.461624
11
10.606602
21
0.200000
31
10.606602
12
12.990389
22
0.200000
32
7.499984
13
12.990389
23
0.200000
33
7.499984
0
3DFACE
8
0
10
3.399174
20
0.200000
30
10.461624
11
0.000000
21
0.200000
31
10.999998
12
10.606602
22
0.200000
32
10.606602
13
10.606602
23
0.200000
33
10.606602
0
3DFACE
8
0
10
8.899171
20
0.200000
30
6.465659
11
12.990389
21
0.200000
31
7.499984
12
14.488881
22
0.200000
32
3.882303
13
14.488881
23
0.200000
33
3.882303
0
3DFACE
8
0
10
6.465618
20
0.200000
30
8.899199
11
3.399174
21
0.200000
31
10.461624
12
12.990389
22
0.200000
32
7.499984
13
12.990389
23
0.200000
33
7.499984
0
3DFACE
8
0
10
8.899171
20
0.200000
30
6.465659
11
6.465618
21
0.200000
31
8.899199
12
12.990389
22
0.200000
32
7.499984
13
12.990389
23
0.200000
33
7.499984
0
3DFACE
8
0
10
10.461616
20
0.200000
30
3.399206
11
14.488881
21
0.200000
31
3.882303
12
15.000000
22
0.200000
32
0.000000
13
15.000000
23
0.200000
33
0.000000
0
3DFACE
8
0
10
10.461616
20
0.200000
30
3.399206
11
8.899171
21
0.200000
31
6.465659
12
14.488881
22
0.200000
32
3.882303
13
14.488881
23
0.200000
33
3.882303
0
3DFACE
8
0
10
10.461616
20
0.200000
30
3.399206
11
15.000000
21
0.200000
31
0.000000
12
11.000000
22
0.200000
32
0.000000
13
11.000000
23
0.200000
33
0.000000
0
3DFACE
8
0
10
14.488881
20
0.200000
30
-3.882303
11
11.000000
21
0.200000
31
0.000000
12
15.000000
22
0.200000
32
0.000000
13
15.000000
23
0.200000
33
0.000000
0
3DFACE
8
0
10
14.488881
20
0.200000
30
-3.882303
11
10.461616
21
0.200000
31
-3.399206
12
11.000000
22
0.200000
32
0.000000
13
11.000000
23
0.200000
33
0.000000
0
3DFACE
8
0
10
14.488881
20
0.200000
30
-3.882303
11
8.899171
21
0.200000
31
-6.465659
12
10.461616
22
0.200000
32
-3.399206
13
10.461616
23
0.200000
33
-3.399206
0
3DFACE
8
0
10
12.990389
20
0.200000
30
-7.499984
11
6.465618
21
0.200000
31
-8.899199
12
8.899171
22
0.200000
32
-6.465659
13
8.899171
23
0.200000
33
-6.465659
0
3DFACE
8
0
10
14.488881
20
0.200000
30
-3.882303
11
12.990389
21
0.200000
31
-7.499984
12
8.899171
22
0.200000
32
-6.465659
13
8.899171
23
0.200000
33
-6.465659
0
3DFACE
8
0
10
10.606602
20
0.200000
30
-10.606602
11
3.399174
21
0.200000
31
-10.461624
12
6.465618
22
0.200000
32
-8.899199
13
6.465618
23
0.200000
33
-8.899199
0
3DFACE
8
0
10
12.990389
20
0.200000
30
-7.499984
11
10.606602
21
0.200000
31
-10.606602
12
6.465618
22
0.200000
32
-8.899199
13
6.465618
23
0.200000
33
-8.899199
0
3DFACE
8
0
10
10.606602
20
0.200000
30
-10.606602
11
0.000000
21
0.200000
31
-10.999998
12
3.399174
22
0.200000
32
-10.461624
13
3.399174
23
0.200000
33
-10.461624
0
3DFACE
8
0
10
-10.606602
20
0.200000
30
-10.606602
11
-3.399174
21
0.200000
31
-10.461624
12
0.000000
22
0.200000
32
-10.999998
13
0.000000
23
0.200000
33
-10.999998
0
3DFACE
8
0
10
7.499984
20
0.200000
30
-12.990389
11
-10.606602
21
0.200000
31
-10.606602
12
0.000000
22
0.200000
32
-10.999998
13
0.000000
23
0.200000
33
-10.999998
0
3DFACE
8
0
10
10.606602
20
0.200000
30
-10.606602
11
7.499984
21
0.200000
31
-12.990389
12
0.000000
22
0.200000
32
-10.999998
13
0.000000
23
0.200000
33
-10.999998
0
3DFACE
8
0
10
-12.990389
20
0.200000
30
-7.499984
11
-6.465618
21
0.200000
31
-8.899199
12
-3.399174
22
0.200000
32
-10.461624
13
-3.399174
23
0.200000
33
-10.461624
0
3DFACE
8
0
10
-10.606602
20
0.200000
30
-10.606602
11
-12.990389
21
0.200000
31
-7.499984
12
-3.399174
22
0.200000
32
-10.461624
13
-3.399174
23
0.200000
33
-10.461624
0
3DFACE
8
0
10
-12.990389
20
0.200000
30
-7.499984
11
-8.899171
21
0.200000
31
-6.465659
12
-6.465618
22
0.200000
32
-8.899199
13
-6.465618
23
0.200000
33
-8.899199
0
3DFACE
8
0
10
-14.488881
20
0.200000
30
-3.882303
11
-10.461616
21
0.200000
31
-3.399206
12
-8.899171
22
0.200000
32
-6.465659
13
-8.899171
23
0.200000
33
-6.465659
0
3DFACE
8
0
10
-12.990389
20
0.200000
30
-7.499984
11
-14.488881
21
0.200000
31
-3.882303
12
-8.899171
22
0.200000
32
-6.465659
13
-8.899171
23
0.200000
33
-6.465659
0
3DFACE
8
0
10
7.499984
20
0.200000
30
-12.990389
11
-7.499984
21
0.200000
31
-12.990389
12
-10.606602
22
0.200000
32
-10.606602
13
-10.606602
23
0.200000
33
-10.606602
0
3DFACE
8
0
10
3.882303
20
0.200000
30
-14.488881
11
-3.882303
21
0.200000
31
-14.488881
12
-7.499984
22
0.200000
32
-12.990389
13
-7.499984
23
0.200000
33
-12.990389
0
3DFACE
8
0
10
7.499984
20
0.200000
30
-12.990389
11
3.882303
21
0.200000
31
-14.488881
12
-7.499984
22
0.200000
32
-12.990389
13
-7.499984
23
0.200000
33
-12.990389
0
3DFACE
8
0
10
3.882303
20
0.200000
30
-14.488881
11
0.000000
21
0.200000
31
-15.000000
12
-3.882303
22
0.200000
32
-14.488881
13
-3.882303
23
0.200000
33
-14.488881
0
ENDSEC
0
EOF
