999
DXF created by VCGLib
0
SECTION
2
HEADER
9
$ACADVER
1
AC1009
9
$INSBASE
10
0.0
20
0.0
30
0.0
9
$EXTMIN
10
-56.000000
20
-56.000000
9
$EXTMAX
10
56.000000
20
56.000000
9
$LINMIN
10
-56.000000
20
-56.000000
9
$LINMAX
10
56.000000
20
56.000000
0
ENDSEC
0
SECTION
2
ENTITIES
0
3DFACE
8
0
10
54.089436
20
0.705995
30
13.331849
11
54.091846
21
0.000000
31
14.493867
12
56.000000
22
0.000000
32
0.000000
13
56.000000
23
0.000000
33
0.000000
0
3DFACE
8
0
10
55.707108
20
-0.707107
30
0.000000
11
56.000000
21
0.000000
31
0.000000
12
54.091846
22
0.000000
32
14.493867
13
54.091846
23
0.000000
33
14.493867
0
3DFACE
8
0
10
55.708218
20
0.705995
30
0.000000
11
54.089436
21
0.705995
31
13.331849
12
56.000000
22
0.000000
32
0.000000
13
56.000000
23
0.000000
33
0.000000
0
3DFACE
8
0
10
54.091846
20
0.000000
30
-14.493867
11
55.708218
21
0.705995
31
0.000000
12
56.000000
22
0.000000
32
0.000000
13
56.000000
23
0.000000
33
0.000000
0
3DFACE
8
0
10
54.088360
20
-0.707107
30
-13.331583
11
56.000000
21
0.000000
31
0.000000
12
55.707108
22
-0.707107
32
0.000000
13
55.707108
23
-0.707107
33
0.000000
0
3DFACE
8
0
10
54.088360
20
-0.707107
30
-13.331583
11
54.091846
21
0.000000
31
-14.493867
12
56.000000
22
0.000000
32
0.000000
13
56.000000
23
0.000000
33
0.000000
0
3DFACE
8
0
10
49.327175
20
0.705995
30
25.888899
11
48.497421
21
0.000000
31
28.000000
12
54.091846
22
0.000000
32
14.493867
13
54.091846
23
0.000000
33
14.493867
0
3DFACE
8
0
10
49.326195
20
-0.707107
30
25.888384
11
54.091846
21
0.000000
31
14.493867
12
48.497421
22
0.000000
32
28.000000
13
48.497421
23
0.000000
33
28.000000
0
3DFACE
8
0
10
54.089436
20
0.705995
30
13.331849
11
49.327175
21
0.705995
31
25.888899
12
54.091846
22
0.000000
32
14.493867
13
54.091846
23
0.000000
33
14.493867
0
3DFACE
8
0
10
54.088360
20
-0.707107
30
13.331583
11
55.707108
21
-0.707107
31
0.000000
12
54.091846
22
0.000000
32
14.493867
13
54.091846
23
0.000000
33
14.493867
0
3DFACE
8
0
10
54.088360
20
-0.707107
30
13.331583
11
54.091846
21
0.000000
31
14.493867
12
49.326195
22
-0.707107
32
25.888384
13
49.326195
23
-0.707107
33
25.888384
0
3DFACE
8
0
10
41.698200
20
0.705995
30
36.941380
11
39.597980
21
0.000000
31
39.597980
12
48.497421
22
0.000000
32
28.000000
13
48.497421
23
0.000000
33
28.000000
0
3DFACE
8
0
10
41.697369
20
-0.707107
30
36.940643
11
48.497421
21
0.000000
31
28.000000
12
39.597980
22
0.000000
32
39.597980
13
39.597980
23
0.000000
33
39.597980
0
3DFACE
8
0
10
49.327175
20
0.705995
30
25.888899
11
41.698200
21
0.705995
31
36.941380
12
48.497421
22
0.000000
32
28.000000
13
48.497421
23
0.000000
33
28.000000
0
3DFACE
8
0
10
49.326195
20
-0.707107
30
25.888384
11
48.497421
21
0.000000
31
28.000000
12
41.697369
22
-0.707107
32
36.940643
13
41.697369
23
-0.707107
33
36.940643
0
3DFACE
8
0
10
31.645874
20
0.705995
30
45.846962
11
28.000000
21
0.000000
31
48.497421
12
39.597980
22
0.000000
32
39.597980
13
39.597980
23
0.000000
33
39.597980
0
3DFACE
8
0
10
31.645243
20
-0.707107
30
45.846050
11
39.597980
21
0.000000
31
39.597980
12
28.000000
22
0.000000
32
48.497421
13
28.000000
23
0.000000
33
48.497421
0
3DFACE
8
0
10
41.698200
20
0.705995
30
36.941380
11
31.645874
21
0.705995
31
45.846962
12
39.597980
22
0.000000
32
39.597980
13
39.597980
23
0.000000
33
39.597980
0
3DFACE
8
0
10
41.697369
20
-0.707107
30
36.940643
11
39.597980
21
0.000000
31
39.597980
12
31.645243
22
-0.707107
32
45.846050
13
31.645243
23
-0.707107
33
45.846050
0
3DFACE
8
0
10
19.754406
20
0.705995
30
52.088089
11
14.493867
21
0.000000
31
54.091846
12
28.000000
22
0.000000
32
48.497421
13
28.000000
23
0.000000
33
48.497421
0
3DFACE
8
0
10
19.754013
20
-0.707107
30
52.087051
11
28.000000
21
0.000000
31
48.497421
12
14.493867
22
0.000000
32
54.091846
13
14.493867
23
0.000000
33
54.091846
0
3DFACE
8
0
10
31.645874
20
0.705995
30
45.846962
11
19.754406
21
0.705995
31
52.088089
12
28.000000
22
0.000000
32
48.497421
13
28.000000
23
0.000000
33
48.497421
0
3DFACE
8
0
10
31.645243
20
-0.707107
30
45.846050
11
28.000000
21
0.000000
31
48.497421
12
19.754013
22
-0.707107
32
52.087051
13
19.754013
23
-0.707107
33
52.087051
0
3DFACE
8
0
10
6.714883
20
0.705995
30
55.302040
11
-0.000000
21
0.000000
31
56.000000
12
14.493867
22
0.000000
32
54.091846
13
14.493867
23
0.000000
33
54.091846
0
3DFACE
8
0
10
6.714750
20
-0.707107
30
55.300938
11
14.493867
21
0.000000
31
54.091846
12
-0.000000
22
0.000000
32
56.000000
13
-0.000000
23
0.000000
33
56.000000
0
3DFACE
8
0
10
19.754406
20
0.705995
30
52.088089
11
6.714883
21
0.705995
31
55.302040
12
14.493867
22
0.000000
32
54.091846
13
14.493867
23
0.000000
33
54.091846
0
3DFACE
8
0
10
19.754013
20
-0.707107
30
52.087051
11
14.493867
21
0.000000
31
54.091846
12
6.714750
22
-0.707107
32
55.300938
13
6.714750
23
-0.707107
33
55.300938
0
3DFACE
8
0
10
-6.714883
20
0.705995
30
55.302040
11
-14.493867
21
0.000000
31
54.091846
12
-0.000000
22
0.000000
32
56.000000
13
-0.000000
23
0.000000
33
56.000000
0
3DFACE
8
0
10
-6.714750
20
-0.707107
30
55.300938
11
-0.000000
21
0.000000
31
56.000000
12
-14.493867
22
0.000000
32
54.091846
13
-14.493867
23
0.000000
33
54.091846
0
3DFACE
8
0
10
6.714883
20
0.705995
30
55.302040
11
-6.714883
21
0.705995
31
55.302040
12
-0.000000
22
0.000000
32
56.000000
13
-0.000000
23
0.000000
33
56.000000
0
3DFACE
8
0
10
6.714750
20
-0.707107
30
55.300938
11
-0.000000
21
0.000000
31
56.000000
12
-6.714750
22
-0.707107
32
55.300938
13
-6.714750
23
-0.707107
33
55.300938
0
3DFACE
8
0
10
-19.754406
20
0.705995
30
52.088089
11
-28.000000
21
0.000000
31
48.497421
12
-14.493867
22
0.000000
32
54.091846
13
-14.493867
23
0.000000
33
54.091846
0
3DFACE
8
0
10
-19.754013
20
-0.707107
30
52.087051
11
-14.493867
21
0.000000
31
54.091846
12
-28.000000
22
0.000000
32
48.497421
13
-28.000000
23
0.000000
33
48.497421
0
3DFACE
8
0
10
-6.714883
20
0.705995
30
55.302040
11
-19.754406
21
0.705995
31
52.088089
12
-14.493867
22
0.000000
32
54.091846
13
-14.493867
23
0.000000
33
54.091846
0
3DFACE
8
0
10
-6.714750
20
-0.707107
30
55.300938
11
-14.493867
21
0.000000
31
54.091846
12
-19.754013
22
-0.707107
32
52.087051
13
-19.754013
23
-0.707107
33
52.087051
0
3DFACE
8
0
10
-31.645874
20
0.705995
30
45.846962
11
-39.597980
21
0.000000
31
39.597980
12
-28.000000
22
0.000000
32
48.497421
13
-28.000000
23
0.000000
33
48.497421
0
3DFACE
8
0
10
-31.645243
20
-0.707107
30
45.846050
11
-28.000000
21
0.000000
31
48.497421
12
-39.597980
22
0.000000
32
39.597980
13
-39.597980
23
0.000000
33
39.597980
0
3DFACE
8
0
10
-19.754406
20
0.705995
30
52.088089
11
-31.645874
21
0.705995
31
45.846962
12
-28.000000
22
0.000000
32
48.497421
13
-28.000000
23
0.000000
33
48.497421
0
3DFACE
8
0
10
-19.754013
20
-0.707107
30
52.087051
11
-28.000000
21
0.000000
31
48.497421
12
-31.645243
22
-0.707107
32
45.846050
13
-31.645243
23
-0.707107
33
45.846050
0
3DFACE
8
0
10
-41.698200
20
0.705995
30
36.941380
11
-48.497421
21
0.000000
31
28.000000
12
-39.597980
22
0.000000
32
39.597980
13
-39.597980
23
0.000000
33
39.597980
0
3DFACE
8
0
10
-41.697369
20
-0.707107
30
36.940643
11
-39.597980
21
0.000000
31
39.597980
12
-48.497421
22
0.000000
32
28.000000
13
-48.497421
23
0.000000
33
28.000000
0
3DFACE
8
0
10
-31.645874
20
0.705995
30
45.846962
11
-41.698200
21
0.705995
31
36.941380
12
-39.597980
22
0.000000
32
39.597980
13
-39.597980
23
0.000000
33
39.597980
0
3DFACE
8
0
10
-31.645243
20
-0.707107
30
45.846050
11
-39.597980
21
0.000000
31
39.597980
12
-41.697369
22
-0.707107
32
36.940643
13
-41.697369
23
-0.707107
33
36.940643
0
3DFACE
8
0
10
-49.327175
20
0.705995
30
25.888899
11
-54.091846
21
0.000000
31
14.493867
12
-48.497421
22
0.000000
32
28.000000
13
-48.497421
23
0.000000
33
28.000000
0
3DFACE
8
0
10
-49.326195
20
-0.707107
30
25.888384
11
-48.497421
21
0.000000
31
28.000000
12
-54.091846
22
0.000000
32
14.493867
13
-54.091846
23
0.000000
33
14.493867
0
3DFACE
8
0
10
-41.698200
20
0.705995
30
36.941380
11
-49.327175
21
0.705995
31
25.888899
12
-48.497421
22
0.000000
32
28.000000
13
-48.497421
23
0.000000
33
28.000000
0
3DFACE
8
0
10
-41.697369
20
-0.707107
30
36.940643
11
-48.497421
21
0.000000
31
28.000000
12
-49.326195
22
-0.707107
32
25.888384
13
-49.326195
23
-0.707107
33
25.888384
0
3DFACE
8
0
10
-55.708218
20
0.705995
30
-0.000000
11
-56.000000
21
0.000000
31
0.000000
12
-54.091846
22
0.000000
32
14.493867
13
-54.091846
23
0.000000
33
14.493867
0
3DFACE
8
0
10
-54.088360
20
-0.707107
30
13.331583
11
-54.091846
21
0.000000
31
14.493867
12
-56.000000
22
0.000000
32
0.000000
13
-56.000000
23
0.000000
33
0.000000
0
3DFACE
8
0
10
-54.089436
20
0.705995
30
13.331849
11
-55.708218
21
0.705995
31
-0.000000
12
-54.091846
22
0.000000
32
14.493867
13
-54.091846
23
0.000000
33
14.493867
0
3DFACE
8
0
10
-49.327175
20
0.705995
30
25.888899
11
-54.089436
21
0.705995
31
13.331849
12
-54.091846
22
0.000000
32
14.493867
13
-54.091846
23
0.000000
33
14.493867
0
3DFACE
8
0
10
-49.326195
20
-0.707107
30
25.888384
11
-54.091846
21
0.000000
31
14.493867
12
-54.088360
22
-0.707107
32
13.331583
13
-54.088360
23
-0.707107
33
13.331583
0
3DFACE
8
0
10
-54.089436
20
0.705995
30
-13.331849
11
-56.000000
21
0.000000
31
0.000000
12
-55.708218
22
0.705995
32
-0.000000
13
-55.708218
23
0.705995
33
-0.000000
0
3DFACE
8
0
10
-54.088360
20
-0.707107
30
13.331583
11
-56.000000
21
0.000000
31
0.000000
12
-55.707108
22
-0.707107
32
-0.000000
13
-55.707108
23
-0.707107
33
-0.000000
0
3DFACE
8
0
10
-54.091846
20
0.000000
30
-14.493867
11
-55.707108
21
-0.707107
31
-0.000000
12
-56.000000
22
0.000000
32
0.000000
13
-56.000000
23
0.000000
33
0.000000
0
3DFACE
8
0
10
-54.091846
20
0.000000
30
-14.493867
11
-56.000000
21
0.000000
31
0.000000
12
-54.089436
22
0.705995
32
-13.331849
13
-54.089436
23
0.705995
33
-13.331849
0
3DFACE
8
0
10
-55.000786
20
1.000000
30
-0.000000
11
-55.708218
21
0.705995
31
-0.000000
12
-54.089436
22
0.705995
32
13.331849
13
-54.089436
23
0.705995
33
13.331849
0
3DFACE
8
0
10
-53.402561
20
1.000000
30
-13.162549
11
-55.708218
21
0.705995
31
-0.000000
12
-55.000786
22
1.000000
32
-0.000000
13
-55.000786
23
1.000000
33
-0.000000
0
3DFACE
8
0
10
-53.402561
20
1.000000
30
-13.162549
11
-54.089436
21
0.705995
31
-13.331849
12
-55.708218
22
0.705995
32
-0.000000
13
-55.708218
23
0.705995
33
-0.000000
0
3DFACE
8
0
10
-53.402561
20
1.000000
30
13.162549
11
-54.089436
21
0.705995
31
13.331849
12
-49.327175
22
0.705995
32
25.888899
13
-49.327175
23
0.705995
33
25.888899
0
3DFACE
8
0
10
-53.402561
20
1.000000
30
13.162549
11
-55.000786
21
1.000000
31
-0.000000
12
-54.089436
22
0.705995
32
13.331849
13
-54.089436
23
0.705995
33
13.331849
0
3DFACE
8
0
10
-48.700775
20
1.000000
30
25.560139
11
-49.327175
21
0.705995
31
25.888899
12
-41.698200
22
0.705995
32
36.941380
13
-41.698200
23
0.705995
33
36.941380
0
3DFACE
8
0
10
-48.700775
20
1.000000
30
25.560139
11
-53.402561
21
1.000000
31
13.162549
12
-49.327175
22
0.705995
32
25.888899
13
-49.327175
23
0.705995
33
25.888899
0
3DFACE
8
0
10
-41.168678
20
1.000000
30
36.472267
11
-41.698200
21
0.705995
31
36.941380
12
-31.645874
22
0.705995
32
45.846962
13
-31.645874
23
0.705995
33
45.846962
0
3DFACE
8
0
10
-41.168678
20
1.000000
30
36.472267
11
-48.700775
21
1.000000
31
25.560139
12
-41.698200
22
0.705995
32
36.941380
13
-41.698200
23
0.705995
33
36.941380
0
3DFACE
8
0
10
-31.244007
20
1.000000
30
45.264759
11
-31.645874
21
0.705995
31
45.846962
12
-19.754406
22
0.705995
32
52.088089
13
-19.754406
23
0.705995
33
52.088089
0
3DFACE
8
0
10
-31.244007
20
1.000000
30
45.264759
11
-41.168678
21
1.000000
31
36.472267
12
-31.645874
22
0.705995
32
45.846962
13
-31.645874
23
0.705995
33
45.846962
0
3DFACE
8
0
10
-19.503548
20
1.000000
30
51.426628
11
-19.754406
21
0.705995
31
52.088089
12
-6.714883
22
0.705995
32
55.302040
13
-6.714883
23
0.705995
33
55.302040
0
3DFACE
8
0
10
-19.503548
20
1.000000
30
51.426628
11
-31.244007
21
1.000000
31
45.264759
12
-19.754406
22
0.705995
32
52.088089
13
-19.754406
23
0.705995
33
52.088089
0
3DFACE
8
0
10
-6.629612
20
1.000000
30
54.599770
11
-6.714883
21
0.705995
31
55.302040
12
6.714883
22
0.705995
32
55.302040
13
6.714883
23
0.705995
33
55.302040
0
3DFACE
8
0
10
-6.629612
20
1.000000
30
54.599770
11
-19.503548
21
1.000000
31
51.426628
12
-6.714883
22
0.705995
32
55.302040
13
-6.714883
23
0.705995
33
55.302040
0
3DFACE
8
0
10
6.629612
20
1.000000
30
54.599770
11
6.714883
21
0.705995
31
55.302040
12
19.754406
22
0.705995
32
52.088089
13
19.754406
23
0.705995
33
52.088089
0
3DFACE
8
0
10
6.629612
20
1.000000
30
54.599770
11
-6.629612
21
1.000000
31
54.599770
12
6.714883
22
0.705995
32
55.302040
13
6.714883
23
0.705995
33
55.302040
0
3DFACE
8
0
10
19.503548
20
1.000000
30
51.426628
11
19.754406
21
0.705995
31
52.088089
12
31.645874
22
0.705995
32
45.846962
13
31.645874
23
0.705995
33
45.846962
0
3DFACE
8
0
10
19.503548
20
1.000000
30
51.426628
11
6.629612
21
1.000000
31
54.599770
12
19.754406
22
0.705995
32
52.088089
13
19.754406
23
0.705995
33
52.088089
0
3DFACE
8
0
10
31.244007
20
1.000000
30
45.264759
11
31.645874
21
0.705995
31
45.846962
12
41.698200
22
0.705995
32
36.941380
13
41.698200
23
0.705995
33
36.941380
0
3DFACE
8
0
10
31.244007
20
1.000000
30
45.264759
11
19.503548
21
1.000000
31
51.426628
12
31.645874
22
0.705995
32
45.846962
13
31.645874
23
0.705995
33
45.846962
0
3DFACE
8
0
10
41.168678
20
1.000000
30
36.472267
11
41.698200
21
0.705995
31
36.941380
12
49.327175
22
0.705995
32
25.888899
13
49.327175
23
0.705995
33
25.888899
0
3DFACE
8
0
10
41.168678
20
1.000000
30
36.472267
11
31.244007
21
1.000000
31
45.264759
12
41.698200
22
0.705995
32
36.941380
13
41.698200
23
0.705995
33
36.941380
0
3DFACE
8
0
10
48.700775
20
1.000000
30
25.560139
11
49.327175
21
0.705995
31
25.888899
12
54.089436
22
0.705995
32
13.331849
13
54.089436
23
0.705995
33
13.331849
0
3DFACE
8
0
10
48.700775
20
1.000000
30
25.560139
11
41.168678
21
1.000000
31
36.472267
12
49.327175
22
0.705995
32
25.888899
13
49.327175
23
0.705995
33
25.888899
0
3DFACE
8
0
10
53.402561
20
1.000000
30
13.162549
11
54.089436
21
0.705995
31
13.331849
12
55.708218
22
0.705995
32
0.000000
13
55.708218
23
0.705995
33
0.000000
0
3DFACE
8
0
10
53.402561
20
1.000000
30
13.162549
11
48.700775
21
1.000000
31
25.560139
12
54.089436
22
0.705995
32
13.331849
13
54.089436
23
0.705995
33
13.331849
0
3DFACE
8
0
10
53.402561
20
1.000000
30
13.162549
11
55.708218
21
0.705995
31
0.000000
12
55.000786
22
1.000000
32
0.000000
13
55.000786
23
1.000000
33
0.000000
0
3DFACE
8
0
10
54.089436
20
0.705995
30
-13.331849
11
55.000786
21
1.000000
31
0.000000
12
55.708218
22
0.705995
32
0.000000
13
55.708218
23
0.705995
33
0.000000
0
3DFACE
8
0
10
54.091846
20
0.000000
30
-14.493867
11
54.089436
21
0.705995
31
-13.331849
12
55.708218
22
0.705995
32
0.000000
13
55.708218
23
0.705995
33
0.000000
0
3DFACE
8
0
10
52.715240
20
0.707107
30
12.993140
11
53.402561
21
1.000000
31
13.162549
12
55.000786
22
1.000000
32
0.000000
13
55.000786
23
1.000000
33
0.000000
0
3DFACE
8
0
10
52.715240
20
0.707107
30
12.993140
11
55.000786
21
1.000000
31
0.000000
12
54.292892
22
0.707107
32
0.000000
13
54.292892
23
0.707107
33
0.000000
0
3DFACE
8
0
10
53.402561
20
1.000000
30
-13.162549
11
54.292892
21
0.707107
31
0.000000
12
55.000786
22
1.000000
32
0.000000
13
55.000786
23
1.000000
33
0.000000
0
3DFACE
8
0
10
53.402561
20
1.000000
30
-13.162549
11
55.000786
21
1.000000
31
0.000000
12
54.089436
22
0.705995
32
-13.331849
13
54.089436
23
0.705995
33
-13.331849
0
3DFACE
8
0
10
-54.292892
20
0.707107
30
-0.000000
11
-55.000786
21
1.000000
31
-0.000000
12
-53.402561
22
1.000000
32
13.162549
13
-53.402561
23
1.000000
33
13.162549
0
3DFACE
8
0
10
-52.715240
20
0.707107
30
-12.993140
11
-55.000786
21
1.000000
31
-0.000000
12
-54.292892
22
0.707107
32
-0.000000
13
-54.292892
23
0.707107
33
-0.000000
0
3DFACE
8
0
10
-52.715240
20
0.707107
30
-12.993140
11
-53.402561
21
1.000000
31
-13.162549
12
-55.000786
22
1.000000
32
-0.000000
13
-55.000786
23
1.000000
33
-0.000000
0
3DFACE
8
0
10
-52.715240
20
0.707107
30
12.993140
11
-53.402561
21
1.000000
31
13.162549
12
-48.700775
22
1.000000
32
25.560139
13
-48.700775
23
1.000000
33
25.560139
0
3DFACE
8
0
10
-52.715240
20
0.707107
30
12.993140
11
-54.292892
21
0.707107
31
-0.000000
12
-53.402561
22
1.000000
32
13.162549
13
-53.402561
23
1.000000
33
13.162549
0
3DFACE
8
0
10
-48.073971
20
0.707107
30
25.231165
11
-48.700775
21
1.000000
31
25.560139
12
-41.168678
22
1.000000
32
36.472267
13
-41.168678
23
1.000000
33
36.472267
0
3DFACE
8
0
10
-48.073971
20
0.707107
30
25.231165
11
-52.715240
21
0.707107
31
12.993140
12
-48.700775
22
1.000000
32
25.560139
13
-48.700775
23
1.000000
33
25.560139
0
3DFACE
8
0
10
-40.638813
20
0.707107
30
36.002850
11
-41.168678
21
1.000000
31
36.472267
12
-31.244007
22
1.000000
32
45.264759
13
-31.244007
23
1.000000
33
45.264759
0
3DFACE
8
0
10
-40.638813
20
0.707107
30
36.002850
11
-48.073971
21
0.707107
31
25.231165
12
-41.168678
22
1.000000
32
36.472267
13
-41.168678
23
1.000000
33
36.472267
0
3DFACE
8
0
10
-30.841879
20
0.707107
30
44.682175
11
-31.244007
21
1.000000
31
45.264759
12
-19.503548
22
1.000000
32
51.426628
13
-19.503548
23
1.000000
33
51.426628
0
3DFACE
8
0
10
-30.841879
20
0.707107
30
44.682175
11
-40.638813
21
0.707107
31
36.002850
12
-31.244007
22
1.000000
32
45.264759
13
-31.244007
23
1.000000
33
45.264759
0
3DFACE
8
0
10
-19.252525
20
0.707107
30
50.764736
11
-19.503548
21
1.000000
31
51.426628
12
-6.629612
22
1.000000
32
54.599770
13
-6.629612
23
1.000000
33
54.599770
0
3DFACE
8
0
10
-19.252525
20
0.707107
30
50.764736
11
-30.841879
21
0.707107
31
44.682175
12
-19.503548
22
1.000000
32
51.426628
13
-19.503548
23
1.000000
33
51.426628
0
3DFACE
8
0
10
-6.544285
20
0.707107
30
53.897038
11
-6.629612
21
1.000000
31
54.599770
12
6.629612
22
1.000000
32
54.599770
13
6.629612
23
1.000000
33
54.599770
0
3DFACE
8
0
10
-6.544285
20
0.707107
30
53.897038
11
-19.252525
21
0.707107
31
50.764736
12
-6.629612
22
1.000000
32
54.599770
13
-6.629612
23
1.000000
33
54.599770
0
3DFACE
8
0
10
6.544285
20
0.707107
30
53.897038
11
6.629612
21
1.000000
31
54.599770
12
19.503548
22
1.000000
32
51.426628
13
19.503548
23
1.000000
33
51.426628
0
3DFACE
8
0
10
6.544285
20
0.707107
30
53.897038
11
-6.544285
21
0.707107
31
53.897038
12
6.629612
22
1.000000
32
54.599770
13
6.629612
23
1.000000
33
54.599770
0
3DFACE
8
0
10
19.252525
20
0.707107
30
50.764736
11
19.503548
21
1.000000
31
51.426628
12
31.244007
22
1.000000
32
45.264759
13
31.244007
23
1.000000
33
45.264759
0
3DFACE
8
0
10
19.252525
20
0.707107
30
50.764736
11
6.544285
21
0.707107
31
53.897038
12
19.503548
22
1.000000
32
51.426628
13
19.503548
23
1.000000
33
51.426628
0
3DFACE
8
0
10
30.841879
20
0.707107
30
44.682175
11
31.244007
21
1.000000
31
45.264759
12
41.168678
22
1.000000
32
36.472267
13
41.168678
23
1.000000
33
36.472267
0
3DFACE
8
0
10
30.841879
20
0.707107
30
44.682175
11
19.252525
21
0.707107
31
50.764736
12
31.244007
22
1.000000
32
45.264759
13
31.244007
23
1.000000
33
45.264759
0
3DFACE
8
0
10
40.638813
20
0.707107
30
36.002850
11
41.168678
21
1.000000
31
36.472267
12
48.700775
22
1.000000
32
25.560139
13
48.700775
23
1.000000
33
25.560139
0
3DFACE
8
0
10
40.638813
20
0.707107
30
36.002850
11
30.841879
21
0.707107
31
44.682175
12
41.168678
22
1.000000
32
36.472267
13
41.168678
23
1.000000
33
36.472267
0
3DFACE
8
0
10
48.073971
20
0.707107
30
25.231165
11
48.700775
21
1.000000
31
25.560139
12
53.402561
22
1.000000
32
13.162549
13
53.402561
23
1.000000
33
13.162549
0
3DFACE
8
0
10
48.073971
20
0.707107
30
25.231165
11
40.638813
21
0.707107
31
36.002850
12
48.700775
22
1.000000
32
25.560139
13
48.700775
23
1.000000
33
25.560139
0
3DFACE
8
0
10
52.715240
20
0.707107
30
12.993140
11
48.073971
21
0.707107
31
25.231165
12
53.402561
22
1.000000
32
13.162549
13
53.402561
23
1.000000
33
13.162549
0
3DFACE
8
0
10
52.159996
20
-0.000000
30
13.976229
11
52.715240
21
0.707107
31
12.993140
12
54.292892
22
0.707107
32
0.000000
13
54.292892
23
0.707107
33
0.000000
0
3DFACE
8
0
10
52.159996
20
-0.000000
30
13.976229
11
54.292892
21
0.707107
31
0.000000
12
54.000000
22
-0.000000
32
0.000000
13
54.000000
23
-0.000000
33
0.000000
0
3DFACE
8
0
10
52.715240
20
0.707107
30
-12.993140
11
54.000000
21
-0.000000
31
0.000000
12
54.292892
22
0.707107
32
0.000000
13
54.292892
23
0.707107
33
0.000000
0
3DFACE
8
0
10
52.715240
20
0.707107
30
-12.993140
11
54.292892
21
0.707107
31
0.000000
12
53.402561
22
1.000000
32
-13.162549
13
53.402561
23
1.000000
33
-13.162549
0
3DFACE
8
0
10
-54.000000
20
-0.000000
30
0.000000
11
-54.292892
21
0.707107
31
-0.000000
12
-52.715240
22
0.707107
32
12.993140
13
-52.715240
23
0.707107
33
12.993140
0
3DFACE
8
0
10
-52.159996
20
-0.000000
30
-13.976229
11
-54.292892
21
0.707107
31
-0.000000
12
-54.000000
22
-0.000000
32
0.000000
13
-54.000000
23
-0.000000
33
0.000000
0
3DFACE
8
0
10
-52.159996
20
-0.000000
30
-13.976229
11
-52.715240
21
0.707107
31
-12.993140
12
-54.292892
22
0.707107
32
-0.000000
13
-54.292892
23
0.707107
33
-0.000000
0
3DFACE
8
0
10
-52.159996
20
-0.000000
30
13.976229
11
-52.715240
21
0.707107
31
12.993140
12
-48.073971
22
0.707107
32
25.231165
13
-48.073971
23
0.707107
33
25.231165
0
3DFACE
8
0
10
-52.159996
20
-0.000000
30
13.976229
11
-54.000000
21
-0.000000
31
0.000000
12
-52.715240
22
0.707107
32
12.993140
13
-52.715240
23
0.707107
33
12.993140
0
3DFACE
8
0
10
-46.765373
20
-0.000000
30
27.000000
11
-48.073971
21
0.707107
31
25.231165
12
-40.638813
22
0.707107
32
36.002850
13
-40.638813
23
0.707107
33
36.002850
0
3DFACE
8
0
10
-46.765373
20
-0.000000
30
27.000000
11
-52.159996
21
-0.000000
31
13.976229
12
-48.073971
22
0.707107
32
25.231165
13
-48.073971
23
0.707107
33
25.231165
0
3DFACE
8
0
10
-38.183765
20
-0.000000
30
38.183765
11
-40.638813
21
0.707107
31
36.002850
12
-30.841879
22
0.707107
32
44.682175
13
-30.841879
23
0.707107
33
44.682175
0
3DFACE
8
0
10
-38.183765
20
-0.000000
30
38.183765
11
-46.765373
21
-0.000000
31
27.000000
12
-40.638813
22
0.707107
32
36.002850
13
-40.638813
23
0.707107
33
36.002850
0
3DFACE
8
0
10
-27.000000
20
-0.000000
30
46.765373
11
-30.841879
21
0.707107
31
44.682175
12
-19.252525
22
0.707107
32
50.764736
13
-19.252525
23
0.707107
33
50.764736
0
3DFACE
8
0
10
-27.000000
20
-0.000000
30
46.765373
11
-38.183765
21
-0.000000
31
38.183765
12
-30.841879
22
0.707107
32
44.682175
13
-30.841879
23
0.707107
33
44.682175
0
3DFACE
8
0
10
-13.976229
20
-0.000000
30
52.159996
11
-19.252525
21
0.707107
31
50.764736
12
-6.544285
22
0.707107
32
53.897038
13
-6.544285
23
0.707107
33
53.897038
0
3DFACE
8
0
10
-13.976229
20
-0.000000
30
52.159996
11
-27.000000
21
-0.000000
31
46.765373
12
-19.252525
22
0.707107
32
50.764736
13
-19.252525
23
0.707107
33
50.764736
0
3DFACE
8
0
10
-0.000000
20
-0.000000
30
54.000000
11
-6.544285
21
0.707107
31
53.897038
12
6.544285
22
0.707107
32
53.897038
13
6.544285
23
0.707107
33
53.897038
0
3DFACE
8
0
10
-0.000000
20
-0.000000
30
54.000000
11
-13.976229
21
-0.000000
31
52.159996
12
-6.544285
22
0.707107
32
53.897038
13
-6.544285
23
0.707107
33
53.897038
0
3DFACE
8
0
10
13.976229
20
-0.000000
30
52.159996
11
6.544285
21
0.707107
31
53.897038
12
19.252525
22
0.707107
32
50.764736
13
19.252525
23
0.707107
33
50.764736
0
3DFACE
8
0
10
13.976229
20
-0.000000
30
52.159996
11
-0.000000
21
-0.000000
31
54.000000
12
6.544285
22
0.707107
32
53.897038
13
6.544285
23
0.707107
33
53.897038
0
3DFACE
8
0
10
27.000000
20
-0.000000
30
46.765373
11
19.252525
21
0.707107
31
50.764736
12
30.841879
22
0.707107
32
44.682175
13
30.841879
23
0.707107
33
44.682175
0
3DFACE
8
0
10
27.000000
20
-0.000000
30
46.765373
11
13.976229
21
-0.000000
31
52.159996
12
19.252525
22
0.707107
32
50.764736
13
19.252525
23
0.707107
33
50.764736
0
3DFACE
8
0
10
38.183765
20
-0.000000
30
38.183765
11
30.841879
21
0.707107
31
44.682175
12
40.638813
22
0.707107
32
36.002850
13
40.638813
23
0.707107
33
36.002850
0
3DFACE
8
0
10
38.183765
20
-0.000000
30
38.183765
11
27.000000
21
-0.000000
31
46.765373
12
30.841879
22
0.707107
32
44.682175
13
30.841879
23
0.707107
33
44.682175
0
3DFACE
8
0
10
46.765373
20
-0.000000
30
27.000000
11
40.638813
21
0.707107
31
36.002850
12
48.073971
22
0.707107
32
25.231165
13
48.073971
23
0.707107
33
25.231165
0
3DFACE
8
0
10
46.765373
20
-0.000000
30
27.000000
11
38.183765
21
-0.000000
31
38.183765
12
40.638813
22
0.707107
32
36.002850
13
40.638813
23
0.707107
33
36.002850
0
3DFACE
8
0
10
52.159996
20
-0.000000
30
13.976229
11
48.073971
21
0.707107
31
25.231165
12
52.715240
22
0.707107
32
12.993140
13
52.715240
23
0.707107
33
12.993140
0
3DFACE
8
0
10
52.159996
20
-0.000000
30
13.976229
11
46.765373
21
-0.000000
31
27.000000
12
48.073971
22
0.707107
32
25.231165
13
48.073971
23
0.707107
33
25.231165
0
3DFACE
8
0
10
52.714161
20
-0.705995
30
12.992874
11
52.159996
21
-0.000000
31
13.976229
12
54.000000
22
-0.000000
32
0.000000
13
54.000000
23
-0.000000
33
0.000000
0
3DFACE
8
0
10
54.291782
20
-0.705995
30
0.000000
11
52.714161
21
-0.705995
31
12.992874
12
54.000000
22
-0.000000
32
0.000000
13
54.000000
23
-0.000000
33
0.000000
0
3DFACE
8
0
10
52.159996
20
-0.000000
30
-13.976229
11
54.291782
21
-0.705995
31
0.000000
12
54.000000
22
-0.000000
32
0.000000
13
54.000000
23
-0.000000
33
0.000000
0
3DFACE
8
0
10
52.159996
20
-0.000000
30
-13.976229
11
54.000000
21
-0.000000
31
0.000000
12
52.715240
22
0.707107
32
-12.993140
13
52.715240
23
0.707107
33
-12.993140
0
3DFACE
8
0
10
-54.291782
20
-0.705995
30
-0.000000
11
-54.000000
21
-0.000000
31
0.000000
12
-52.159996
22
-0.000000
32
13.976229
13
-52.159996
23
-0.000000
33
13.976229
0
3DFACE
8
0
10
-52.714161
20
-0.705995
30
-12.992874
11
-54.000000
21
-0.000000
31
0.000000
12
-54.291782
22
-0.705995
32
-0.000000
13
-54.291782
23
-0.705995
33
-0.000000
0
3DFACE
8
0
10
-52.714161
20
-0.705995
30
-12.992874
11
-52.159996
21
-0.000000
31
-13.976229
12
-54.000000
22
-0.000000
32
0.000000
13
-54.000000
23
-0.000000
33
0.000000
0
3DFACE
8
0
10
-48.072987
20
-0.705995
30
25.230650
11
-52.159996
21
-0.000000
31
13.976229
12
-46.765373
22
-0.000000
32
27.000000
13
-46.765373
23
-0.000000
33
27.000000
0
3DFACE
8
0
10
-52.714161
20
-0.705995
30
12.992874
11
-54.291782
21
-0.705995
31
-0.000000
12
-52.159996
22
-0.000000
32
13.976229
13
-52.159996
23
-0.000000
33
13.976229
0
3DFACE
8
0
10
-48.072987
20
-0.705995
30
25.230650
11
-52.714161
21
-0.705995
31
12.992874
12
-52.159996
22
-0.000000
32
13.976229
13
-52.159996
23
-0.000000
33
13.976229
0
3DFACE
8
0
10
-40.637985
20
-0.705995
30
36.002113
11
-46.765373
21
-0.000000
31
27.000000
12
-38.183765
22
-0.000000
32
38.183765
13
-38.183765
23
-0.000000
33
38.183765
0
3DFACE
8
0
10
-40.637985
20
-0.705995
30
36.002113
11
-48.072987
21
-0.705995
31
25.230650
12
-46.765373
22
-0.000000
32
27.000000
13
-46.765373
23
-0.000000
33
27.000000
0
3DFACE
8
0
10
-30.841248
20
-0.705995
30
44.681263
11
-38.183765
21
-0.000000
31
38.183765
12
-27.000000
22
-0.000000
32
46.765373
13
-27.000000
23
-0.000000
33
46.765373
0
3DFACE
8
0
10
-30.841248
20
-0.705995
30
44.681263
11
-40.637985
21
-0.705995
31
36.002113
12
-38.183765
22
-0.000000
32
38.183765
13
-38.183765
23
-0.000000
33
38.183765
0
3DFACE
8
0
10
-19.252132
20
-0.705995
30
50.763699
11
-27.000000
21
-0.000000
31
46.765373
12
-13.976229
22
-0.000000
32
52.159996
13
-13.976229
23
-0.000000
33
52.159996
0
3DFACE
8
0
10
-19.252132
20
-0.705995
30
50.763699
11
-30.841248
21
-0.705995
31
44.681263
12
-27.000000
22
-0.000000
32
46.765373
13
-27.000000
23
-0.000000
33
46.765373
0
3DFACE
8
0
10
-6.544151
20
-0.705995
30
53.895935
11
-13.976229
21
-0.000000
31
52.159996
12
-0.000000
22
-0.000000
32
54.000000
13
-0.000000
23
-0.000000
33
54.000000
0
3DFACE
8
0
10
-6.544151
20
-0.705995
30
53.895935
11
-19.252132
21
-0.705995
31
50.763699
12
-13.976229
22
-0.000000
32
52.159996
13
-13.976229
23
-0.000000
33
52.159996
0
3DFACE
8
0
10
6.544151
20
-0.705995
30
53.895935
11
-0.000000
21
-0.000000
31
54.000000
12
13.976229
22
-0.000000
32
52.159996
13
13.976229
23
-0.000000
33
52.159996
0
3DFACE
8
0
10
6.544151
20
-0.705995
30
53.895935
11
-6.544151
21
-0.705995
31
53.895935
12
-0.000000
22
-0.000000
32
54.000000
13
-0.000000
23
-0.000000
33
54.000000
0
3DFACE
8
0
10
19.252132
20
-0.705995
30
50.763699
11
13.976229
21
-0.000000
31
52.159996
12
27.000000
22
-0.000000
32
46.765373
13
27.000000
23
-0.000000
33
46.765373
0
3DFACE
8
0
10
19.252132
20
-0.705995
30
50.763699
11
6.544151
21
-0.705995
31
53.895935
12
13.976229
22
-0.000000
32
52.159996
13
13.976229
23
-0.000000
33
52.159996
0
3DFACE
8
0
10
30.841248
20
-0.705995
30
44.681263
11
27.000000
21
-0.000000
31
46.765373
12
38.183765
22
-0.000000
32
38.183765
13
38.183765
23
-0.000000
33
38.183765
0
3DFACE
8
0
10
30.841248
20
-0.705995
30
44.681263
11
19.252132
21
-0.705995
31
50.763699
12
27.000000
22
-0.000000
32
46.765373
13
27.000000
23
-0.000000
33
46.765373
0
3DFACE
8
0
10
40.637985
20
-0.705995
30
36.002113
11
38.183765
21
-0.000000
31
38.183765
12
46.765373
22
-0.000000
32
27.000000
13
46.765373
23
-0.000000
33
27.000000
0
3DFACE
8
0
10
40.637985
20
-0.705995
30
36.002113
11
30.841248
21
-0.705995
31
44.681263
12
38.183765
22
-0.000000
32
38.183765
13
38.183765
23
-0.000000
33
38.183765
0
3DFACE
8
0
10
48.072987
20
-0.705995
30
25.230650
11
46.765373
21
-0.000000
31
27.000000
12
52.159996
22
-0.000000
32
13.976229
13
52.159996
23
-0.000000
33
13.976229
0
3DFACE
8
0
10
48.072987
20
-0.705995
30
25.230650
11
40.637985
21
-0.705995
31
36.002113
12
46.765373
22
-0.000000
32
27.000000
13
46.765373
23
-0.000000
33
27.000000
0
3DFACE
8
0
10
52.714161
20
-0.705995
30
12.992874
11
48.072987
21
-0.705995
31
25.230650
12
52.159996
22
-0.000000
32
13.976229
13
52.159996
23
-0.000000
33
13.976229
0
3DFACE
8
0
10
-54.999214
20
-1.000000
30
-0.000000
11
-54.291782
21
-0.705995
31
-0.000000
12
-52.714161
22
-0.705995
32
12.992874
13
-52.714161
23
-0.705995
33
12.992874
0
3DFACE
8
0
10
-53.401039
20
-1.000000
30
-13.162173
11
-54.291782
21
-0.705995
31
-0.000000
12
-54.999214
22
-1.000000
32
-0.000000
13
-54.999214
23
-1.000000
33
-0.000000
0
3DFACE
8
0
10
-53.401039
20
-1.000000
30
-13.162173
11
-52.714161
21
-0.705995
31
-12.992874
12
-54.291782
22
-0.705995
32
-0.000000
13
-54.291782
23
-0.705995
33
-0.000000
0
3DFACE
8
0
10
-53.401039
20
-1.000000
30
13.162173
11
-52.714161
21
-0.705995
31
12.992874
12
-48.072987
22
-0.705995
32
25.230650
13
-48.072987
23
-0.705995
33
25.230650
0
3DFACE
8
0
10
-53.401039
20
-1.000000
30
13.162173
11
-54.999214
21
-1.000000
31
-0.000000
12
-52.714161
22
-0.705995
32
12.992874
13
-52.714161
23
-0.705995
33
12.992874
0
3DFACE
8
0
10
-48.699387
20
-1.000000
30
25.559410
11
-48.072987
21
-0.705995
31
25.230650
12
-40.637985
22
-0.705995
32
36.002113
13
-40.637985
23
-0.705995
33
36.002113
0
3DFACE
8
0
10
-48.699387
20
-1.000000
30
25.559410
11
-53.401039
21
-1.000000
31
13.162173
12
-48.072987
22
-0.705995
32
25.230650
13
-48.072987
23
-0.705995
33
25.230650
0
3DFACE
8
0
10
-41.167503
20
-1.000000
30
36.471226
11
-40.637985
21
-0.705995
31
36.002113
12
-30.841248
22
-0.705995
32
44.681263
13
-30.841248
23
-0.705995
33
44.681263
0
3DFACE
8
0
10
-41.167503
20
-1.000000
30
36.471226
11
-48.699387
21
-1.000000
31
25.559410
12
-40.637985
22
-0.705995
32
36.002113
13
-40.637985
23
-0.705995
33
36.002113
0
3DFACE
8
0
10
-31.243114
20
-1.000000
30
45.263466
11
-30.841248
21
-0.705995
31
44.681263
12
-19.252132
22
-0.705995
32
50.763699
13
-19.252132
23
-0.705995
33
50.763699
0
3DFACE
8
0
10
-31.243114
20
-1.000000
30
45.263466
11
-41.167503
21
-1.000000
31
36.471226
12
-30.841248
22
-0.705995
32
44.681263
13
-30.841248
23
-0.705995
33
44.681263
0
3DFACE
8
0
10
-19.502991
20
-1.000000
30
51.425159
11
-19.252132
21
-0.705995
31
50.763699
12
-6.544151
22
-0.705995
32
53.895935
13
-6.544151
23
-0.705995
33
53.895935
0
3DFACE
8
0
10
-19.502991
20
-1.000000
30
51.425159
11
-31.243114
21
-1.000000
31
45.263466
12
-19.252132
22
-0.705995
32
50.763699
13
-19.252132
23
-0.705995
33
50.763699
0
3DFACE
8
0
10
-6.629423
20
-1.000000
30
54.598209
11
-6.544151
21
-0.705995
31
53.895935
12
6.544151
22
-0.705995
32
53.895935
13
6.544151
23
-0.705995
33
53.895935
0
3DFACE
8
0
10
-6.629423
20
-1.000000
30
54.598209
11
-19.502991
21
-1.000000
31
51.425159
12
-6.544151
22
-0.705995
32
53.895935
13
-6.544151
23
-0.705995
33
53.895935
0
3DFACE
8
0
10
6.629423
20
-1.000000
30
54.598209
11
6.544151
21
-0.705995
31
53.895935
12
19.252132
22
-0.705995
32
50.763699
13
19.252132
23
-0.705995
33
50.763699
0
3DFACE
8
0
10
6.629423
20
-1.000000
30
54.598209
11
-6.629423
21
-1.000000
31
54.598209
12
6.544151
22
-0.705995
32
53.895935
13
6.544151
23
-0.705995
33
53.895935
0
3DFACE
8
0
10
19.502991
20
-1.000000
30
51.425159
11
19.252132
21
-0.705995
31
50.763699
12
30.841248
22
-0.705995
32
44.681263
13
30.841248
23
-0.705995
33
44.681263
0
3DFACE
8
0
10
19.502991
20
-1.000000
30
51.425159
11
6.629423
21
-1.000000
31
54.598209
12
19.252132
22
-0.705995
32
50.763699
13
19.252132
23
-0.705995
33
50.763699
0
3DFACE
8
0
10
31.243114
20
-1.000000
30
45.263466
11
30.841248
21
-0.705995
31
44.681263
12
40.637985
22
-0.705995
32
36.002113
13
40.637985
23
-0.705995
33
36.002113
0
3DFACE
8
0
10
31.243114
20
-1.000000
30
45.263466
11
19.502991
21
-1.000000
31
51.425159
12
30.841248
22
-0.705995
32
44.681263
13
30.841248
23
-0.705995
33
44.681263
0
3DFACE
8
0
10
41.167503
20
-1.000000
30
36.471226
11
40.637985
21
-0.705995
31
36.002113
12
48.072987
22
-0.705995
32
25.230650
13
48.072987
23
-0.705995
33
25.230650
0
3DFACE
8
0
10
41.167503
20
-1.000000
30
36.471226
11
31.243114
21
-1.000000
31
45.263466
12
40.637985
22
-0.705995
32
36.002113
13
40.637985
23
-0.705995
33
36.002113
0
3DFACE
8
0
10
48.699387
20
-1.000000
30
25.559410
11
48.072987
21
-0.705995
31
25.230650
12
52.714161
22
-0.705995
32
12.992874
13
52.714161
23
-0.705995
33
12.992874
0
3DFACE
8
0
10
48.699387
20
-1.000000
30
25.559410
11
41.167503
21
-1.000000
31
36.471226
12
48.072987
22
-0.705995
32
25.230650
13
48.072987
23
-0.705995
33
25.230650
0
3DFACE
8
0
10
53.401039
20
-1.000000
30
13.162173
11
52.714161
21
-0.705995
31
12.992874
12
54.291782
22
-0.705995
32
0.000000
13
54.291782
23
-0.705995
33
0.000000
0
3DFACE
8
0
10
53.401039
20
-1.000000
30
13.162173
11
48.699387
21
-1.000000
31
25.559410
12
52.714161
22
-0.705995
32
12.992874
13
52.714161
23
-0.705995
33
12.992874
0
3DFACE
8
0
10
53.401039
20
-1.000000
30
13.162173
11
54.291782
21
-0.705995
31
0.000000
12
54.999214
22
-1.000000
32
0.000000
13
54.999214
23
-1.000000
33
0.000000
0
3DFACE
8
0
10
52.714161
20
-0.705995
30
-12.992874
11
54.999214
21
-1.000000
31
0.000000
12
54.291782
22
-0.705995
32
0.000000
13
54.291782
23
-0.705995
33
0.000000
0
3DFACE
8
0
10
52.714161
20
-0.705995
30
-12.992874
11
54.291782
21
-0.705995
31
0.000000
12
52.159996
22
-0.000000
32
-13.976229
13
52.159996
23
-0.000000
33
-13.976229
0
3DFACE
8
0
10
54.088360
20
-0.707107
30
13.331583
11
53.401039
21
-1.000000
31
13.162173
12
54.999214
22
-1.000000
32
0.000000
13
54.999214
23
-1.000000
33
0.000000
0
3DFACE
8
0
10
54.088360
20
-0.707107
30
13.331583
11
54.999214
21
-1.000000
31
0.000000
12
55.707108
22
-0.707107
32
0.000000
13
55.707108
23
-0.707107
33
0.000000
0
3DFACE
8
0
10
53.401039
20
-1.000000
30
-13.162173
11
55.707108
21
-0.707107
31
0.000000
12
54.999214
22
-1.000000
32
0.000000
13
54.999214
23
-1.000000
33
0.000000
0
3DFACE
8
0
10
53.401039
20
-1.000000
30
-13.162173
11
54.999214
21
-1.000000
31
0.000000
12
52.714161
22
-0.705995
32
-12.992874
13
52.714161
23
-0.705995
33
-12.992874
0
3DFACE
8
0
10
-55.707108
20
-0.707107
30
-0.000000
11
-54.999214
21
-1.000000
31
-0.000000
12
-53.401039
22
-1.000000
32
13.162173
13
-53.401039
23
-1.000000
33
13.162173
0
3DFACE
8
0
10
-54.088360
20
-0.707107
30
-13.331583
11
-54.999214
21
-1.000000
31
-0.000000
12
-55.707108
22
-0.707107
32
-0.000000
13
-55.707108
23
-0.707107
33
-0.000000
0
3DFACE
8
0
10
-54.088360
20
-0.707107
30
-13.331583
11
-53.401039
21
-1.000000
31
-13.162173
12
-54.999214
22
-1.000000
32
-0.000000
13
-54.999214
23
-1.000000
33
-0.000000
0
3DFACE
8
0
10
-54.088360
20
-0.707107
30
13.331583
11
-53.401039
21
-1.000000
31
13.162173
12
-48.699387
22
-1.000000
32
25.559410
13
-48.699387
23
-1.000000
33
25.559410
0
3DFACE
8
0
10
-54.088360
20
-0.707107
30
13.331583
11
-55.707108
21
-0.707107
31
-0.000000
12
-53.401039
22
-1.000000
32
13.162173
13
-53.401039
23
-1.000000
33
13.162173
0
3DFACE
8
0
10
-49.326195
20
-0.707107
30
25.888384
11
-48.699387
21
-1.000000
31
25.559410
12
-41.167503
22
-1.000000
32
36.471226
13
-41.167503
23
-1.000000
33
36.471226
0
3DFACE
8
0
10
-49.326195
20
-0.707107
30
25.888384
11
-54.088360
21
-0.707107
31
13.331583
12
-48.699387
22
-1.000000
32
25.559410
13
-48.699387
23
-1.000000
33
25.559410
0
3DFACE
8
0
10
-41.697369
20
-0.707107
30
36.940643
11
-41.167503
21
-1.000000
31
36.471226
12
-31.243114
22
-1.000000
32
45.263466
13
-31.243114
23
-1.000000
33
45.263466
0
3DFACE
8
0
10
-41.697369
20
-0.707107
30
36.940643
11
-49.326195
21
-0.707107
31
25.888384
12
-41.167503
22
-1.000000
32
36.471226
13
-41.167503
23
-1.000000
33
36.471226
0
3DFACE
8
0
10
-31.645243
20
-0.707107
30
45.846050
11
-31.243114
21
-1.000000
31
45.263466
12
-19.502991
22
-1.000000
32
51.425159
13
-19.502991
23
-1.000000
33
51.425159
0
3DFACE
8
0
10
-31.645243
20
-0.707107
30
45.846050
11
-41.697369
21
-0.707107
31
36.940643
12
-31.243114
22
-1.000000
32
45.263466
13
-31.243114
23
-1.000000
33
45.263466
0
3DFACE
8
0
10
-19.754013
20
-0.707107
30
52.087051
11
-19.502991
21
-1.000000
31
51.425159
12
-6.629423
22
-1.000000
32
54.598209
13
-6.629423
23
-1.000000
33
54.598209
0
3DFACE
8
0
10
-19.754013
20
-0.707107
30
52.087051
11
-31.645243
21
-0.707107
31
45.846050
12
-19.502991
22
-1.000000
32
51.425159
13
-19.502991
23
-1.000000
33
51.425159
0
3DFACE
8
0
10
-6.714750
20
-0.707107
30
55.300938
11
-6.629423
21
-1.000000
31
54.598209
12
6.629423
22
-1.000000
32
54.598209
13
6.629423
23
-1.000000
33
54.598209
0
3DFACE
8
0
10
-6.714750
20
-0.707107
30
55.300938
11
-19.754013
21
-0.707107
31
52.087051
12
-6.629423
22
-1.000000
32
54.598209
13
-6.629423
23
-1.000000
33
54.598209
0
3DFACE
8
0
10
6.714750
20
-0.707107
30
55.300938
11
6.629423
21
-1.000000
31
54.598209
12
19.502991
22
-1.000000
32
51.425159
13
19.502991
23
-1.000000
33
51.425159
0
3DFACE
8
0
10
6.714750
20
-0.707107
30
55.300938
11
-6.714750
21
-0.707107
31
55.300938
12
6.629423
22
-1.000000
32
54.598209
13
6.629423
23
-1.000000
33
54.598209
0
3DFACE
8
0
10
19.754013
20
-0.707107
30
52.087051
11
19.502991
21
-1.000000
31
51.425159
12
31.243114
22
-1.000000
32
45.263466
13
31.243114
23
-1.000000
33
45.263466
0
3DFACE
8
0
10
19.754013
20
-0.707107
30
52.087051
11
6.714750
21
-0.707107
31
55.300938
12
19.502991
22
-1.000000
32
51.425159
13
19.502991
23
-1.000000
33
51.425159
0
3DFACE
8
0
10
31.645243
20
-0.707107
30
45.846050
11
31.243114
21
-1.000000
31
45.263466
12
41.167503
22
-1.000000
32
36.471226
13
41.167503
23
-1.000000
33
36.471226
0
3DFACE
8
0
10
31.645243
20
-0.707107
30
45.846050
11
19.754013
21
-0.707107
31
52.087051
12
31.243114
22
-1.000000
32
45.263466
13
31.243114
23
-1.000000
33
45.263466
0
3DFACE
8
0
10
41.697369
20
-0.707107
30
36.940643
11
41.167503
21
-1.000000
31
36.471226
12
48.699387
22
-1.000000
32
25.559410
13
48.699387
23
-1.000000
33
25.559410
0
3DFACE
8
0
10
41.697369
20
-0.707107
30
36.940643
11
31.645243
21
-0.707107
31
45.846050
12
41.167503
22
-1.000000
32
36.471226
13
41.167503
23
-1.000000
33
36.471226
0
3DFACE
8
0
10
49.326195
20
-0.707107
30
25.888384
11
48.699387
21
-1.000000
31
25.559410
12
53.401039
22
-1.000000
32
13.162173
13
53.401039
23
-1.000000
33
13.162173
0
3DFACE
8
0
10
49.326195
20
-0.707107
30
25.888384
11
41.697369
21
-0.707107
31
36.940643
12
48.699387
22
-1.000000
32
25.559410
13
48.699387
23
-1.000000
33
25.559410
0
3DFACE
8
0
10
54.088360
20
-0.707107
30
13.331583
11
49.326195
21
-0.707107
31
25.888384
12
53.401039
22
-1.000000
32
13.162173
13
53.401039
23
-1.000000
33
13.162173
0
3DFACE
8
0
10
54.088360
20
-0.707107
30
-13.331583
11
55.707108
21
-0.707107
31
0.000000
12
53.401039
22
-1.000000
32
-13.162173
13
53.401039
23
-1.000000
33
-13.162173
0
3DFACE
8
0
10
-54.088360
20
-0.707107
30
-13.331583
11
-55.707108
21
-0.707107
31
-0.000000
12
-54.091846
22
0.000000
32
-14.493867
13
-54.091846
23
0.000000
33
-14.493867
0
3DFACE
8
0
10
54.091846
20
0.000000
30
-14.493867
11
49.327175
21
0.705995
31
-25.888899
12
54.089436
22
0.705995
32
-13.331849
13
54.089436
23
0.705995
33
-13.331849
0
3DFACE
8
0
10
53.402561
20
1.000000
30
-13.162549
11
54.089436
21
0.705995
31
-13.331849
12
49.327175
22
0.705995
32
-25.888899
13
49.327175
23
0.705995
33
-25.888899
0
3DFACE
8
0
10
48.497421
20
0.000000
30
-28.000000
11
41.698200
21
0.705995
31
-36.941380
12
49.327175
22
0.705995
32
-25.888899
13
49.327175
23
0.705995
33
-25.888899
0
3DFACE
8
0
10
48.700775
20
1.000000
30
-25.560139
11
49.327175
21
0.705995
31
-25.888899
12
41.698200
22
0.705995
32
-36.941380
13
41.698200
23
0.705995
33
-36.941380
0
3DFACE
8
0
10
54.091846
20
0.000000
30
-14.493867
11
48.497421
21
0.000000
31
-28.000000
12
49.327175
22
0.705995
32
-25.888899
13
49.327175
23
0.705995
33
-25.888899
0
3DFACE
8
0
10
48.700775
20
1.000000
30
-25.560139
11
53.402561
21
1.000000
31
-13.162549
12
49.327175
22
0.705995
32
-25.888899
13
49.327175
23
0.705995
33
-25.888899
0
3DFACE
8
0
10
39.597980
20
0.000000
30
-39.597980
11
31.645874
21
0.705995
31
-45.846962
12
41.698200
22
0.705995
32
-36.941380
13
41.698200
23
0.705995
33
-36.941380
0
3DFACE
8
0
10
41.168678
20
1.000000
30
-36.472267
11
41.698200
21
0.705995
31
-36.941380
12
31.645874
22
0.705995
32
-45.846962
13
31.645874
23
0.705995
33
-45.846962
0
3DFACE
8
0
10
48.497421
20
0.000000
30
-28.000000
11
39.597980
21
0.000000
31
-39.597980
12
41.698200
22
0.705995
32
-36.941380
13
41.698200
23
0.705995
33
-36.941380
0
3DFACE
8
0
10
41.168678
20
1.000000
30
-36.472267
11
48.700775
21
1.000000
31
-25.560139
12
41.698200
22
0.705995
32
-36.941380
13
41.698200
23
0.705995
33
-36.941380
0
3DFACE
8
0
10
28.000000
20
0.000000
30
-48.497421
11
19.754406
21
0.705995
31
-52.088089
12
31.645874
22
0.705995
32
-45.846962
13
31.645874
23
0.705995
33
-45.846962
0
3DFACE
8
0
10
31.244007
20
1.000000
30
-45.264759
11
31.645874
21
0.705995
31
-45.846962
12
19.754406
22
0.705995
32
-52.088089
13
19.754406
23
0.705995
33
-52.088089
0
3DFACE
8
0
10
39.597980
20
0.000000
30
-39.597980
11
28.000000
21
0.000000
31
-48.497421
12
31.645874
22
0.705995
32
-45.846962
13
31.645874
23
0.705995
33
-45.846962
0
3DFACE
8
0
10
31.244007
20
1.000000
30
-45.264759
11
41.168678
21
1.000000
31
-36.472267
12
31.645874
22
0.705995
32
-45.846962
13
31.645874
23
0.705995
33
-45.846962
0
3DFACE
8
0
10
14.493867
20
0.000000
30
-54.091846
11
6.714883
21
0.705995
31
-55.302040
12
19.754406
22
0.705995
32
-52.088089
13
19.754406
23
0.705995
33
-52.088089
0
3DFACE
8
0
10
19.503548
20
1.000000
30
-51.426628
11
19.754406
21
0.705995
31
-52.088089
12
6.714883
22
0.705995
32
-55.302040
13
6.714883
23
0.705995
33
-55.302040
0
3DFACE
8
0
10
28.000000
20
0.000000
30
-48.497421
11
14.493867
21
0.000000
31
-54.091846
12
19.754406
22
0.705995
32
-52.088089
13
19.754406
23
0.705995
33
-52.088089
0
3DFACE
8
0
10
19.503548
20
1.000000
30
-51.426628
11
31.244007
21
1.000000
31
-45.264759
12
19.754406
22
0.705995
32
-52.088089
13
19.754406
23
0.705995
33
-52.088089
0
3DFACE
8
0
10
0.000000
20
0.000000
30
-56.000000
11
-6.714883
21
0.705995
31
-55.302040
12
6.714883
22
0.705995
32
-55.302040
13
6.714883
23
0.705995
33
-55.302040
0
3DFACE
8
0
10
6.629612
20
1.000000
30
-54.599770
11
6.714883
21
0.705995
31
-55.302040
12
-6.714883
22
0.705995
32
-55.302040
13
-6.714883
23
0.705995
33
-55.302040
0
3DFACE
8
0
10
14.493867
20
0.000000
30
-54.091846
11
0.000000
21
0.000000
31
-56.000000
12
6.714883
22
0.705995
32
-55.302040
13
6.714883
23
0.705995
33
-55.302040
0
3DFACE
8
0
10
6.629612
20
1.000000
30
-54.599770
11
19.503548
21
1.000000
31
-51.426628
12
6.714883
22
0.705995
32
-55.302040
13
6.714883
23
0.705995
33
-55.302040
0
3DFACE
8
0
10
-14.493867
20
0.000000
30
-54.091846
11
-19.754406
21
0.705995
31
-52.088089
12
-6.714883
22
0.705995
32
-55.302040
13
-6.714883
23
0.705995
33
-55.302040
0
3DFACE
8
0
10
-6.629612
20
1.000000
30
-54.599770
11
-6.714883
21
0.705995
31
-55.302040
12
-19.754406
22
0.705995
32
-52.088089
13
-19.754406
23
0.705995
33
-52.088089
0
3DFACE
8
0
10
0.000000
20
0.000000
30
-56.000000
11
-14.493867
21
0.000000
31
-54.091846
12
-6.714883
22
0.705995
32
-55.302040
13
-6.714883
23
0.705995
33
-55.302040
0
3DFACE
8
0
10
-6.629612
20
1.000000
30
-54.599770
11
6.629612
21
1.000000
31
-54.599770
12
-6.714883
22
0.705995
32
-55.302040
13
-6.714883
23
0.705995
33
-55.302040
0
3DFACE
8
0
10
-28.000000
20
0.000000
30
-48.497421
11
-31.645874
21
0.705995
31
-45.846962
12
-19.754406
22
0.705995
32
-52.088089
13
-19.754406
23
0.705995
33
-52.088089
0
3DFACE
8
0
10
-19.503548
20
1.000000
30
-51.426628
11
-19.754406
21
0.705995
31
-52.088089
12
-31.645874
22
0.705995
32
-45.846962
13
-31.645874
23
0.705995
33
-45.846962
0
3DFACE
8
0
10
-14.493867
20
0.000000
30
-54.091846
11
-28.000000
21
0.000000
31
-48.497421
12
-19.754406
22
0.705995
32
-52.088089
13
-19.754406
23
0.705995
33
-52.088089
0
3DFACE
8
0
10
-19.503548
20
1.000000
30
-51.426628
11
-6.629612
21
1.000000
31
-54.599770
12
-19.754406
22
0.705995
32
-52.088089
13
-19.754406
23
0.705995
33
-52.088089
0
3DFACE
8
0
10
-39.597980
20
0.000000
30
-39.597980
11
-41.698200
21
0.705995
31
-36.941380
12
-31.645874
22
0.705995
32
-45.846962
13
-31.645874
23
0.705995
33
-45.846962
0
3DFACE
8
0
10
-31.244007
20
1.000000
30
-45.264759
11
-31.645874
21
0.705995
31
-45.846962
12
-41.698200
22
0.705995
32
-36.941380
13
-41.698200
23
0.705995
33
-36.941380
0
3DFACE
8
0
10
-28.000000
20
0.000000
30
-48.497421
11
-39.597980
21
0.000000
31
-39.597980
12
-31.645874
22
0.705995
32
-45.846962
13
-31.645874
23
0.705995
33
-45.846962
0
3DFACE
8
0
10
-31.244007
20
1.000000
30
-45.264759
11
-19.503548
21
1.000000
31
-51.426628
12
-31.645874
22
0.705995
32
-45.846962
13
-31.645874
23
0.705995
33
-45.846962
0
3DFACE
8
0
10
-48.497421
20
0.000000
30
-28.000000
11
-49.327175
21
0.705995
31
-25.888899
12
-41.698200
22
0.705995
32
-36.941380
13
-41.698200
23
0.705995
33
-36.941380
0
3DFACE
8
0
10
-41.168678
20
1.000000
30
-36.472267
11
-41.698200
21
0.705995
31
-36.941380
12
-49.327175
22
0.705995
32
-25.888899
13
-49.327175
23
0.705995
33
-25.888899
0
3DFACE
8
0
10
-39.597980
20
0.000000
30
-39.597980
11
-48.497421
21
0.000000
31
-28.000000
12
-41.698200
22
0.705995
32
-36.941380
13
-41.698200
23
0.705995
33
-36.941380
0
3DFACE
8
0
10
-41.168678
20
1.000000
30
-36.472267
11
-31.244007
21
1.000000
31
-45.264759
12
-41.698200
22
0.705995
32
-36.941380
13
-41.698200
23
0.705995
33
-36.941380
0
3DFACE
8
0
10
-54.091846
20
0.000000
30
-14.493867
11
-54.089436
21
0.705995
31
-13.331849
12
-49.327175
22
0.705995
32
-25.888899
13
-49.327175
23
0.705995
33
-25.888899
0
3DFACE
8
0
10
-48.700775
20
1.000000
30
-25.560139
11
-49.327175
21
0.705995
31
-25.888899
12
-54.089436
22
0.705995
32
-13.331849
13
-54.089436
23
0.705995
33
-13.331849
0
3DFACE
8
0
10
-48.497421
20
0.000000
30
-28.000000
11
-54.091846
21
0.000000
31
-14.493867
12
-49.327175
22
0.705995
32
-25.888899
13
-49.327175
23
0.705995
33
-25.888899
0
3DFACE
8
0
10
-48.700775
20
1.000000
30
-25.560139
11
-41.168678
21
1.000000
31
-36.472267
12
-49.327175
22
0.705995
32
-25.888899
13
-49.327175
23
0.705995
33
-25.888899
0
3DFACE
8
0
10
-53.402561
20
1.000000
30
-13.162549
11
-48.700775
21
1.000000
31
-25.560139
12
-54.089436
22
0.705995
32
-13.331849
13
-54.089436
23
0.705995
33
-13.331849
0
3DFACE
8
0
10
-49.326195
20
-0.707107
30
-25.888384
11
-54.091846
21
0.000000
31
-14.493867
12
-48.497421
22
0.000000
32
-28.000000
13
-48.497421
23
0.000000
33
-28.000000
0
3DFACE
8
0
10
-54.088360
20
-0.707107
30
-13.331583
11
-54.091846
21
0.000000
31
-14.493867
12
-49.326195
22
-0.707107
32
-25.888384
13
-49.326195
23
-0.707107
33
-25.888384
0
3DFACE
8
0
10
-41.697369
20
-0.707107
30
-36.940643
11
-48.497421
21
0.000000
31
-28.000000
12
-39.597980
22
0.000000
32
-39.597980
13
-39.597980
23
0.000000
33
-39.597980
0
3DFACE
8
0
10
-49.326195
20
-0.707107
30
-25.888384
11
-48.497421
21
0.000000
31
-28.000000
12
-41.697369
22
-0.707107
32
-36.940643
13
-41.697369
23
-0.707107
33
-36.940643
0
3DFACE
8
0
10
-31.645243
20
-0.707107
30
-45.846050
11
-39.597980
21
0.000000
31
-39.597980
12
-28.000000
22
0.000000
32
-48.497421
13
-28.000000
23
0.000000
33
-48.497421
0
3DFACE
8
0
10
-41.697369
20
-0.707107
30
-36.940643
11
-39.597980
21
0.000000
31
-39.597980
12
-31.645243
22
-0.707107
32
-45.846050
13
-31.645243
23
-0.707107
33
-45.846050
0
3DFACE
8
0
10
-19.754013
20
-0.707107
30
-52.087051
11
-28.000000
21
0.000000
31
-48.497421
12
-14.493867
22
0.000000
32
-54.091846
13
-14.493867
23
0.000000
33
-54.091846
0
3DFACE
8
0
10
-31.645243
20
-0.707107
30
-45.846050
11
-28.000000
21
0.000000
31
-48.497421
12
-19.754013
22
-0.707107
32
-52.087051
13
-19.754013
23
-0.707107
33
-52.087051
0
3DFACE
8
0
10
-6.714750
20
-0.707107
30
-55.300938
11
-14.493867
21
0.000000
31
-54.091846
12
0.000000
22
0.000000
32
-56.000000
13
0.000000
23
0.000000
33
-56.000000
0
3DFACE
8
0
10
-19.754013
20
-0.707107
30
-52.087051
11
-14.493867
21
0.000000
31
-54.091846
12
-6.714750
22
-0.707107
32
-55.300938
13
-6.714750
23
-0.707107
33
-55.300938
0
3DFACE
8
0
10
6.714750
20
-0.707107
30
-55.300938
11
0.000000
21
0.000000
31
-56.000000
12
14.493867
22
0.000000
32
-54.091846
13
14.493867
23
0.000000
33
-54.091846
0
3DFACE
8
0
10
-6.714750
20
-0.707107
30
-55.300938
11
0.000000
21
0.000000
31
-56.000000
12
6.714750
22
-0.707107
32
-55.300938
13
6.714750
23
-0.707107
33
-55.300938
0
3DFACE
8
0
10
19.754013
20
-0.707107
30
-52.087051
11
14.493867
21
0.000000
31
-54.091846
12
28.000000
22
0.000000
32
-48.497421
13
28.000000
23
0.000000
33
-48.497421
0
3DFACE
8
0
10
6.714750
20
-0.707107
30
-55.300938
11
14.493867
21
0.000000
31
-54.091846
12
19.754013
22
-0.707107
32
-52.087051
13
19.754013
23
-0.707107
33
-52.087051
0
3DFACE
8
0
10
31.645243
20
-0.707107
30
-45.846050
11
28.000000
21
0.000000
31
-48.497421
12
39.597980
22
0.000000
32
-39.597980
13
39.597980
23
0.000000
33
-39.597980
0
3DFACE
8
0
10
19.754013
20
-0.707107
30
-52.087051
11
28.000000
21
0.000000
31
-48.497421
12
31.645243
22
-0.707107
32
-45.846050
13
31.645243
23
-0.707107
33
-45.846050
0
3DFACE
8
0
10
41.697369
20
-0.707107
30
-36.940643
11
39.597980
21
0.000000
31
-39.597980
12
48.497421
22
0.000000
32
-28.000000
13
48.497421
23
0.000000
33
-28.000000
0
3DFACE
8
0
10
31.645243
20
-0.707107
30
-45.846050
11
39.597980
21
0.000000
31
-39.597980
12
41.697369
22
-0.707107
32
-36.940643
13
41.697369
23
-0.707107
33
-36.940643
0
3DFACE
8
0
10
49.326195
20
-0.707107
30
-25.888384
11
48.497421
21
0.000000
31
-28.000000
12
54.091846
22
0.000000
32
-14.493867
13
54.091846
23
0.000000
33
-14.493867
0
3DFACE
8
0
10
41.697369
20
-0.707107
30
-36.940643
11
48.497421
21
0.000000
31
-28.000000
12
49.326195
22
-0.707107
32
-25.888384
13
49.326195
23
-0.707107
33
-25.888384
0
3DFACE
8
0
10
49.326195
20
-0.707107
30
-25.888384
11
54.091846
21
0.000000
31
-14.493867
12
54.088360
22
-0.707107
32
-13.331583
13
54.088360
23
-0.707107
33
-13.331583
0
3DFACE
8
0
10
52.715240
20
0.707107
30
-12.993140
11
53.402561
21
1.000000
31
-13.162549
12
48.700775
22
1.000000
32
-25.560139
13
48.700775
23
1.000000
33
-25.560139
0
3DFACE
8
0
10
48.073971
20
0.707107
30
-25.231165
11
48.700775
21
1.000000
31
-25.560139
12
41.168678
22
1.000000
32
-36.472267
13
41.168678
23
1.000000
33
-36.472267
0
3DFACE
8
0
10
48.073971
20
0.707107
30
-25.231165
11
52.715240
21
0.707107
31
-12.993140
12
48.700775
22
1.000000
32
-25.560139
13
48.700775
23
1.000000
33
-25.560139
0
3DFACE
8
0
10
40.638813
20
0.707107
30
-36.002850
11
41.168678
21
1.000000
31
-36.472267
12
31.244007
22
1.000000
32
-45.264759
13
31.244007
23
1.000000
33
-45.264759
0
3DFACE
8
0
10
40.638813
20
0.707107
30
-36.002850
11
48.073971
21
0.707107
31
-25.231165
12
41.168678
22
1.000000
32
-36.472267
13
41.168678
23
1.000000
33
-36.472267
0
3DFACE
8
0
10
30.841879
20
0.707107
30
-44.682175
11
31.244007
21
1.000000
31
-45.264759
12
19.503548
22
1.000000
32
-51.426628
13
19.503548
23
1.000000
33
-51.426628
0
3DFACE
8
0
10
30.841879
20
0.707107
30
-44.682175
11
40.638813
21
0.707107
31
-36.002850
12
31.244007
22
1.000000
32
-45.264759
13
31.244007
23
1.000000
33
-45.264759
0
3DFACE
8
0
10
19.252525
20
0.707107
30
-50.764736
11
19.503548
21
1.000000
31
-51.426628
12
6.629612
22
1.000000
32
-54.599770
13
6.629612
23
1.000000
33
-54.599770
0
3DFACE
8
0
10
19.252525
20
0.707107
30
-50.764736
11
30.841879
21
0.707107
31
-44.682175
12
19.503548
22
1.000000
32
-51.426628
13
19.503548
23
1.000000
33
-51.426628
0
3DFACE
8
0
10
6.544285
20
0.707107
30
-53.897038
11
6.629612
21
1.000000
31
-54.599770
12
-6.629612
22
1.000000
32
-54.599770
13
-6.629612
23
1.000000
33
-54.599770
0
3DFACE
8
0
10
6.544285
20
0.707107
30
-53.897038
11
19.252525
21
0.707107
31
-50.764736
12
6.629612
22
1.000000
32
-54.599770
13
6.629612
23
1.000000
33
-54.599770
0
3DFACE
8
0
10
-6.544285
20
0.707107
30
-53.897038
11
-6.629612
21
1.000000
31
-54.599770
12
-19.503548
22
1.000000
32
-51.426628
13
-19.503548
23
1.000000
33
-51.426628
0
3DFACE
8
0
10
-6.544285
20
0.707107
30
-53.897038
11
6.544285
21
0.707107
31
-53.897038
12
-6.629612
22
1.000000
32
-54.599770
13
-6.629612
23
1.000000
33
-54.599770
0
3DFACE
8
0
10
-19.252525
20
0.707107
30
-50.764736
11
-19.503548
21
1.000000
31
-51.426628
12
-31.244007
22
1.000000
32
-45.264759
13
-31.244007
23
1.000000
33
-45.264759
0
3DFACE
8
0
10
-19.252525
20
0.707107
30
-50.764736
11
-6.544285
21
0.707107
31
-53.897038
12
-19.503548
22
1.000000
32
-51.426628
13
-19.503548
23
1.000000
33
-51.426628
0
3DFACE
8
0
10
-30.841879
20
0.707107
30
-44.682175
11
-31.244007
21
1.000000
31
-45.264759
12
-41.168678
22
1.000000
32
-36.472267
13
-41.168678
23
1.000000
33
-36.472267
0
3DFACE
8
0
10
-30.841879
20
0.707107
30
-44.682175
11
-19.252525
21
0.707107
31
-50.764736
12
-31.244007
22
1.000000
32
-45.264759
13
-31.244007
23
1.000000
33
-45.264759
0
3DFACE
8
0
10
-40.638813
20
0.707107
30
-36.002850
11
-41.168678
21
1.000000
31
-36.472267
12
-48.700775
22
1.000000
32
-25.560139
13
-48.700775
23
1.000000
33
-25.560139
0
3DFACE
8
0
10
-40.638813
20
0.707107
30
-36.002850
11
-30.841879
21
0.707107
31
-44.682175
12
-41.168678
22
1.000000
32
-36.472267
13
-41.168678
23
1.000000
33
-36.472267
0
3DFACE
8
0
10
-48.073971
20
0.707107
30
-25.231165
11
-48.700775
21
1.000000
31
-25.560139
12
-53.402561
22
1.000000
32
-13.162549
13
-53.402561
23
1.000000
33
-13.162549
0
3DFACE
8
0
10
-48.073971
20
0.707107
30
-25.231165
11
-40.638813
21
0.707107
31
-36.002850
12
-48.700775
22
1.000000
32
-25.560139
13
-48.700775
23
1.000000
33
-25.560139
0
3DFACE
8
0
10
-52.715240
20
0.707107
30
-12.993140
11
-48.073971
21
0.707107
31
-25.231165
12
-53.402561
22
1.000000
32
-13.162549
13
-53.402561
23
1.000000
33
-13.162549
0
3DFACE
8
0
10
52.159996
20
-0.000000
30
-13.976229
11
52.715240
21
0.707107
31
-12.993140
12
48.073971
22
0.707107
32
-25.231165
13
48.073971
23
0.707107
33
-25.231165
0
3DFACE
8
0
10
46.765373
20
-0.000000
30
-27.000000
11
48.073971
21
0.707107
31
-25.231165
12
40.638813
22
0.707107
32
-36.002850
13
40.638813
23
0.707107
33
-36.002850
0
3DFACE
8
0
10
46.765373
20
-0.000000
30
-27.000000
11
52.159996
21
-0.000000
31
-13.976229
12
48.073971
22
0.707107
32
-25.231165
13
48.073971
23
0.707107
33
-25.231165
0
3DFACE
8
0
10
38.183765
20
-0.000000
30
-38.183765
11
40.638813
21
0.707107
31
-36.002850
12
30.841879
22
0.707107
32
-44.682175
13
30.841879
23
0.707107
33
-44.682175
0
3DFACE
8
0
10
38.183765
20
-0.000000
30
-38.183765
11
46.765373
21
-0.000000
31
-27.000000
12
40.638813
22
0.707107
32
-36.002850
13
40.638813
23
0.707107
33
-36.002850
0
3DFACE
8
0
10
27.000000
20
-0.000000
30
-46.765373
11
30.841879
21
0.707107
31
-44.682175
12
19.252525
22
0.707107
32
-50.764736
13
19.252525
23
0.707107
33
-50.764736
0
3DFACE
8
0
10
27.000000
20
-0.000000
30
-46.765373
11
38.183765
21
-0.000000
31
-38.183765
12
30.841879
22
0.707107
32
-44.682175
13
30.841879
23
0.707107
33
-44.682175
0
3DFACE
8
0
10
13.976229
20
-0.000000
30
-52.159996
11
19.252525
21
0.707107
31
-50.764736
12
6.544285
22
0.707107
32
-53.897038
13
6.544285
23
0.707107
33
-53.897038
0
3DFACE
8
0
10
13.976229
20
-0.000000
30
-52.159996
11
27.000000
21
-0.000000
31
-46.765373
12
19.252525
22
0.707107
32
-50.764736
13
19.252525
23
0.707107
33
-50.764736
0
3DFACE
8
0
10
0.000000
20
-0.000000
30
-54.000000
11
6.544285
21
0.707107
31
-53.897038
12
-6.544285
22
0.707107
32
-53.897038
13
-6.544285
23
0.707107
33
-53.897038
0
3DFACE
8
0
10
0.000000
20
-0.000000
30
-54.000000
11
13.976229
21
-0.000000
31
-52.159996
12
6.544285
22
0.707107
32
-53.897038
13
6.544285
23
0.707107
33
-53.897038
0
3DFACE
8
0
10
-13.976229
20
-0.000000
30
-52.159996
11
-6.544285
21
0.707107
31
-53.897038
12
-19.252525
22
0.707107
32
-50.764736
13
-19.252525
23
0.707107
33
-50.764736
0
3DFACE
8
0
10
-13.976229
20
-0.000000
30
-52.159996
11
0.000000
21
-0.000000
31
-54.000000
12
-6.544285
22
0.707107
32
-53.897038
13
-6.544285
23
0.707107
33
-53.897038
0
3DFACE
8
0
10
-27.000000
20
-0.000000
30
-46.765373
11
-19.252525
21
0.707107
31
-50.764736
12
-30.841879
22
0.707107
32
-44.682175
13
-30.841879
23
0.707107
33
-44.682175
0
3DFACE
8
0
10
-27.000000
20
-0.000000
30
-46.765373
11
-13.976229
21
-0.000000
31
-52.159996
12
-19.252525
22
0.707107
32
-50.764736
13
-19.252525
23
0.707107
33
-50.764736
0
3DFACE
8
0
10
-38.183765
20
-0.000000
30
-38.183765
11
-30.841879
21
0.707107
31
-44.682175
12
-40.638813
22
0.707107
32
-36.002850
13
-40.638813
23
0.707107
33
-36.002850
0
3DFACE
8
0
10
-38.183765
20
-0.000000
30
-38.183765
11
-27.000000
21
-0.000000
31
-46.765373
12
-30.841879
22
0.707107
32
-44.682175
13
-30.841879
23
0.707107
33
-44.682175
0
3DFACE
8
0
10
-46.765373
20
-0.000000
30
-27.000000
11
-40.638813
21
0.707107
31
-36.002850
12
-48.073971
22
0.707107
32
-25.231165
13
-48.073971
23
0.707107
33
-25.231165
0
3DFACE
8
0
10
-46.765373
20
-0.000000
30
-27.000000
11
-38.183765
21
-0.000000
31
-38.183765
12
-40.638813
22
0.707107
32
-36.002850
13
-40.638813
23
0.707107
33
-36.002850
0
3DFACE
8
0
10
-52.159996
20
-0.000000
30
-13.976229
11
-48.073971
21
0.707107
31
-25.231165
12
-52.715240
22
0.707107
32
-12.993140
13
-52.715240
23
0.707107
33
-12.993140
0
3DFACE
8
0
10
-52.159996
20
-0.000000
30
-13.976229
11
-46.765373
21
-0.000000
31
-27.000000
12
-48.073971
22
0.707107
32
-25.231165
13
-48.073971
23
0.707107
33
-25.231165
0
3DFACE
8
0
10
48.072987
20
-0.705995
30
-25.230650
11
52.159996
21
-0.000000
31
-13.976229
12
46.765373
22
-0.000000
32
-27.000000
13
46.765373
23
-0.000000
33
-27.000000
0
3DFACE
8
0
10
48.072987
20
-0.705995
30
-25.230650
11
52.714161
21
-0.705995
31
-12.992874
12
52.159996
22
-0.000000
32
-13.976229
13
52.159996
23
-0.000000
33
-13.976229
0
3DFACE
8
0
10
40.637985
20
-0.705995
30
-36.002113
11
46.765373
21
-0.000000
31
-27.000000
12
38.183765
22
-0.000000
32
-38.183765
13
38.183765
23
-0.000000
33
-38.183765
0
3DFACE
8
0
10
40.637985
20
-0.705995
30
-36.002113
11
48.072987
21
-0.705995
31
-25.230650
12
46.765373
22
-0.000000
32
-27.000000
13
46.765373
23
-0.000000
33
-27.000000
0
3DFACE
8
0
10
30.841248
20
-0.705995
30
-44.681263
11
38.183765
21
-0.000000
31
-38.183765
12
27.000000
22
-0.000000
32
-46.765373
13
27.000000
23
-0.000000
33
-46.765373
0
3DFACE
8
0
10
30.841248
20
-0.705995
30
-44.681263
11
40.637985
21
-0.705995
31
-36.002113
12
38.183765
22
-0.000000
32
-38.183765
13
38.183765
23
-0.000000
33
-38.183765
0
3DFACE
8
0
10
19.252132
20
-0.705995
30
-50.763699
11
27.000000
21
-0.000000
31
-46.765373
12
13.976229
22
-0.000000
32
-52.159996
13
13.976229
23
-0.000000
33
-52.159996
0
3DFACE
8
0
10
19.252132
20
-0.705995
30
-50.763699
11
30.841248
21
-0.705995
31
-44.681263
12
27.000000
22
-0.000000
32
-46.765373
13
27.000000
23
-0.000000
33
-46.765373
0
3DFACE
8
0
10
6.544151
20
-0.705995
30
-53.895935
11
13.976229
21
-0.000000
31
-52.159996
12
0.000000
22
-0.000000
32
-54.000000
13
0.000000
23
-0.000000
33
-54.000000
0
3DFACE
8
0
10
6.544151
20
-0.705995
30
-53.895935
11
19.252132
21
-0.705995
31
-50.763699
12
13.976229
22
-0.000000
32
-52.159996
13
13.976229
23
-0.000000
33
-52.159996
0
3DFACE
8
0
10
-6.544151
20
-0.705995
30
-53.895935
11
0.000000
21
-0.000000
31
-54.000000
12
-13.976229
22
-0.000000
32
-52.159996
13
-13.976229
23
-0.000000
33
-52.159996
0
3DFACE
8
0
10
-6.544151
20
-0.705995
30
-53.895935
11
6.544151
21
-0.705995
31
-53.895935
12
0.000000
22
-0.000000
32
-54.000000
13
0.000000
23
-0.000000
33
-54.000000
0
3DFACE
8
0
10
-19.252132
20
-0.705995
30
-50.763699
11
-13.976229
21
-0.000000
31
-52.159996
12
-27.000000
22
-0.000000
32
-46.765373
13
-27.000000
23
-0.000000
33
-46.765373
0
3DFACE
8
0
10
-19.252132
20
-0.705995
30
-50.763699
11
-6.544151
21
-0.705995
31
-53.895935
12
-13.976229
22
-0.000000
32
-52.159996
13
-13.976229
23
-0.000000
33
-52.159996
0
3DFACE
8
0
10
-30.841248
20
-0.705995
30
-44.681263
11
-27.000000
21
-0.000000
31
-46.765373
12
-38.183765
22
-0.000000
32
-38.183765
13
-38.183765
23
-0.000000
33
-38.183765
0
3DFACE
8
0
10
-30.841248
20
-0.705995
30
-44.681263
11
-19.252132
21
-0.705995
31
-50.763699
12
-27.000000
22
-0.000000
32
-46.765373
13
-27.000000
23
-0.000000
33
-46.765373
0
3DFACE
8
0
10
-40.637985
20
-0.705995
30
-36.002113
11
-38.183765
21
-0.000000
31
-38.183765
12
-46.765373
22
-0.000000
32
-27.000000
13
-46.765373
23
-0.000000
33
-27.000000
0
3DFACE
8
0
10
-40.637985
20
-0.705995
30
-36.002113
11
-30.841248
21
-0.705995
31
-44.681263
12
-38.183765
22
-0.000000
32
-38.183765
13
-38.183765
23
-0.000000
33
-38.183765
0
3DFACE
8
0
10
-48.072987
20
-0.705995
30
-25.230650
11
-46.765373
21
-0.000000
31
-27.000000
12
-52.159996
22
-0.000000
32
-13.976229
13
-52.159996
23
-0.000000
33
-13.976229
0
3DFACE
8
0
10
-48.072987
20
-0.705995
30
-25.230650
11
-40.637985
21
-0.705995
31
-36.002113
12
-46.765373
22
-0.000000
32
-27.000000
13
-46.765373
23
-0.000000
33
-27.000000
0
3DFACE
8
0
10
-52.714161
20
-0.705995
30
-12.992874
11
-48.072987
21
-0.705995
31
-25.230650
12
-52.159996
22
-0.000000
32
-13.976229
13
-52.159996
23
-0.000000
33
-13.976229
0
3DFACE
8
0
10
53.401039
20
-1.000000
30
-13.162173
11
52.714161
21
-0.705995
31
-12.992874
12
48.072987
22
-0.705995
32
-25.230650
13
48.072987
23
-0.705995
33
-25.230650
0
3DFACE
8
0
10
48.699387
20
-1.000000
30
-25.559410
11
48.072987
21
-0.705995
31
-25.230650
12
40.637985
22
-0.705995
32
-36.002113
13
40.637985
23
-0.705995
33
-36.002113
0
3DFACE
8
0
10
48.699387
20
-1.000000
30
-25.559410
11
53.401039
21
-1.000000
31
-13.162173
12
48.072987
22
-0.705995
32
-25.230650
13
48.072987
23
-0.705995
33
-25.230650
0
3DFACE
8
0
10
41.167503
20
-1.000000
30
-36.471226
11
40.637985
21
-0.705995
31
-36.002113
12
30.841248
22
-0.705995
32
-44.681263
13
30.841248
23
-0.705995
33
-44.681263
0
3DFACE
8
0
10
41.167503
20
-1.000000
30
-36.471226
11
48.699387
21
-1.000000
31
-25.559410
12
40.637985
22
-0.705995
32
-36.002113
13
40.637985
23
-0.705995
33
-36.002113
0
3DFACE
8
0
10
31.243114
20
-1.000000
30
-45.263466
11
30.841248
21
-0.705995
31
-44.681263
12
19.252132
22
-0.705995
32
-50.763699
13
19.252132
23
-0.705995
33
-50.763699
0
3DFACE
8
0
10
31.243114
20
-1.000000
30
-45.263466
11
41.167503
21
-1.000000
31
-36.471226
12
30.841248
22
-0.705995
32
-44.681263
13
30.841248
23
-0.705995
33
-44.681263
0
3DFACE
8
0
10
19.502991
20
-1.000000
30
-51.425159
11
19.252132
21
-0.705995
31
-50.763699
12
6.544151
22
-0.705995
32
-53.895935
13
6.544151
23
-0.705995
33
-53.895935
0
3DFACE
8
0
10
19.502991
20
-1.000000
30
-51.425159
11
31.243114
21
-1.000000
31
-45.263466
12
19.252132
22
-0.705995
32
-50.763699
13
19.252132
23
-0.705995
33
-50.763699
0
3DFACE
8
0
10
6.629423
20
-1.000000
30
-54.598209
11
6.544151
21
-0.705995
31
-53.895935
12
-6.544151
22
-0.705995
32
-53.895935
13
-6.544151
23
-0.705995
33
-53.895935
0
3DFACE
8
0
10
6.629423
20
-1.000000
30
-54.598209
11
19.502991
21
-1.000000
31
-51.425159
12
6.544151
22
-0.705995
32
-53.895935
13
6.544151
23
-0.705995
33
-53.895935
0
3DFACE
8
0
10
-6.629423
20
-1.000000
30
-54.598209
11
-6.544151
21
-0.705995
31
-53.895935
12
-19.252132
22
-0.705995
32
-50.763699
13
-19.252132
23
-0.705995
33
-50.763699
0
3DFACE
8
0
10
-6.629423
20
-1.000000
30
-54.598209
11
6.629423
21
-1.000000
31
-54.598209
12
-6.544151
22
-0.705995
32
-53.895935
13
-6.544151
23
-0.705995
33
-53.895935
0
3DFACE
8
0
10
-19.502991
20
-1.000000
30
-51.425159
11
-19.252132
21
-0.705995
31
-50.763699
12
-30.841248
22
-0.705995
32
-44.681263
13
-30.841248
23
-0.705995
33
-44.681263
0
3DFACE
8
0
10
-19.502991
20
-1.000000
30
-51.425159
11
-6.629423
21
-1.000000
31
-54.598209
12
-19.252132
22
-0.705995
32
-50.763699
13
-19.252132
23
-0.705995
33
-50.763699
0
3DFACE
8
0
10
-31.243114
20
-1.000000
30
-45.263466
11
-30.841248
21
-0.705995
31
-44.681263
12
-40.637985
22
-0.705995
32
-36.002113
13
-40.637985
23
-0.705995
33
-36.002113
0
3DFACE
8
0
10
-31.243114
20
-1.000000
30
-45.263466
11
-19.502991
21
-1.000000
31
-51.425159
12
-30.841248
22
-0.705995
32
-44.681263
13
-30.841248
23
-0.705995
33
-44.681263
0
3DFACE
8
0
10
-41.167503
20
-1.000000
30
-36.471226
11
-40.637985
21
-0.705995
31
-36.002113
12
-48.072987
22
-0.705995
32
-25.230650
13
-48.072987
23
-0.705995
33
-25.230650
0
3DFACE
8
0
10
-41.167503
20
-1.000000
30
-36.471226
11
-31.243114
21
-1.000000
31
-45.263466
12
-40.637985
22
-0.705995
32
-36.002113
13
-40.637985
23
-0.705995
33
-36.002113
0
3DFACE
8
0
10
-48.699387
20
-1.000000
30
-25.559410
11
-48.072987
21
-0.705995
31
-25.230650
12
-52.714161
22
-0.705995
32
-12.992874
13
-52.714161
23
-0.705995
33
-12.992874
0
3DFACE
8
0
10
-48.699387
20
-1.000000
30
-25.559410
11
-41.167503
21
-1.000000
31
-36.471226
12
-48.072987
22
-0.705995
32
-25.230650
13
-48.072987
23
-0.705995
33
-25.230650
0
3DFACE
8
0
10
-53.401039
20
-1.000000
30
-13.162173
11
-48.699387
21
-1.000000
31
-25.559410
12
-52.714161
22
-0.705995
32
-12.992874
13
-52.714161
23
-0.705995
33
-12.992874
0
3DFACE
8
0
10
54.088360
20
-0.707107
30
-13.331583
11
53.401039
21
-1.000000
31
-13.162173
12
48.699387
22
-1.000000
32
-25.559410
13
48.699387
23
-1.000000
33
-25.559410
0
3DFACE
8
0
10
49.326195
20
-0.707107
30
-25.888384
11
48.699387
21
-1.000000
31
-25.559410
12
41.167503
22
-1.000000
32
-36.471226
13
41.167503
23
-1.000000
33
-36.471226
0
3DFACE
8
0
10
49.326195
20
-0.707107
30
-25.888384
11
54.088360
21
-0.707107
31
-13.331583
12
48.699387
22
-1.000000
32
-25.559410
13
48.699387
23
-1.000000
33
-25.559410
0
3DFACE
8
0
10
41.697369
20
-0.707107
30
-36.940643
11
41.167503
21
-1.000000
31
-36.471226
12
31.243114
22
-1.000000
32
-45.263466
13
31.243114
23
-1.000000
33
-45.263466
0
3DFACE
8
0
10
41.697369
20
-0.707107
30
-36.940643
11
49.326195
21
-0.707107
31
-25.888384
12
41.167503
22
-1.000000
32
-36.471226
13
41.167503
23
-1.000000
33
-36.471226
0
3DFACE
8
0
10
31.645243
20
-0.707107
30
-45.846050
11
31.243114
21
-1.000000
31
-45.263466
12
19.502991
22
-1.000000
32
-51.425159
13
19.502991
23
-1.000000
33
-51.425159
0
3DFACE
8
0
10
31.645243
20
-0.707107
30
-45.846050
11
41.697369
21
-0.707107
31
-36.940643
12
31.243114
22
-1.000000
32
-45.263466
13
31.243114
23
-1.000000
33
-45.263466
0
3DFACE
8
0
10
19.754013
20
-0.707107
30
-52.087051
11
19.502991
21
-1.000000
31
-51.425159
12
6.629423
22
-1.000000
32
-54.598209
13
6.629423
23
-1.000000
33
-54.598209
0
3DFACE
8
0
10
19.754013
20
-0.707107
30
-52.087051
11
31.645243
21
-0.707107
31
-45.846050
12
19.502991
22
-1.000000
32
-51.425159
13
19.502991
23
-1.000000
33
-51.425159
0
3DFACE
8
0
10
6.714750
20
-0.707107
30
-55.300938
11
6.629423
21
-1.000000
31
-54.598209
12
-6.629423
22
-1.000000
32
-54.598209
13
-6.629423
23
-1.000000
33
-54.598209
0
3DFACE
8
0
10
6.714750
20
-0.707107
30
-55.300938
11
19.754013
21
-0.707107
31
-52.087051
12
6.629423
22
-1.000000
32
-54.598209
13
6.629423
23
-1.000000
33
-54.598209
0
3DFACE
8
0
10
-6.714750
20
-0.707107
30
-55.300938
11
-6.629423
21
-1.000000
31
-54.598209
12
-19.502991
22
-1.000000
32
-51.425159
13
-19.502991
23
-1.000000
33
-51.425159
0
3DFACE
8
0
10
-6.714750
20
-0.707107
30
-55.300938
11
6.714750
21
-0.707107
31
-55.300938
12
-6.629423
22
-1.000000
32
-54.598209
13
-6.629423
23
-1.000000
33
-54.598209
0
3DFACE
8
0
10
-19.754013
20
-0.707107
30
-52.087051
11
-19.502991
21
-1.000000
31
-51.425159
12
-31.243114
22
-1.000000
32
-45.263466
13
-31.243114
23
-1.000000
33
-45.263466
0
3DFACE
8
0
10
-19.754013
20
-0.707107
30
-52.087051
11
-6.714750
21
-0.707107
31
-55.300938
12
-19.502991
22
-1.000000
32
-51.425159
13
-19.502991
23
-1.000000
33
-51.425159
0
3DFACE
8
0
10
-31.645243
20
-0.707107
30
-45.846050
11
-31.243114
21
-1.000000
31
-45.263466
12
-41.167503
22
-1.000000
32
-36.471226
13
-41.167503
23
-1.000000
33
-36.471226
0
3DFACE
8
0
10
-31.645243
20
-0.707107
30
-45.846050
11
-19.754013
21
-0.707107
31
-52.087051
12
-31.243114
22
-1.000000
32
-45.263466
13
-31.243114
23
-1.000000
33
-45.263466
0
3DFACE
8
0
10
-41.697369
20
-0.707107
30
-36.940643
11
-41.167503
21
-1.000000
31
-36.471226
12
-48.699387
22
-1.000000
32
-25.559410
13
-48.699387
23
-1.000000
33
-25.559410
0
3DFACE
8
0
10
-41.697369
20
-0.707107
30
-36.940643
11
-31.645243
21
-0.707107
31
-45.846050
12
-41.167503
22
-1.000000
32
-36.471226
13
-41.167503
23
-1.000000
33
-36.471226
0
3DFACE
8
0
10
-49.326195
20
-0.707107
30
-25.888384
11
-48.699387
21
-1.000000
31
-25.559410
12
-53.401039
22
-1.000000
32
-13.162173
13
-53.401039
23
-1.000000
33
-13.162173
0
3DFACE
8
0
10
-49.326195
20
-0.707107
30
-25.888384
11
-41.697369
21
-0.707107
31
-36.940643
12
-48.699387
22
-1.000000
32
-25.559410
13
-48.699387
23
-1.000000
33
-25.559410
0
3DFACE
8
0
10
-54.088360
20
-0.707107
30
-13.331583
11
-49.326195
21
-0.707107
31
-25.888384
12
-53.401039
22
-1.000000
32
-13.162173
13
-53.401039
23
-1.000000
33
-13.162173
0
ENDSEC
0
EOF
