999
DXF created by VCGLib
0
SECTION
2
HEADER
9
$ACADVER
1
AC1009
9
$INSBASE
10
0.0
20
0.0
30
0.0
9
$EXTMIN
10
-23.500000
20
-23.500000
9
$EXTMAX
10
23.500000
20
23.500000
9
$LINMIN
10
-23.500000
20
-23.500000
9
$LINMAX
10
23.500000
20
23.500000
0
ENDSEC
0
SECTION
2
ENTITIES
0
3DFACE
8
0
10
21.522226
20
0.000000
30
-1.469794
11
22.699268
21
0.000000
31
-6.082184
12
23.500000
22
0.000000
32
0.000000
13
23.500000
23
0.000000
33
0.000000
0
3DFACE
8
0
10
23.500000
20
0.200000
30
0.000000
11
23.500000
21
0.000000
31
0.000000
12
22.699268
22
0.000000
32
-6.082184
13
22.699268
23
0.000000
33
-6.082184
0
3DFACE
8
0
10
22.000000
20
0.000000
30
0.000000
11
23.500000
21
0.000000
31
0.000000
12
22.699268
22
0.000000
32
6.082184
13
22.699268
23
0.000000
33
6.082184
0
3DFACE
8
0
10
22.699268
20
0.200000
30
6.082184
11
22.699268
21
0.000000
31
6.082184
12
23.500000
22
0.000000
32
0.000000
13
23.500000
23
0.000000
33
0.000000
0
3DFACE
8
0
10
21.522226
20
0.000000
30
-1.469794
11
23.500000
21
0.000000
31
0.000000
12
22.000000
22
0.000000
32
0.000000
13
22.000000
23
0.000000
33
0.000000
0
3DFACE
8
0
10
23.500000
20
0.200000
30
0.000000
11
22.699268
21
0.200000
31
6.082184
12
23.500000
22
0.000000
32
0.000000
13
23.500000
23
0.000000
33
0.000000
0
3DFACE
8
0
10
6.249919
20
0.000000
30
-10.825352
11
20.351561
21
0.000000
31
-11.750052
12
22.699268
22
0.000000
32
-6.082184
13
22.699268
23
0.000000
33
-6.082184
0
3DFACE
8
0
10
22.699268
20
0.200000
30
-6.082184
11
22.699268
21
0.000000
31
-6.082184
12
20.351561
22
0.000000
32
-11.750052
13
20.351561
23
0.000000
33
-11.750052
0
3DFACE
8
0
10
9.575566
20
0.000000
30
-8.034812
11
6.249919
21
0.000000
31
-10.825352
12
22.699268
22
0.000000
32
-6.082184
13
22.699268
23
0.000000
33
-6.082184
0
3DFACE
8
0
10
11.746190
20
0.000000
30
-4.275143
11
9.575566
21
0.000000
31
-8.034812
12
22.699268
22
0.000000
32
-6.082184
13
22.699268
23
0.000000
33
-6.082184
0
3DFACE
8
0
10
20.272284
20
0.000000
30
-2.377582
11
11.746190
21
0.000000
31
-4.275143
12
22.699268
22
0.000000
32
-6.082184
13
22.699268
23
0.000000
33
-6.082184
0
3DFACE
8
0
10
21.522226
20
0.000000
30
-1.469794
11
20.272284
21
0.000000
31
-2.377582
12
22.699268
22
0.000000
32
-6.082184
13
22.699268
23
0.000000
33
-6.082184
0
3DFACE
8
0
10
22.699268
20
0.200000
30
-6.082184
11
23.500000
21
0.200000
31
0.000000
12
22.699268
22
0.000000
32
-6.082184
13
22.699268
23
0.000000
33
-6.082184
0
3DFACE
8
0
10
-16.617010
20
0.000000
30
-16.617010
11
16.617010
21
0.000000
31
-16.617010
12
20.351561
22
0.000000
32
-11.750052
13
20.351561
23
0.000000
33
-11.750052
0
3DFACE
8
0
10
20.351561
20
0.200000
30
-11.750052
11
20.351561
21
0.000000
31
-11.750052
12
16.617010
22
0.000000
32
-16.617010
13
16.617010
23
0.000000
33
-16.617010
0
3DFACE
8
0
10
2.170513
20
0.000000
30
-12.310110
11
-16.617010
21
0.000000
31
-16.617010
12
20.351561
22
0.000000
32
-11.750052
13
20.351561
23
0.000000
33
-11.750052
0
3DFACE
8
0
10
6.249919
20
0.000000
30
-10.825352
11
2.170513
21
0.000000
31
-12.310110
12
20.351561
22
0.000000
32
-11.750052
13
20.351561
23
0.000000
33
-11.750052
0
3DFACE
8
0
10
22.699268
20
0.200000
30
-6.082184
11
20.351561
21
0.000000
31
-11.750052
12
20.351561
22
0.200000
32
-11.750052
13
20.351561
23
0.200000
33
-11.750052
0
3DFACE
8
0
10
-11.750052
20
0.000000
30
-20.351561
11
11.750052
21
0.000000
31
-20.351561
12
16.617010
22
0.000000
32
-16.617010
13
16.617010
23
0.000000
33
-16.617010
0
3DFACE
8
0
10
16.617010
20
0.200000
30
-16.617010
11
16.617010
21
0.000000
31
-16.617010
12
11.750052
22
0.000000
32
-20.351561
13
11.750052
23
0.000000
33
-20.351561
0
3DFACE
8
0
10
-16.617010
20
0.000000
30
-16.617010
11
-11.750052
21
0.000000
31
-20.351561
12
16.617010
22
0.000000
32
-16.617010
13
16.617010
23
0.000000
33
-16.617010
0
3DFACE
8
0
10
20.351561
20
0.200000
30
-11.750052
11
16.617010
21
0.000000
31
-16.617010
12
16.617010
22
0.200000
32
-16.617010
13
16.617010
23
0.200000
33
-16.617010
0
3DFACE
8
0
10
-6.082184
20
0.000000
30
-22.699268
11
6.082184
21
0.000000
31
-22.699268
12
11.750052
22
0.000000
32
-20.351561
13
11.750052
23
0.000000
33
-20.351561
0
3DFACE
8
0
10
11.750052
20
0.200000
30
-20.351561
11
11.750052
21
0.000000
31
-20.351561
12
6.082184
22
0.000000
32
-22.699268
13
6.082184
23
0.000000
33
-22.699268
0
3DFACE
8
0
10
-11.750052
20
0.000000
30
-20.351561
11
-6.082184
21
0.000000
31
-22.699268
12
11.750052
22
0.000000
32
-20.351561
13
11.750052
23
0.000000
33
-20.351561
0
3DFACE
8
0
10
16.617010
20
0.200000
30
-16.617010
11
11.750052
21
0.000000
31
-20.351561
12
11.750052
22
0.200000
32
-20.351561
13
11.750052
23
0.200000
33
-20.351561
0
3DFACE
8
0
10
-6.082184
20
0.000000
30
-22.699268
11
0.000000
21
0.000000
31
-23.500000
12
6.082184
22
0.000000
32
-22.699268
13
6.082184
23
0.000000
33
-22.699268
0
3DFACE
8
0
10
6.082184
20
0.200000
30
-22.699268
11
6.082184
21
0.000000
31
-22.699268
12
0.000000
22
0.000000
32
-23.500000
13
0.000000
23
0.000000
33
-23.500000
0
3DFACE
8
0
10
11.750052
20
0.200000
30
-20.351561
11
6.082184
21
0.000000
31
-22.699268
12
6.082184
22
0.200000
32
-22.699268
13
6.082184
23
0.200000
33
-22.699268
0
3DFACE
8
0
10
0.000000
20
0.200000
30
-23.500000
11
0.000000
21
0.000000
31
-23.500000
12
-6.082184
22
0.000000
32
-22.699268
13
-6.082184
23
0.000000
33
-22.699268
0
3DFACE
8
0
10
6.082184
20
0.200000
30
-22.699268
11
0.000000
21
0.000000
31
-23.500000
12
0.000000
22
0.200000
32
-23.500000
13
0.000000
23
0.200000
33
-23.500000
0
3DFACE
8
0
10
-6.082184
20
0.200000
30
-22.699268
11
-6.082184
21
0.000000
31
-22.699268
12
-11.750052
22
0.000000
32
-20.351561
13
-11.750052
23
0.000000
33
-20.351561
0
3DFACE
8
0
10
0.000000
20
0.200000
30
-23.500000
11
-6.082184
21
0.000000
31
-22.699268
12
-6.082184
22
0.200000
32
-22.699268
13
-6.082184
23
0.200000
33
-22.699268
0
3DFACE
8
0
10
-11.750052
20
0.200000
30
-20.351561
11
-11.750052
21
0.000000
31
-20.351561
12
-16.617010
22
0.000000
32
-16.617010
13
-16.617010
23
0.000000
33
-16.617010
0
3DFACE
8
0
10
-6.082184
20
0.200000
30
-22.699268
11
-11.750052
21
0.000000
31
-20.351561
12
-11.750052
22
0.200000
32
-20.351561
13
-11.750052
23
0.200000
33
-20.351561
0
3DFACE
8
0
10
-2.170513
20
0.000000
30
-12.310110
11
-20.351561
21
0.000000
31
-11.750052
12
-16.617010
22
0.000000
32
-16.617010
13
-16.617010
23
0.000000
33
-16.617010
0
3DFACE
8
0
10
-16.617010
20
0.200000
30
-16.617010
11
-16.617010
21
0.000000
31
-16.617010
12
-20.351561
22
0.000000
32
-11.750052
13
-20.351561
23
0.000000
33
-11.750052
0
3DFACE
8
0
10
2.170513
20
0.000000
30
-12.310110
11
-2.170513
21
0.000000
31
-12.310110
12
-16.617010
22
0.000000
32
-16.617010
13
-16.617010
23
0.000000
33
-16.617010
0
3DFACE
8
0
10
-11.750052
20
0.200000
30
-20.351561
11
-16.617010
21
0.000000
31
-16.617010
12
-16.617010
22
0.200000
32
-16.617010
13
-16.617010
23
0.200000
33
-16.617010
0
3DFACE
8
0
10
-9.575566
20
0.000000
30
-8.034812
11
-22.699268
21
0.000000
31
-6.082184
12
-20.351561
22
0.000000
32
-11.750052
13
-20.351561
23
0.000000
33
-11.750052
0
3DFACE
8
0
10
-20.351561
20
0.200000
30
-11.750052
11
-20.351561
21
0.000000
31
-11.750052
12
-22.699268
22
0.000000
32
-6.082184
13
-22.699268
23
0.000000
33
-6.082184
0
3DFACE
8
0
10
-6.249919
20
0.000000
30
-10.825352
11
-9.575566
21
0.000000
31
-8.034812
12
-20.351561
22
0.000000
32
-11.750052
13
-20.351561
23
0.000000
33
-11.750052
0
3DFACE
8
0
10
-2.170513
20
0.000000
30
-12.310110
11
-6.249919
21
0.000000
31
-10.825352
12
-20.351561
22
0.000000
32
-11.750052
13
-20.351561
23
0.000000
33
-11.750052
0
3DFACE
8
0
10
-16.617010
20
0.200000
30
-16.617010
11
-20.351561
21
0.000000
31
-11.750052
12
-20.351561
22
0.200000
32
-11.750052
13
-20.351561
23
0.200000
33
-11.750052
0
3DFACE
8
0
10
-22.000000
20
0.000000
30
0.000000
11
-23.500000
21
0.000000
31
0.000000
12
-22.699268
22
0.000000
32
-6.082184
13
-22.699268
23
0.000000
33
-6.082184
0
3DFACE
8
0
10
-22.699268
20
0.200000
30
-6.082184
11
-22.699268
21
0.000000
31
-6.082184
12
-23.500000
22
0.000000
32
0.000000
13
-23.500000
23
0.000000
33
0.000000
0
3DFACE
8
0
10
-9.575566
20
0.000000
30
-8.034812
11
-11.746190
21
0.000000
31
-4.275143
12
-22.699268
22
0.000000
32
-6.082184
13
-22.699268
23
0.000000
33
-6.082184
0
3DFACE
8
0
10
-18.727716
20
0.000000
30
-2.377582
11
-22.699268
21
0.000000
31
-6.082184
12
-11.746190
22
0.000000
32
-4.275143
13
-11.746190
23
0.000000
33
-4.275143
0
3DFACE
8
0
10
-21.522226
20
0.000000
30
-1.469794
11
-22.000000
21
0.000000
31
0.000000
12
-22.699268
22
0.000000
32
-6.082184
13
-22.699268
23
0.000000
33
-6.082184
0
3DFACE
8
0
10
-20.272284
20
0.000000
30
-2.377582
11
-21.522226
21
0.000000
31
-1.469794
12
-22.699268
22
0.000000
32
-6.082184
13
-22.699268
23
0.000000
33
-6.082184
0
3DFACE
8
0
10
-18.727716
20
0.000000
30
-2.377582
11
-20.272284
21
0.000000
31
-2.377582
12
-22.699268
22
0.000000
32
-6.082184
13
-22.699268
23
0.000000
33
-6.082184
0
3DFACE
8
0
10
-20.351561
20
0.200000
30
-11.750052
11
-22.699268
21
0.000000
31
-6.082184
12
-22.699268
22
0.200000
32
-6.082184
13
-22.699268
23
0.200000
33
-6.082184
0
3DFACE
8
0
10
-21.522226
20
0.000000
30
1.469794
11
-22.699268
21
0.000000
31
6.082184
12
-23.500000
22
0.000000
32
0.000000
13
-23.500000
23
0.000000
33
0.000000
0
3DFACE
8
0
10
-23.500000
20
0.200000
30
0.000000
11
-23.500000
21
0.000000
31
0.000000
12
-22.699268
22
0.000000
32
6.082184
13
-22.699268
23
0.000000
33
6.082184
0
3DFACE
8
0
10
-21.522226
20
0.000000
30
1.469794
11
-23.500000
21
0.000000
31
0.000000
12
-22.000000
22
0.000000
32
0.000000
13
-22.000000
23
0.000000
33
0.000000
0
3DFACE
8
0
10
-22.699268
20
0.200000
30
-6.082184
11
-23.500000
21
0.000000
31
0.000000
12
-23.500000
22
0.200000
32
0.000000
13
-23.500000
23
0.200000
33
0.000000
0
3DFACE
8
0
10
-6.249919
20
0.000000
30
10.825352
11
-20.351561
21
0.000000
31
11.750052
12
-22.699268
22
0.000000
32
6.082184
13
-22.699268
23
0.000000
33
6.082184
0
3DFACE
8
0
10
-22.699268
20
0.200000
30
6.082184
11
-22.699268
21
0.000000
31
6.082184
12
-20.351561
22
0.000000
32
11.750052
13
-20.351561
23
0.000000
33
11.750052
0
3DFACE
8
0
10
-9.575566
20
0.000000
30
8.034812
11
-6.249919
21
0.000000
31
10.825352
12
-22.699268
22
0.000000
32
6.082184
13
-22.699268
23
0.000000
33
6.082184
0
3DFACE
8
0
10
-11.746190
20
0.000000
30
4.275143
11
-9.575566
21
0.000000
31
8.034812
12
-22.699268
22
0.000000
32
6.082184
13
-22.699268
23
0.000000
33
6.082184
0
3DFACE
8
0
10
-20.272284
20
0.000000
30
2.377582
11
-11.746190
21
0.000000
31
4.275143
12
-22.699268
22
0.000000
32
6.082184
13
-22.699268
23
0.000000
33
6.082184
0
3DFACE
8
0
10
-21.522226
20
0.000000
30
1.469794
11
-20.272284
21
0.000000
31
2.377582
12
-22.699268
22
0.000000
32
6.082184
13
-22.699268
23
0.000000
33
6.082184
0
3DFACE
8
0
10
-22.699268
20
0.200000
30
6.082184
11
-23.500000
21
0.200000
31
0.000000
12
-22.699268
22
0.000000
32
6.082184
13
-22.699268
23
0.000000
33
6.082184
0
3DFACE
8
0
10
16.617010
20
0.000000
30
16.617010
11
-16.617010
21
0.000000
31
16.617010
12
-20.351561
22
0.000000
32
11.750052
13
-20.351561
23
0.000000
33
11.750052
0
3DFACE
8
0
10
-20.351561
20
0.200000
30
11.750052
11
-20.351561
21
0.000000
31
11.750052
12
-16.617010
22
0.000000
32
16.617010
13
-16.617010
23
0.000000
33
16.617010
0
3DFACE
8
0
10
-2.170513
20
0.000000
30
12.310110
11
16.617010
21
0.000000
31
16.617010
12
-20.351561
22
0.000000
32
11.750052
13
-20.351561
23
0.000000
33
11.750052
0
3DFACE
8
0
10
-6.249919
20
0.000000
30
10.825352
11
-2.170513
21
0.000000
31
12.310110
12
-20.351561
22
0.000000
32
11.750052
13
-20.351561
23
0.000000
33
11.750052
0
3DFACE
8
0
10
-20.351561
20
0.200000
30
11.750052
11
-22.699268
21
0.200000
31
6.082184
12
-20.351561
22
0.000000
32
11.750052
13
-20.351561
23
0.000000
33
11.750052
0
3DFACE
8
0
10
-2.377582
20
0.000000
30
20.272284
11
-11.750052
21
0.000000
31
20.351561
12
-16.617010
22
0.000000
32
16.617010
13
-16.617010
23
0.000000
33
16.617010
0
3DFACE
8
0
10
-16.617010
20
0.200000
30
16.617010
11
-16.617010
21
0.000000
31
16.617010
12
-11.750052
22
0.000000
32
20.351561
13
-11.750052
23
0.000000
33
20.351561
0
3DFACE
8
0
10
0.000000
20
0.000000
30
17.000000
11
-16.617010
21
0.000000
31
16.617010
12
16.617010
22
0.000000
32
16.617010
13
16.617010
23
0.000000
33
16.617010
0
3DFACE
8
0
10
-2.377582
20
0.000000
30
18.727716
11
-2.377582
21
0.000000
31
20.272284
12
-16.617010
22
0.000000
32
16.617010
13
-16.617010
23
0.000000
33
16.617010
0
3DFACE
8
0
10
-1.469794
20
0.000000
30
17.477774
11
-2.377582
21
0.000000
31
18.727716
12
-16.617010
22
0.000000
32
16.617010
13
-16.617010
23
0.000000
33
16.617010
0
3DFACE
8
0
10
0.000000
20
0.000000
30
17.000000
11
-1.469794
21
0.000000
31
17.477774
12
-16.617010
22
0.000000
32
16.617010
13
-16.617010
23
0.000000
33
16.617010
0
3DFACE
8
0
10
-16.617010
20
0.200000
30
16.617010
11
-20.351561
21
0.200000
31
11.750052
12
-16.617010
22
0.000000
32
16.617010
13
-16.617010
23
0.000000
33
16.617010
0
3DFACE
8
0
10
0.000000
20
0.000000
30
22.000000
11
-6.082184
21
0.000000
31
22.699268
12
-11.750052
22
0.000000
32
20.351561
13
-11.750052
23
0.000000
33
20.351561
0
3DFACE
8
0
10
-11.750052
20
0.200000
30
20.351561
11
-11.750052
21
0.000000
31
20.351561
12
-6.082184
22
0.000000
32
22.699268
13
-6.082184
23
0.000000
33
22.699268
0
3DFACE
8
0
10
-1.469794
20
0.000000
30
21.522226
11
0.000000
21
0.000000
31
22.000000
12
-11.750052
22
0.000000
32
20.351561
13
-11.750052
23
0.000000
33
20.351561
0
3DFACE
8
0
10
-2.377582
20
0.000000
30
20.272284
11
-1.469794
21
0.000000
31
21.522226
12
-11.750052
22
0.000000
32
20.351561
13
-11.750052
23
0.000000
33
20.351561
0
3DFACE
8
0
10
-11.750052
20
0.200000
30
20.351561
11
-16.617010
21
0.200000
31
16.617010
12
-11.750052
22
0.000000
32
20.351561
13
-11.750052
23
0.000000
33
20.351561
0
3DFACE
8
0
10
6.082184
20
0.000000
30
22.699268
11
0.000000
21
0.000000
31
23.500000
12
-6.082184
22
0.000000
32
22.699268
13
-6.082184
23
0.000000
33
22.699268
0
3DFACE
8
0
10
-6.082184
20
0.200000
30
22.699268
11
-6.082184
21
0.000000
31
22.699268
12
0.000000
22
0.000000
32
23.500000
13
0.000000
23
0.000000
33
23.500000
0
3DFACE
8
0
10
0.000000
20
0.000000
30
22.000000
11
6.082184
21
0.000000
31
22.699268
12
-6.082184
22
0.000000
32
22.699268
13
-6.082184
23
0.000000
33
22.699268
0
3DFACE
8
0
10
-6.082184
20
0.200000
30
22.699268
11
-11.750052
21
0.200000
31
20.351561
12
-6.082184
22
0.000000
32
22.699268
13
-6.082184
23
0.000000
33
22.699268
0
3DFACE
8
0
10
0.000000
20
0.200000
30
23.500000
11
0.000000
21
0.000000
31
23.500000
12
6.082184
22
0.000000
32
22.699268
13
6.082184
23
0.000000
33
22.699268
0
3DFACE
8
0
10
0.000000
20
0.200000
30
23.500000
11
-6.082184
21
0.200000
31
22.699268
12
0.000000
22
0.000000
32
23.500000
13
0.000000
23
0.000000
33
23.500000
0
3DFACE
8
0
10
1.469794
20
0.000000
30
21.522226
11
11.750052
21
0.000000
31
20.351561
12
6.082184
22
0.000000
32
22.699268
13
6.082184
23
0.000000
33
22.699268
0
3DFACE
8
0
10
6.082184
20
0.200000
30
22.699268
11
6.082184
21
0.000000
31
22.699268
12
11.750052
22
0.000000
32
20.351561
13
11.750052
23
0.000000
33
20.351561
0
3DFACE
8
0
10
1.469794
20
0.000000
30
21.522226
11
6.082184
21
0.000000
31
22.699268
12
0.000000
22
0.000000
32
22.000000
13
0.000000
23
0.000000
33
22.000000
0
3DFACE
8
0
10
6.082184
20
0.200000
30
22.699268
11
0.000000
21
0.200000
31
23.500000
12
6.082184
22
0.000000
32
22.699268
13
6.082184
23
0.000000
33
22.699268
0
3DFACE
8
0
10
0.000000
20
0.000000
30
17.000000
11
16.617010
21
0.000000
31
16.617010
12
11.750052
22
0.000000
32
20.351561
13
11.750052
23
0.000000
33
20.351561
0
3DFACE
8
0
10
11.750052
20
0.200000
30
20.351561
11
11.750052
21
0.000000
31
20.351561
12
16.617010
22
0.000000
32
16.617010
13
16.617010
23
0.000000
33
16.617010
0
3DFACE
8
0
10
1.469794
20
0.000000
30
17.477774
11
0.000000
21
0.000000
31
17.000000
12
11.750052
22
0.000000
32
20.351561
13
11.750052
23
0.000000
33
20.351561
0
3DFACE
8
0
10
2.377582
20
0.000000
30
18.727716
11
1.469794
21
0.000000
31
17.477774
12
11.750052
22
0.000000
32
20.351561
13
11.750052
23
0.000000
33
20.351561
0
3DFACE
8
0
10
2.377582
20
0.000000
30
20.272284
11
2.377582
21
0.000000
31
18.727716
12
11.750052
22
0.000000
32
20.351561
13
11.750052
23
0.000000
33
20.351561
0
3DFACE
8
0
10
1.469794
20
0.000000
30
21.522226
11
2.377582
21
0.000000
31
20.272284
12
11.750052
22
0.000000
32
20.351561
13
11.750052
23
0.000000
33
20.351561
0
3DFACE
8
0
10
11.750052
20
0.200000
30
20.351561
11
6.082184
21
0.200000
31
22.699268
12
11.750052
22
0.000000
32
20.351561
13
11.750052
23
0.000000
33
20.351561
0
3DFACE
8
0
10
2.170513
20
0.000000
30
12.310110
11
20.351561
21
0.000000
31
11.750052
12
16.617010
22
0.000000
32
16.617010
13
16.617010
23
0.000000
33
16.617010
0
3DFACE
8
0
10
16.617010
20
0.200000
30
16.617010
11
16.617010
21
0.000000
31
16.617010
12
20.351561
22
0.000000
32
11.750052
13
20.351561
23
0.000000
33
11.750052
0
3DFACE
8
0
10
-2.170513
20
0.000000
30
12.310110
11
2.170513
21
0.000000
31
12.310110
12
16.617010
22
0.000000
32
16.617010
13
16.617010
23
0.000000
33
16.617010
0
3DFACE
8
0
10
16.617010
20
0.200000
30
16.617010
11
11.750052
21
0.200000
31
20.351561
12
16.617010
22
0.000000
32
16.617010
13
16.617010
23
0.000000
33
16.617010
0
3DFACE
8
0
10
9.575566
20
0.000000
30
8.034812
11
22.699268
21
0.000000
31
6.082184
12
20.351561
22
0.000000
32
11.750052
13
20.351561
23
0.000000
33
11.750052
0
3DFACE
8
0
10
20.351561
20
0.200000
30
11.750052
11
20.351561
21
0.000000
31
11.750052
12
22.699268
22
0.000000
32
6.082184
13
22.699268
23
0.000000
33
6.082184
0
3DFACE
8
0
10
6.249919
20
0.000000
30
10.825352
11
9.575566
21
0.000000
31
8.034812
12
20.351561
22
0.000000
32
11.750052
13
20.351561
23
0.000000
33
11.750052
0
3DFACE
8
0
10
2.170513
20
0.000000
30
12.310110
11
6.249919
21
0.000000
31
10.825352
12
20.351561
22
0.000000
32
11.750052
13
20.351561
23
0.000000
33
11.750052
0
3DFACE
8
0
10
20.351561
20
0.200000
30
11.750052
11
16.617010
21
0.200000
31
16.617010
12
20.351561
22
0.000000
32
11.750052
13
20.351561
23
0.000000
33
11.750052
0
3DFACE
8
0
10
9.575566
20
0.000000
30
8.034812
11
11.746190
21
0.000000
31
4.275143
12
22.699268
22
0.000000
32
6.082184
13
22.699268
23
0.000000
33
6.082184
0
3DFACE
8
0
10
18.727716
20
0.000000
30
2.377582
11
22.699268
21
0.000000
31
6.082184
12
11.746190
22
0.000000
32
4.275143
13
11.746190
23
0.000000
33
4.275143
0
3DFACE
8
0
10
21.522226
20
0.000000
30
1.469794
11
22.000000
21
0.000000
31
0.000000
12
22.699268
22
0.000000
32
6.082184
13
22.699268
23
0.000000
33
6.082184
0
3DFACE
8
0
10
20.272284
20
0.000000
30
2.377582
11
21.522226
21
0.000000
31
1.469794
12
22.699268
22
0.000000
32
6.082184
13
22.699268
23
0.000000
33
6.082184
0
3DFACE
8
0
10
18.727716
20
0.000000
30
2.377582
11
20.272284
21
0.000000
31
2.377582
12
22.699268
22
0.000000
32
6.082184
13
22.699268
23
0.000000
33
6.082184
0
3DFACE
8
0
10
22.699268
20
0.200000
30
6.082184
11
20.351561
21
0.200000
31
11.750052
12
22.699268
22
0.000000
32
6.082184
13
22.699268
23
0.000000
33
6.082184
0
3DFACE
8
0
10
18.727716
20
0.000000
30
2.377582
11
11.746190
21
0.000000
31
4.275143
12
12.500000
22
0.000000
32
0.000000
13
12.500000
23
0.000000
33
0.000000
0
3DFACE
8
0
10
12.500000
20
0.200000
30
0.000000
11
12.500000
21
0.000000
31
0.000000
12
11.746190
22
0.000000
32
4.275143
13
11.746190
23
0.000000
33
4.275143
0
3DFACE
8
0
10
17.000000
20
0.000000
30
-0.000000
11
12.500000
21
0.000000
31
0.000000
12
11.746190
22
0.000000
32
-4.275143
13
11.746190
23
0.000000
33
-4.275143
0
3DFACE
8
0
10
11.746190
20
0.200000
30
-4.275143
11
11.746190
21
0.000000
31
-4.275143
12
12.500000
22
0.000000
32
0.000000
13
12.500000
23
0.000000
33
0.000000
0
3DFACE
8
0
10
17.477774
20
0.000000
30
1.469794
11
18.727716
21
0.000000
31
2.377582
12
12.500000
22
0.000000
32
0.000000
13
12.500000
23
0.000000
33
0.000000
0
3DFACE
8
0
10
17.000000
20
0.000000
30
-0.000000
11
17.477774
21
0.000000
31
1.469794
12
12.500000
22
0.000000
32
0.000000
13
12.500000
23
0.000000
33
0.000000
0
3DFACE
8
0
10
11.746190
20
0.200000
30
-4.275143
11
12.500000
21
0.000000
31
0.000000
12
12.500000
22
0.200000
32
0.000000
13
12.500000
23
0.200000
33
0.000000
0
3DFACE
8
0
10
11.746190
20
0.200000
30
4.275143
11
11.746190
21
0.000000
31
4.275143
12
9.575566
22
0.000000
32
8.034812
13
9.575566
23
0.000000
33
8.034812
0
3DFACE
8
0
10
11.746190
20
0.200000
30
4.275143
11
12.500000
21
0.200000
31
0.000000
12
11.746190
22
0.000000
32
4.275143
13
11.746190
23
0.000000
33
4.275143
0
3DFACE
8
0
10
9.575566
20
0.200000
30
8.034812
11
9.575566
21
0.000000
31
8.034812
12
6.249919
22
0.000000
32
10.825352
13
6.249919
23
0.000000
33
10.825352
0
3DFACE
8
0
10
11.746190
20
0.200000
30
4.275143
11
9.575566
21
0.000000
31
8.034812
12
9.575566
22
0.200000
32
8.034812
13
9.575566
23
0.200000
33
8.034812
0
3DFACE
8
0
10
6.249919
20
0.200000
30
10.825352
11
6.249919
21
0.000000
31
10.825352
12
2.170513
22
0.000000
32
12.310110
13
2.170513
23
0.000000
33
12.310110
0
3DFACE
8
0
10
9.575566
20
0.200000
30
8.034812
11
6.249919
21
0.000000
31
10.825352
12
6.249919
22
0.200000
32
10.825352
13
6.249919
23
0.200000
33
10.825352
0
3DFACE
8
0
10
2.170513
20
0.200000
30
12.310110
11
2.170513
21
0.000000
31
12.310110
12
-2.170513
22
0.000000
32
12.310110
13
-2.170513
23
0.000000
33
12.310110
0
3DFACE
8
0
10
6.249919
20
0.200000
30
10.825352
11
2.170513
21
0.000000
31
12.310110
12
2.170513
22
0.200000
32
12.310110
13
2.170513
23
0.200000
33
12.310110
0
3DFACE
8
0
10
-2.170513
20
0.200000
30
12.310110
11
-2.170513
21
0.000000
31
12.310110
12
-6.249919
22
0.000000
32
10.825352
13
-6.249919
23
0.000000
33
10.825352
0
3DFACE
8
0
10
2.170513
20
0.200000
30
12.310110
11
-2.170513
21
0.000000
31
12.310110
12
-2.170513
22
0.200000
32
12.310110
13
-2.170513
23
0.200000
33
12.310110
0
3DFACE
8
0
10
-6.249919
20
0.200000
30
10.825352
11
-6.249919
21
0.000000
31
10.825352
12
-9.575566
22
0.000000
32
8.034812
13
-9.575566
23
0.000000
33
8.034812
0
3DFACE
8
0
10
-2.170513
20
0.200000
30
12.310110
11
-6.249919
21
0.000000
31
10.825352
12
-6.249919
22
0.200000
32
10.825352
13
-6.249919
23
0.200000
33
10.825352
0
3DFACE
8
0
10
-9.575566
20
0.200000
30
8.034812
11
-9.575566
21
0.000000
31
8.034812
12
-11.746190
22
0.000000
32
4.275143
13
-11.746190
23
0.000000
33
4.275143
0
3DFACE
8
0
10
-6.249919
20
0.200000
30
10.825352
11
-9.575566
21
0.000000
31
8.034812
12
-9.575566
22
0.200000
32
8.034812
13
-9.575566
23
0.200000
33
8.034812
0
3DFACE
8
0
10
-17.000000
20
0.000000
30
0.000000
11
-12.500000
21
0.000000
31
0.000000
12
-11.746190
22
0.000000
32
4.275143
13
-11.746190
23
0.000000
33
4.275143
0
3DFACE
8
0
10
-11.746190
20
0.200000
30
4.275143
11
-11.746190
21
0.000000
31
4.275143
12
-12.500000
22
0.000000
32
0.000000
13
-12.500000
23
0.000000
33
0.000000
0
3DFACE
8
0
10
-17.477774
20
0.000000
30
1.469794
11
-17.000000
21
0.000000
31
0.000000
12
-11.746190
22
0.000000
32
4.275143
13
-11.746190
23
0.000000
33
4.275143
0
3DFACE
8
0
10
-18.727716
20
0.000000
30
2.377582
11
-17.477774
21
0.000000
31
1.469794
12
-11.746190
22
0.000000
32
4.275143
13
-11.746190
23
0.000000
33
4.275143
0
3DFACE
8
0
10
-20.272284
20
0.000000
30
2.377582
11
-18.727716
21
0.000000
31
2.377582
12
-11.746190
22
0.000000
32
4.275143
13
-11.746190
23
0.000000
33
4.275143
0
3DFACE
8
0
10
-9.575566
20
0.200000
30
8.034812
11
-11.746190
21
0.000000
31
4.275143
12
-11.746190
22
0.200000
32
4.275143
13
-11.746190
23
0.200000
33
4.275143
0
3DFACE
8
0
10
-18.727716
20
0.000000
30
-2.377582
11
-11.746190
21
0.000000
31
-4.275143
12
-12.500000
22
0.000000
32
0.000000
13
-12.500000
23
0.000000
33
0.000000
0
3DFACE
8
0
10
-12.500000
20
0.200000
30
0.000000
11
-12.500000
21
0.000000
31
0.000000
12
-11.746190
22
0.000000
32
-4.275143
13
-11.746190
23
0.000000
33
-4.275143
0
3DFACE
8
0
10
-17.477774
20
0.000000
30
-1.469794
11
-18.727716
21
0.000000
31
-2.377582
12
-12.500000
22
0.000000
32
0.000000
13
-12.500000
23
0.000000
33
0.000000
0
3DFACE
8
0
10
-17.000000
20
0.000000
30
0.000000
11
-17.477774
21
0.000000
31
-1.469794
12
-12.500000
22
0.000000
32
0.000000
13
-12.500000
23
0.000000
33
0.000000
0
3DFACE
8
0
10
-11.746190
20
0.200000
30
4.275143
11
-12.500000
21
0.000000
31
0.000000
12
-12.500000
22
0.200000
32
0.000000
13
-12.500000
23
0.200000
33
0.000000
0
3DFACE
8
0
10
-11.746190
20
0.200000
30
-4.275143
11
-11.746190
21
0.000000
31
-4.275143
12
-9.575566
22
0.000000
32
-8.034812
13
-9.575566
23
0.000000
33
-8.034812
0
3DFACE
8
0
10
-12.500000
20
0.200000
30
0.000000
11
-11.746190
21
0.000000
31
-4.275143
12
-11.746190
22
0.200000
32
-4.275143
13
-11.746190
23
0.200000
33
-4.275143
0
3DFACE
8
0
10
-9.575566
20
0.200000
30
-8.034812
11
-9.575566
21
0.000000
31
-8.034812
12
-6.249919
22
0.000000
32
-10.825352
13
-6.249919
23
0.000000
33
-10.825352
0
3DFACE
8
0
10
-11.746190
20
0.200000
30
-4.275143
11
-9.575566
21
0.000000
31
-8.034812
12
-9.575566
22
0.200000
32
-8.034812
13
-9.575566
23
0.200000
33
-8.034812
0
3DFACE
8
0
10
-6.249919
20
0.200000
30
-10.825352
11
-6.249919
21
0.000000
31
-10.825352
12
-2.170513
22
0.000000
32
-12.310110
13
-2.170513
23
0.000000
33
-12.310110
0
3DFACE
8
0
10
-9.575566
20
0.200000
30
-8.034812
11
-6.249919
21
0.000000
31
-10.825352
12
-6.249919
22
0.200000
32
-10.825352
13
-6.249919
23
0.200000
33
-10.825352
0
3DFACE
8
0
10
-2.170513
20
0.200000
30
-12.310110
11
-2.170513
21
0.000000
31
-12.310110
12
2.170513
22
0.000000
32
-12.310110
13
2.170513
23
0.000000
33
-12.310110
0
3DFACE
8
0
10
-6.249919
20
0.200000
30
-10.825352
11
-2.170513
21
0.000000
31
-12.310110
12
-2.170513
22
0.200000
32
-12.310110
13
-2.170513
23
0.200000
33
-12.310110
0
3DFACE
8
0
10
2.170513
20
0.200000
30
-12.310110
11
2.170513
21
0.000000
31
-12.310110
12
6.249919
22
0.000000
32
-10.825352
13
6.249919
23
0.000000
33
-10.825352
0
3DFACE
8
0
10
-2.170513
20
0.200000
30
-12.310110
11
2.170513
21
0.000000
31
-12.310110
12
2.170513
22
0.200000
32
-12.310110
13
2.170513
23
0.200000
33
-12.310110
0
3DFACE
8
0
10
6.249919
20
0.200000
30
-10.825352
11
6.249919
21
0.000000
31
-10.825352
12
9.575566
22
0.000000
32
-8.034812
13
9.575566
23
0.000000
33
-8.034812
0
3DFACE
8
0
10
2.170513
20
0.200000
30
-12.310110
11
6.249919
21
0.000000
31
-10.825352
12
6.249919
22
0.200000
32
-10.825352
13
6.249919
23
0.200000
33
-10.825352
0
3DFACE
8
0
10
9.575566
20
0.200000
30
-8.034812
11
9.575566
21
0.000000
31
-8.034812
12
11.746190
22
0.000000
32
-4.275143
13
11.746190
23
0.000000
33
-4.275143
0
3DFACE
8
0
10
6.249919
20
0.200000
30
-10.825352
11
9.575566
21
0.000000
31
-8.034812
12
9.575566
22
0.200000
32
-8.034812
13
9.575566
23
0.200000
33
-8.034812
0
3DFACE
8
0
10
17.477774
20
0.000000
30
-1.469794
11
17.000000
21
0.000000
31
-0.000000
12
11.746190
22
0.000000
32
-4.275143
13
11.746190
23
0.000000
33
-4.275143
0
3DFACE
8
0
10
18.727716
20
0.000000
30
-2.377582
11
17.477774
21
0.000000
31
-1.469794
12
11.746190
22
0.000000
32
-4.275143
13
11.746190
23
0.000000
33
-4.275143
0
3DFACE
8
0
10
20.272284
20
0.000000
30
-2.377582
11
18.727716
21
0.000000
31
-2.377582
12
11.746190
22
0.000000
32
-4.275143
13
11.746190
23
0.000000
33
-4.275143
0
3DFACE
8
0
10
9.575566
20
0.200000
30
-8.034812
11
11.746190
21
0.000000
31
-4.275143
12
11.746190
22
0.200000
32
-4.275143
13
11.746190
23
0.200000
33
-4.275143
0
3DFACE
8
0
10
22.000000
20
0.200000
30
0.000000
11
22.000000
21
0.000000
31
0.000000
12
21.522226
22
0.000000
32
1.469794
13
21.522226
23
0.000000
33
1.469794
0
3DFACE
8
0
10
21.522226
20
0.200000
30
-1.469794
11
21.522226
21
0.000000
31
-1.469794
12
22.000000
22
0.000000
32
0.000000
13
22.000000
23
0.000000
33
0.000000
0
3DFACE
8
0
10
21.522226
20
0.200000
30
-1.469794
11
22.000000
21
0.000000
31
0.000000
12
22.000000
22
0.200000
32
0.000000
13
22.000000
23
0.200000
33
0.000000
0
3DFACE
8
0
10
21.522226
20
0.200000
30
1.469794
11
21.522226
21
0.000000
31
1.469794
12
20.272284
22
0.000000
32
2.377582
13
20.272284
23
0.000000
33
2.377582
0
3DFACE
8
0
10
21.522226
20
0.200000
30
1.469794
11
22.000000
21
0.200000
31
0.000000
12
21.522226
22
0.000000
32
1.469794
13
21.522226
23
0.000000
33
1.469794
0
3DFACE
8
0
10
20.272284
20
0.200000
30
2.377582
11
20.272284
21
0.000000
31
2.377582
12
18.727716
22
0.000000
32
2.377582
13
18.727716
23
0.000000
33
2.377582
0
3DFACE
8
0
10
21.522226
20
0.200000
30
1.469794
11
20.272284
21
0.000000
31
2.377582
12
20.272284
22
0.200000
32
2.377582
13
20.272284
23
0.200000
33
2.377582
0
3DFACE
8
0
10
18.727716
20
0.200000
30
2.377582
11
18.727716
21
0.000000
31
2.377582
12
17.477774
22
0.000000
32
1.469794
13
17.477774
23
0.000000
33
1.469794
0
3DFACE
8
0
10
20.272284
20
0.200000
30
2.377582
11
18.727716
21
0.000000
31
2.377582
12
18.727716
22
0.200000
32
2.377582
13
18.727716
23
0.200000
33
2.377582
0
3DFACE
8
0
10
17.477774
20
0.200000
30
1.469794
11
17.477774
21
0.000000
31
1.469794
12
17.000000
22
0.000000
32
-0.000000
13
17.000000
23
0.000000
33
-0.000000
0
3DFACE
8
0
10
18.727716
20
0.200000
30
2.377582
11
17.477774
21
0.000000
31
1.469794
12
17.477774
22
0.200000
32
1.469794
13
17.477774
23
0.200000
33
1.469794
0
3DFACE
8
0
10
17.000000
20
0.200000
30
-0.000000
11
17.000000
21
0.000000
31
-0.000000
12
17.477774
22
0.000000
32
-1.469794
13
17.477774
23
0.000000
33
-1.469794
0
3DFACE
8
0
10
17.477774
20
0.200000
30
1.469794
11
17.000000
21
0.000000
31
-0.000000
12
17.000000
22
0.200000
32
-0.000000
13
17.000000
23
0.200000
33
-0.000000
0
3DFACE
8
0
10
17.477774
20
0.200000
30
-1.469794
11
17.477774
21
0.000000
31
-1.469794
12
18.727716
22
0.000000
32
-2.377582
13
18.727716
23
0.000000
33
-2.377582
0
3DFACE
8
0
10
17.000000
20
0.200000
30
-0.000000
11
17.477774
21
0.000000
31
-1.469794
12
17.477774
22
0.200000
32
-1.469794
13
17.477774
23
0.200000
33
-1.469794
0
3DFACE
8
0
10
18.727716
20
0.200000
30
-2.377582
11
18.727716
21
0.000000
31
-2.377582
12
20.272284
22
0.000000
32
-2.377582
13
20.272284
23
0.000000
33
-2.377582
0
3DFACE
8
0
10
17.477774
20
0.200000
30
-1.469794
11
18.727716
21
0.000000
31
-2.377582
12
18.727716
22
0.200000
32
-2.377582
13
18.727716
23
0.200000
33
-2.377582
0
3DFACE
8
0
10
20.272284
20
0.200000
30
-2.377582
11
20.272284
21
0.000000
31
-2.377582
12
21.522226
22
0.000000
32
-1.469794
13
21.522226
23
0.000000
33
-1.469794
0
3DFACE
8
0
10
18.727716
20
0.200000
30
-2.377582
11
20.272284
21
0.000000
31
-2.377582
12
20.272284
22
0.200000
32
-2.377582
13
20.272284
23
0.200000
33
-2.377582
0
3DFACE
8
0
10
20.272284
20
0.200000
30
-2.377582
11
21.522226
21
0.000000
31
-1.469794
12
21.522226
22
0.200000
32
-1.469794
13
21.522226
23
0.200000
33
-1.469794
0
3DFACE
8
0
10
0.000000
20
0.200000
30
22.000000
11
0.000000
21
0.000000
31
22.000000
12
-1.469794
22
0.000000
32
21.522226
13
-1.469794
23
0.000000
33
21.522226
0
3DFACE
8
0
10
1.469794
20
0.200000
30
21.522226
11
1.469794
21
0.000000
31
21.522226
12
0.000000
22
0.000000
32
22.000000
13
0.000000
23
0.000000
33
22.000000
0
3DFACE
8
0
10
1.469794
20
0.200000
30
21.522226
11
0.000000
21
0.000000
31
22.000000
12
0.000000
22
0.200000
32
22.000000
13
0.000000
23
0.200000
33
22.000000
0
3DFACE
8
0
10
-1.469794
20
0.200000
30
21.522226
11
-1.469794
21
0.000000
31
21.522226
12
-2.377582
22
0.000000
32
20.272284
13
-2.377582
23
0.000000
33
20.272284
0
3DFACE
8
0
10
-1.469794
20
0.200000
30
21.522226
11
0.000000
21
0.200000
31
22.000000
12
-1.469794
22
0.000000
32
21.522226
13
-1.469794
23
0.000000
33
21.522226
0
3DFACE
8
0
10
-2.377582
20
0.200000
30
20.272284
11
-2.377582
21
0.000000
31
20.272284
12
-2.377582
22
0.000000
32
18.727716
13
-2.377582
23
0.000000
33
18.727716
0
3DFACE
8
0
10
-1.469794
20
0.200000
30
21.522226
11
-2.377582
21
0.000000
31
20.272284
12
-2.377582
22
0.200000
32
20.272284
13
-2.377582
23
0.200000
33
20.272284
0
3DFACE
8
0
10
-2.377582
20
0.200000
30
18.727716
11
-2.377582
21
0.000000
31
18.727716
12
-1.469794
22
0.000000
32
17.477774
13
-1.469794
23
0.000000
33
17.477774
0
3DFACE
8
0
10
-2.377582
20
0.200000
30
20.272284
11
-2.377582
21
0.000000
31
18.727716
12
-2.377582
22
0.200000
32
18.727716
13
-2.377582
23
0.200000
33
18.727716
0
3DFACE
8
0
10
-1.469794
20
0.200000
30
17.477774
11
-1.469794
21
0.000000
31
17.477774
12
0.000000
22
0.000000
32
17.000000
13
0.000000
23
0.000000
33
17.000000
0
3DFACE
8
0
10
-2.377582
20
0.200000
30
18.727716
11
-1.469794
21
0.000000
31
17.477774
12
-1.469794
22
0.200000
32
17.477774
13
-1.469794
23
0.200000
33
17.477774
0
3DFACE
8
0
10
0.000000
20
0.200000
30
17.000000
11
0.000000
21
0.000000
31
17.000000
12
1.469794
22
0.000000
32
17.477774
13
1.469794
23
0.000000
33
17.477774
0
3DFACE
8
0
10
-1.469794
20
0.200000
30
17.477774
11
0.000000
21
0.000000
31
17.000000
12
0.000000
22
0.200000
32
17.000000
13
0.000000
23
0.200000
33
17.000000
0
3DFACE
8
0
10
1.469794
20
0.200000
30
17.477774
11
1.469794
21
0.000000
31
17.477774
12
2.377582
22
0.000000
32
18.727716
13
2.377582
23
0.000000
33
18.727716
0
3DFACE
8
0
10
0.000000
20
0.200000
30
17.000000
11
1.469794
21
0.000000
31
17.477774
12
1.469794
22
0.200000
32
17.477774
13
1.469794
23
0.200000
33
17.477774
0
3DFACE
8
0
10
2.377582
20
0.200000
30
18.727716
11
2.377582
21
0.000000
31
18.727716
12
2.377582
22
0.000000
32
20.272284
13
2.377582
23
0.000000
33
20.272284
0
3DFACE
8
0
10
1.469794
20
0.200000
30
17.477774
11
2.377582
21
0.000000
31
18.727716
12
2.377582
22
0.200000
32
18.727716
13
2.377582
23
0.200000
33
18.727716
0
3DFACE
8
0
10
2.377582
20
0.200000
30
20.272284
11
2.377582
21
0.000000
31
20.272284
12
1.469794
22
0.000000
32
21.522226
13
1.469794
23
0.000000
33
21.522226
0
3DFACE
8
0
10
2.377582
20
0.200000
30
18.727716
11
2.377582
21
0.000000
31
20.272284
12
2.377582
22
0.200000
32
20.272284
13
2.377582
23
0.200000
33
20.272284
0
3DFACE
8
0
10
2.377582
20
0.200000
30
20.272284
11
1.469794
21
0.000000
31
21.522226
12
1.469794
22
0.200000
32
21.522226
13
1.469794
23
0.200000
33
21.522226
0
3DFACE
8
0
10
-22.000000
20
0.200000
30
0.000000
11
-22.000000
21
0.000000
31
0.000000
12
-21.522226
22
0.000000
32
-1.469794
13
-21.522226
23
0.000000
33
-1.469794
0
3DFACE
8
0
10
-21.522226
20
0.200000
30
1.469794
11
-21.522226
21
0.000000
31
1.469794
12
-22.000000
22
0.000000
32
0.000000
13
-22.000000
23
0.000000
33
0.000000
0
3DFACE
8
0
10
-21.522226
20
0.200000
30
1.469794
11
-22.000000
21
0.000000
31
0.000000
12
-22.000000
22
0.200000
32
0.000000
13
-22.000000
23
0.200000
33
0.000000
0
3DFACE
8
0
10
-21.522226
20
0.200000
30
-1.469794
11
-21.522226
21
0.000000
31
-1.469794
12
-20.272284
22
0.000000
32
-2.377582
13
-20.272284
23
0.000000
33
-2.377582
0
3DFACE
8
0
10
-21.522226
20
0.200000
30
-1.469794
11
-22.000000
21
0.200000
31
0.000000
12
-21.522226
22
0.000000
32
-1.469794
13
-21.522226
23
0.000000
33
-1.469794
0
3DFACE
8
0
10
-20.272284
20
0.200000
30
-2.377582
11
-20.272284
21
0.000000
31
-2.377582
12
-18.727716
22
0.000000
32
-2.377582
13
-18.727716
23
0.000000
33
-2.377582
0
3DFACE
8
0
10
-21.522226
20
0.200000
30
-1.469794
11
-20.272284
21
0.000000
31
-2.377582
12
-20.272284
22
0.200000
32
-2.377582
13
-20.272284
23
0.200000
33
-2.377582
0
3DFACE
8
0
10
-18.727716
20
0.200000
30
-2.377582
11
-18.727716
21
0.000000
31
-2.377582
12
-17.477774
22
0.000000
32
-1.469794
13
-17.477774
23
0.000000
33
-1.469794
0
3DFACE
8
0
10
-20.272284
20
0.200000
30
-2.377582
11
-18.727716
21
0.000000
31
-2.377582
12
-18.727716
22
0.200000
32
-2.377582
13
-18.727716
23
0.200000
33
-2.377582
0
3DFACE
8
0
10
-17.477774
20
0.200000
30
-1.469794
11
-17.477774
21
0.000000
31
-1.469794
12
-17.000000
22
0.000000
32
0.000000
13
-17.000000
23
0.000000
33
0.000000
0
3DFACE
8
0
10
-18.727716
20
0.200000
30
-2.377582
11
-17.477774
21
0.000000
31
-1.469794
12
-17.477774
22
0.200000
32
-1.469794
13
-17.477774
23
0.200000
33
-1.469794
0
3DFACE
8
0
10
-17.000000
20
0.200000
30
0.000000
11
-17.000000
21
0.000000
31
0.000000
12
-17.477774
22
0.000000
32
1.469794
13
-17.477774
23
0.000000
33
1.469794
0
3DFACE
8
0
10
-17.477774
20
0.200000
30
-1.469794
11
-17.000000
21
0.000000
31
0.000000
12
-17.000000
22
0.200000
32
0.000000
13
-17.000000
23
0.200000
33
0.000000
0
3DFACE
8
0
10
-17.477774
20
0.200000
30
1.469794
11
-17.477774
21
0.000000
31
1.469794
12
-18.727716
22
0.000000
32
2.377582
13
-18.727716
23
0.000000
33
2.377582
0
3DFACE
8
0
10
-17.000000
20
0.200000
30
0.000000
11
-17.477774
21
0.000000
31
1.469794
12
-17.477774
22
0.200000
32
1.469794
13
-17.477774
23
0.200000
33
1.469794
0
3DFACE
8
0
10
-18.727716
20
0.200000
30
2.377582
11
-18.727716
21
0.000000
31
2.377582
12
-20.272284
22
0.000000
32
2.377582
13
-20.272284
23
0.000000
33
2.377582
0
3DFACE
8
0
10
-17.477774
20
0.200000
30
1.469794
11
-18.727716
21
0.000000
31
2.377582
12
-18.727716
22
0.200000
32
2.377582
13
-18.727716
23
0.200000
33
2.377582
0
3DFACE
8
0
10
-20.272284
20
0.200000
30
2.377582
11
-20.272284
21
0.000000
31
2.377582
12
-21.522226
22
0.000000
32
1.469794
13
-21.522226
23
0.000000
33
1.469794
0
3DFACE
8
0
10
-18.727716
20
0.200000
30
2.377582
11
-20.272284
21
0.000000
31
2.377582
12
-20.272284
22
0.200000
32
2.377582
13
-20.272284
23
0.200000
33
2.377582
0
3DFACE
8
0
10
-20.272284
20
0.200000
30
2.377582
11
-21.522226
21
0.000000
31
1.469794
12
-21.522226
22
0.200000
32
1.469794
13
-21.522226
23
0.200000
33
1.469794
0
3DFACE
8
0
10
-22.000000
20
0.200000
30
0.000000
11
-23.500000
21
0.200000
31
0.000000
12
-22.699268
22
0.200000
32
6.082184
13
-22.699268
23
0.200000
33
6.082184
0
3DFACE
8
0
10
-21.522226
20
0.200000
30
-1.469794
11
-22.699268
21
0.200000
31
-6.082184
12
-23.500000
22
0.200000
32
0.000000
13
-23.500000
23
0.200000
33
0.000000
0
3DFACE
8
0
10
-21.522226
20
0.200000
30
-1.469794
11
-23.500000
21
0.200000
31
0.000000
12
-22.000000
22
0.200000
32
0.000000
13
-22.000000
23
0.200000
33
0.000000
0
3DFACE
8
0
10
-9.575566
20
0.200000
30
8.034812
11
-22.699268
21
0.200000
31
6.082184
12
-20.351561
22
0.200000
32
11.750052
13
-20.351561
23
0.200000
33
11.750052
0
3DFACE
8
0
10
-9.575566
20
0.200000
30
8.034812
11
-11.746190
21
0.200000
31
4.275143
12
-22.699268
22
0.200000
32
6.082184
13
-22.699268
23
0.200000
33
6.082184
0
3DFACE
8
0
10
-18.727716
20
0.200000
30
2.377582
11
-22.699268
21
0.200000
31
6.082184
12
-11.746190
22
0.200000
32
4.275143
13
-11.746190
23
0.200000
33
4.275143
0
3DFACE
8
0
10
-21.522226
20
0.200000
30
1.469794
11
-22.000000
21
0.200000
31
0.000000
12
-22.699268
22
0.200000
32
6.082184
13
-22.699268
23
0.200000
33
6.082184
0
3DFACE
8
0
10
-20.272284
20
0.200000
30
2.377582
11
-21.522226
21
0.200000
31
1.469794
12
-22.699268
22
0.200000
32
6.082184
13
-22.699268
23
0.200000
33
6.082184
0
3DFACE
8
0
10
-18.727716
20
0.200000
30
2.377582
11
-20.272284
21
0.200000
31
2.377582
12
-22.699268
22
0.200000
32
6.082184
13
-22.699268
23
0.200000
33
6.082184
0
3DFACE
8
0
10
-2.170513
20
0.200000
30
12.310110
11
-20.351561
21
0.200000
31
11.750052
12
-16.617010
22
0.200000
32
16.617010
13
-16.617010
23
0.200000
33
16.617010
0
3DFACE
8
0
10
-6.249919
20
0.200000
30
10.825352
11
-9.575566
21
0.200000
31
8.034812
12
-20.351561
22
0.200000
32
11.750052
13
-20.351561
23
0.200000
33
11.750052
0
3DFACE
8
0
10
-2.170513
20
0.200000
30
12.310110
11
-6.249919
21
0.200000
31
10.825352
12
-20.351561
22
0.200000
32
11.750052
13
-20.351561
23
0.200000
33
11.750052
0
3DFACE
8
0
10
0.000000
20
0.200000
30
17.000000
11
-16.617010
21
0.200000
31
16.617010
12
-11.750052
22
0.200000
32
20.351561
13
-11.750052
23
0.200000
33
20.351561
0
3DFACE
8
0
10
20.351561
20
0.200000
30
11.750052
11
-16.617010
21
0.200000
31
16.617010
12
16.617010
22
0.200000
32
16.617010
13
16.617010
23
0.200000
33
16.617010
0
3DFACE
8
0
10
0.000000
20
0.200000
30
17.000000
11
16.617010
21
0.200000
31
16.617010
12
-16.617010
22
0.200000
32
16.617010
13
-16.617010
23
0.200000
33
16.617010
0
3DFACE
8
0
10
2.170513
20
0.200000
30
12.310110
11
-16.617010
21
0.200000
31
16.617010
12
20.351561
22
0.200000
32
11.750052
13
20.351561
23
0.200000
33
11.750052
0
3DFACE
8
0
10
2.170513
20
0.200000
30
12.310110
11
-2.170513
21
0.200000
31
12.310110
12
-16.617010
22
0.200000
32
16.617010
13
-16.617010
23
0.200000
33
16.617010
0
3DFACE
8
0
10
-1.469794
20
0.200000
30
21.522226
11
-11.750052
21
0.200000
31
20.351561
12
-6.082184
22
0.200000
32
22.699268
13
-6.082184
23
0.200000
33
22.699268
0
3DFACE
8
0
10
-1.469794
20
0.200000
30
17.477774
11
0.000000
21
0.200000
31
17.000000
12
-11.750052
22
0.200000
32
20.351561
13
-11.750052
23
0.200000
33
20.351561
0
3DFACE
8
0
10
-2.377582
20
0.200000
30
18.727716
11
-1.469794
21
0.200000
31
17.477774
12
-11.750052
22
0.200000
32
20.351561
13
-11.750052
23
0.200000
33
20.351561
0
3DFACE
8
0
10
-2.377582
20
0.200000
30
20.272284
11
-2.377582
21
0.200000
31
18.727716
12
-11.750052
22
0.200000
32
20.351561
13
-11.750052
23
0.200000
33
20.351561
0
3DFACE
8
0
10
-1.469794
20
0.200000
30
21.522226
11
-2.377582
21
0.200000
31
20.272284
12
-11.750052
22
0.200000
32
20.351561
13
-11.750052
23
0.200000
33
20.351561
0
3DFACE
8
0
10
6.082184
20
0.200000
30
22.699268
11
-6.082184
21
0.200000
31
22.699268
12
0.000000
22
0.200000
32
23.500000
13
0.000000
23
0.200000
33
23.500000
0
3DFACE
8
0
10
0.000000
20
0.200000
30
22.000000
11
-6.082184
21
0.200000
31
22.699268
12
6.082184
22
0.200000
32
22.699268
13
6.082184
23
0.200000
33
22.699268
0
3DFACE
8
0
10
-1.469794
20
0.200000
30
21.522226
11
-6.082184
21
0.200000
31
22.699268
12
0.000000
22
0.200000
32
22.000000
13
0.000000
23
0.200000
33
22.000000
0
3DFACE
8
0
10
0.000000
20
0.200000
30
22.000000
11
6.082184
21
0.200000
31
22.699268
12
11.750052
22
0.200000
32
20.351561
13
11.750052
23
0.200000
33
20.351561
0
3DFACE
8
0
10
2.377582
20
0.200000
30
20.272284
11
11.750052
21
0.200000
31
20.351561
12
16.617010
22
0.200000
32
16.617010
13
16.617010
23
0.200000
33
16.617010
0
3DFACE
8
0
10
1.469794
20
0.200000
30
21.522226
11
0.000000
21
0.200000
31
22.000000
12
11.750052
22
0.200000
32
20.351561
13
11.750052
23
0.200000
33
20.351561
0
3DFACE
8
0
10
2.377582
20
0.200000
30
20.272284
11
1.469794
21
0.200000
31
21.522226
12
11.750052
22
0.200000
32
20.351561
13
11.750052
23
0.200000
33
20.351561
0
3DFACE
8
0
10
2.377582
20
0.200000
30
18.727716
11
2.377582
21
0.200000
31
20.272284
12
16.617010
22
0.200000
32
16.617010
13
16.617010
23
0.200000
33
16.617010
0
3DFACE
8
0
10
1.469794
20
0.200000
30
17.477774
11
2.377582
21
0.200000
31
18.727716
12
16.617010
22
0.200000
32
16.617010
13
16.617010
23
0.200000
33
16.617010
0
3DFACE
8
0
10
0.000000
20
0.200000
30
17.000000
11
1.469794
21
0.200000
31
17.477774
12
16.617010
22
0.200000
32
16.617010
13
16.617010
23
0.200000
33
16.617010
0
3DFACE
8
0
10
6.249919
20
0.200000
30
10.825352
11
20.351561
21
0.200000
31
11.750052
12
22.699268
22
0.200000
32
6.082184
13
22.699268
23
0.200000
33
6.082184
0
3DFACE
8
0
10
6.249919
20
0.200000
30
10.825352
11
2.170513
21
0.200000
31
12.310110
12
20.351561
22
0.200000
32
11.750052
13
20.351561
23
0.200000
33
11.750052
0
3DFACE
8
0
10
21.522226
20
0.200000
30
1.469794
11
22.699268
21
0.200000
31
6.082184
12
23.500000
22
0.200000
32
0.000000
13
23.500000
23
0.200000
33
0.000000
0
3DFACE
8
0
10
9.575566
20
0.200000
30
8.034812
11
6.249919
21
0.200000
31
10.825352
12
22.699268
22
0.200000
32
6.082184
13
22.699268
23
0.200000
33
6.082184
0
3DFACE
8
0
10
11.746190
20
0.200000
30
4.275143
11
9.575566
21
0.200000
31
8.034812
12
22.699268
22
0.200000
32
6.082184
13
22.699268
23
0.200000
33
6.082184
0
3DFACE
8
0
10
20.272284
20
0.200000
30
2.377582
11
11.746190
21
0.200000
31
4.275143
12
22.699268
22
0.200000
32
6.082184
13
22.699268
23
0.200000
33
6.082184
0
3DFACE
8
0
10
21.522226
20
0.200000
30
1.469794
11
20.272284
21
0.200000
31
2.377582
12
22.699268
22
0.200000
32
6.082184
13
22.699268
23
0.200000
33
6.082184
0
3DFACE
8
0
10
22.000000
20
0.200000
30
0.000000
11
23.500000
21
0.200000
31
0.000000
12
22.699268
22
0.200000
32
-6.082184
13
22.699268
23
0.200000
33
-6.082184
0
3DFACE
8
0
10
21.522226
20
0.200000
30
1.469794
11
23.500000
21
0.200000
31
0.000000
12
22.000000
22
0.200000
32
0.000000
13
22.000000
23
0.200000
33
0.000000
0
3DFACE
8
0
10
18.727716
20
0.200000
30
-2.377582
11
11.746190
21
0.200000
31
-4.275143
12
12.500000
22
0.200000
32
0.000000
13
12.500000
23
0.200000
33
0.000000
0
3DFACE
8
0
10
17.000000
20
0.200000
30
-0.000000
11
12.500000
21
0.200000
31
0.000000
12
11.746190
22
0.200000
32
4.275143
13
11.746190
23
0.200000
33
4.275143
0
3DFACE
8
0
10
17.477774
20
0.200000
30
-1.469794
11
18.727716
21
0.200000
31
-2.377582
12
12.500000
22
0.200000
32
0.000000
13
12.500000
23
0.200000
33
0.000000
0
3DFACE
8
0
10
17.000000
20
0.200000
30
-0.000000
11
17.477774
21
0.200000
31
-1.469794
12
12.500000
22
0.200000
32
0.000000
13
12.500000
23
0.200000
33
0.000000
0
3DFACE
8
0
10
22.699268
20
0.200000
30
-6.082184
11
9.575566
21
0.200000
31
-8.034812
12
11.746190
22
0.200000
32
-4.275143
13
11.746190
23
0.200000
33
-4.275143
0
3DFACE
8
0
10
18.727716
20
0.200000
30
-2.377582
11
22.699268
21
0.200000
31
-6.082184
12
11.746190
22
0.200000
32
-4.275143
13
11.746190
23
0.200000
33
-4.275143
0
3DFACE
8
0
10
20.351561
20
0.200000
30
-11.750052
11
6.249919
21
0.200000
31
-10.825352
12
9.575566
22
0.200000
32
-8.034812
13
9.575566
23
0.200000
33
-8.034812
0
3DFACE
8
0
10
22.699268
20
0.200000
30
-6.082184
11
20.351561
21
0.200000
31
-11.750052
12
9.575566
22
0.200000
32
-8.034812
13
9.575566
23
0.200000
33
-8.034812
0
3DFACE
8
0
10
20.351561
20
0.200000
30
-11.750052
11
2.170513
21
0.200000
31
-12.310110
12
6.249919
22
0.200000
32
-10.825352
13
6.249919
23
0.200000
33
-10.825352
0
3DFACE
8
0
10
16.617010
20
0.200000
30
-16.617010
11
-2.170513
21
0.200000
31
-12.310110
12
2.170513
22
0.200000
32
-12.310110
13
2.170513
23
0.200000
33
-12.310110
0
3DFACE
8
0
10
20.351561
20
0.200000
30
-11.750052
11
16.617010
21
0.200000
31
-16.617010
12
2.170513
22
0.200000
32
-12.310110
13
2.170513
23
0.200000
33
-12.310110
0
3DFACE
8
0
10
-20.351561
20
0.200000
30
-11.750052
11
-6.249919
21
0.200000
31
-10.825352
12
-2.170513
22
0.200000
32
-12.310110
13
-2.170513
23
0.200000
33
-12.310110
0
3DFACE
8
0
10
16.617010
20
0.200000
30
-16.617010
11
-20.351561
21
0.200000
31
-11.750052
12
-2.170513
22
0.200000
32
-12.310110
13
-2.170513
23
0.200000
33
-12.310110
0
3DFACE
8
0
10
-22.699268
20
0.200000
30
-6.082184
11
-9.575566
21
0.200000
31
-8.034812
12
-6.249919
22
0.200000
32
-10.825352
13
-6.249919
23
0.200000
33
-10.825352
0
3DFACE
8
0
10
-20.351561
20
0.200000
30
-11.750052
11
-22.699268
21
0.200000
31
-6.082184
12
-6.249919
22
0.200000
32
-10.825352
13
-6.249919
23
0.200000
33
-10.825352
0
3DFACE
8
0
10
-22.699268
20
0.200000
30
-6.082184
11
-11.746190
21
0.200000
31
-4.275143
12
-9.575566
22
0.200000
32
-8.034812
13
-9.575566
23
0.200000
33
-8.034812
0
3DFACE
8
0
10
-17.000000
20
0.200000
30
0.000000
11
-12.500000
21
0.200000
31
0.000000
12
-11.746190
22
0.200000
32
-4.275143
13
-11.746190
23
0.200000
33
-4.275143
0
3DFACE
8
0
10
-20.272284
20
0.200000
30
-2.377582
11
-11.746190
21
0.200000
31
-4.275143
12
-22.699268
22
0.200000
32
-6.082184
13
-22.699268
23
0.200000
33
-6.082184
0
3DFACE
8
0
10
-17.477774
20
0.200000
30
-1.469794
11
-17.000000
21
0.200000
31
0.000000
12
-11.746190
22
0.200000
32
-4.275143
13
-11.746190
23
0.200000
33
-4.275143
0
3DFACE
8
0
10
-18.727716
20
0.200000
30
-2.377582
11
-17.477774
21
0.200000
31
-1.469794
12
-11.746190
22
0.200000
32
-4.275143
13
-11.746190
23
0.200000
33
-4.275143
0
3DFACE
8
0
10
-20.272284
20
0.200000
30
-2.377582
11
-18.727716
21
0.200000
31
-2.377582
12
-11.746190
22
0.200000
32
-4.275143
13
-11.746190
23
0.200000
33
-4.275143
0
3DFACE
8
0
10
-18.727716
20
0.200000
30
2.377582
11
-11.746190
21
0.200000
31
4.275143
12
-12.500000
22
0.200000
32
0.000000
13
-12.500000
23
0.200000
33
0.000000
0
3DFACE
8
0
10
-17.477774
20
0.200000
30
1.469794
11
-18.727716
21
0.200000
31
2.377582
12
-12.500000
22
0.200000
32
0.000000
13
-12.500000
23
0.200000
33
0.000000
0
3DFACE
8
0
10
-17.000000
20
0.200000
30
0.000000
11
-17.477774
21
0.200000
31
1.469794
12
-12.500000
22
0.200000
32
0.000000
13
-12.500000
23
0.200000
33
0.000000
0
3DFACE
8
0
10
17.477774
20
0.200000
30
1.469794
11
17.000000
21
0.200000
31
-0.000000
12
11.746190
22
0.200000
32
4.275143
13
11.746190
23
0.200000
33
4.275143
0
3DFACE
8
0
10
18.727716
20
0.200000
30
2.377582
11
17.477774
21
0.200000
31
1.469794
12
11.746190
22
0.200000
32
4.275143
13
11.746190
23
0.200000
33
4.275143
0
3DFACE
8
0
10
20.272284
20
0.200000
30
2.377582
11
18.727716
21
0.200000
31
2.377582
12
11.746190
22
0.200000
32
4.275143
13
11.746190
23
0.200000
33
4.275143
0
3DFACE
8
0
10
-21.522226
20
0.200000
30
-1.469794
11
-20.272284
21
0.200000
31
-2.377582
12
-22.699268
22
0.200000
32
-6.082184
13
-22.699268
23
0.200000
33
-6.082184
0
3DFACE
8
0
10
16.617010
20
0.200000
30
-16.617010
11
-16.617010
21
0.200000
31
-16.617010
12
-20.351561
22
0.200000
32
-11.750052
13
-20.351561
23
0.200000
33
-11.750052
0
3DFACE
8
0
10
11.750052
20
0.200000
30
-20.351561
11
-11.750052
21
0.200000
31
-20.351561
12
-16.617010
22
0.200000
32
-16.617010
13
-16.617010
23
0.200000
33
-16.617010
0
3DFACE
8
0
10
16.617010
20
0.200000
30
-16.617010
11
11.750052
21
0.200000
31
-20.351561
12
-16.617010
22
0.200000
32
-16.617010
13
-16.617010
23
0.200000
33
-16.617010
0
3DFACE
8
0
10
6.082184
20
0.200000
30
-22.699268
11
-6.082184
21
0.200000
31
-22.699268
12
-11.750052
22
0.200000
32
-20.351561
13
-11.750052
23
0.200000
33
-20.351561
0
3DFACE
8
0
10
11.750052
20
0.200000
30
-20.351561
11
6.082184
21
0.200000
31
-22.699268
12
-11.750052
22
0.200000
32
-20.351561
13
-11.750052
23
0.200000
33
-20.351561
0
3DFACE
8
0
10
6.082184
20
0.200000
30
-22.699268
11
0.000000
21
0.200000
31
-23.500000
12
-6.082184
22
0.200000
32
-22.699268
13
-6.082184
23
0.200000
33
-22.699268
0
3DFACE
8
0
10
21.522226
20
0.200000
30
-1.469794
11
22.000000
21
0.200000
31
0.000000
12
22.699268
22
0.200000
32
-6.082184
13
22.699268
23
0.200000
33
-6.082184
0
3DFACE
8
0
10
20.272284
20
0.200000
30
-2.377582
11
21.522226
21
0.200000
31
-1.469794
12
22.699268
22
0.200000
32
-6.082184
13
22.699268
23
0.200000
33
-6.082184
0
3DFACE
8
0
10
18.727716
20
0.200000
30
-2.377582
11
20.272284
21
0.200000
31
-2.377582
12
22.699268
22
0.200000
32
-6.082184
13
22.699268
23
0.200000
33
-6.082184
0
ENDSEC
0
EOF
