999
DXF created by VCGLib
0
SECTION
2
HEADER
9
$ACADVER
1
AC1009
9
$INSBASE
10
0.0
20
0.0
30
0.0
9
$EXTMIN
10
-38.000000
20
-38.000000
9
$EXTMAX
10
38.000000
20
38.000000
9
$LINMIN
10
-38.000000
20
-38.000000
9
$LINMAX
10
38.000000
20
38.000000
0
ENDSEC
0
SECTION
2
ENTITIES
0
3DFACE
8
0
10
-20.500000
20
0.000000
30
27.750000
11
-30.000000
21
0.000000
31
38.000000
12
-30.000000
22
0.000000
32
-38.000000
13
-30.000000
23
0.000000
33
-38.000000
0
3DFACE
8
0
10
-30.000000
20
5.000000
30
-38.000000
11
-30.000000
21
0.000000
31
-38.000000
12
-30.000000
22
0.000000
32
38.000000
13
-30.000000
23
0.000000
33
38.000000
0
3DFACE
8
0
10
18.771824
20
0.000000
30
-30.127758
11
-30.000000
21
0.000000
31
-38.000000
12
30.000000
22
0.000000
32
-38.000000
13
30.000000
23
0.000000
33
-38.000000
0
3DFACE
8
0
10
30.000000
20
5.000000
30
-38.000000
11
30.000000
21
0.000000
31
-38.000000
12
-30.000000
22
0.000000
32
-38.000000
13
-30.000000
23
0.000000
33
-38.000000
0
3DFACE
8
0
10
-20.500000
20
0.000000
30
-27.750000
11
-20.022551
21
0.000000
31
-26.280977
12
-30.000000
22
0.000000
32
-38.000000
13
-30.000000
23
0.000000
33
-38.000000
0
3DFACE
8
0
10
18.771824
20
0.000000
30
25.372242
11
-30.000000
21
0.000000
31
-38.000000
12
-20.022551
22
0.000000
32
-26.280977
13
-20.022551
23
0.000000
33
-26.280977
0
3DFACE
8
0
10
-20.022551
20
0.000000
30
-29.219023
11
-20.500000
21
0.000000
31
-27.750000
12
-30.000000
22
0.000000
32
-38.000000
13
-30.000000
23
0.000000
33
-38.000000
0
3DFACE
8
0
10
-18.771824
20
0.000000
30
-30.127758
11
-20.022551
21
0.000000
31
-29.219023
12
-30.000000
22
0.000000
32
-38.000000
13
-30.000000
23
0.000000
33
-38.000000
0
3DFACE
8
0
10
-17.228176
20
0.000000
30
-30.127758
11
-18.771824
21
0.000000
31
-30.127758
12
-30.000000
22
0.000000
32
-38.000000
13
-30.000000
23
0.000000
33
-38.000000
0
3DFACE
8
0
10
17.228176
20
0.000000
30
-30.127758
11
-17.228176
21
0.000000
31
-30.127758
12
-30.000000
22
0.000000
32
-38.000000
13
-30.000000
23
0.000000
33
-38.000000
0
3DFACE
8
0
10
18.771824
20
0.000000
30
-30.127758
11
17.228176
21
0.000000
31
-30.127758
12
-30.000000
22
0.000000
32
-38.000000
13
-30.000000
23
0.000000
33
-38.000000
0
3DFACE
8
0
10
-20.022551
20
0.000000
30
26.280977
11
-20.500000
21
0.000000
31
27.750000
12
-30.000000
22
0.000000
32
-38.000000
13
-30.000000
23
0.000000
33
-38.000000
0
3DFACE
8
0
10
-18.771824
20
0.000000
30
25.372242
11
-20.022551
21
0.000000
31
26.280977
12
-30.000000
22
0.000000
32
-38.000000
13
-30.000000
23
0.000000
33
-38.000000
0
3DFACE
8
0
10
-17.228176
20
0.000000
30
25.372242
11
-18.771824
21
0.000000
31
25.372242
12
-30.000000
22
0.000000
32
-38.000000
13
-30.000000
23
0.000000
33
-38.000000
0
3DFACE
8
0
10
17.228176
20
0.000000
30
25.372242
11
-17.228176
21
0.000000
31
25.372242
12
-30.000000
22
0.000000
32
-38.000000
13
-30.000000
23
0.000000
33
-38.000000
0
3DFACE
8
0
10
18.771824
20
0.000000
30
25.372242
11
17.228176
21
0.000000
31
25.372242
12
-30.000000
22
0.000000
32
-38.000000
13
-30.000000
23
0.000000
33
-38.000000
0
3DFACE
8
0
10
30.000000
20
5.000000
30
-38.000000
11
-30.000000
21
0.000000
31
-38.000000
12
-30.000000
22
5.000000
32
-38.000000
13
-30.000000
23
5.000000
33
-38.000000
0
3DFACE
8
0
10
-18.771824
20
0.000000
30
30.127758
11
30.000000
21
0.000000
31
38.000000
12
-30.000000
22
0.000000
32
38.000000
13
-30.000000
23
0.000000
33
38.000000
0
3DFACE
8
0
10
-30.000000
20
5.000000
30
38.000000
11
-30.000000
21
0.000000
31
38.000000
12
30.000000
22
0.000000
32
38.000000
13
30.000000
23
0.000000
33
38.000000
0
3DFACE
8
0
10
-20.022551
20
0.000000
30
29.219023
11
-18.771824
21
0.000000
31
30.127758
12
-30.000000
22
0.000000
32
38.000000
13
-30.000000
23
0.000000
33
38.000000
0
3DFACE
8
0
10
-20.500000
20
0.000000
30
27.750000
11
-20.022551
21
0.000000
31
29.219023
12
-30.000000
22
0.000000
32
38.000000
13
-30.000000
23
0.000000
33
38.000000
0
3DFACE
8
0
10
-30.000000
20
5.000000
30
38.000000
11
-30.000000
21
5.000000
31
-38.000000
12
-30.000000
22
0.000000
32
38.000000
13
-30.000000
23
0.000000
33
38.000000
0
3DFACE
8
0
10
20.500000
20
0.000000
30
-27.750000
11
30.000000
21
0.000000
31
-38.000000
12
30.000000
22
0.000000
32
38.000000
13
30.000000
23
0.000000
33
38.000000
0
3DFACE
8
0
10
30.000000
20
5.000000
30
38.000000
11
30.000000
21
0.000000
31
38.000000
12
30.000000
22
0.000000
32
-38.000000
13
30.000000
23
0.000000
33
-38.000000
0
3DFACE
8
0
10
-18.771824
20
0.000000
30
-25.372242
11
-17.228176
21
0.000000
31
-25.372242
12
30.000000
22
0.000000
32
38.000000
13
30.000000
23
0.000000
33
38.000000
0
3DFACE
8
0
10
17.228176
20
0.000000
30
-25.372242
11
30.000000
21
0.000000
31
38.000000
12
-17.228176
22
0.000000
32
-25.372242
13
-17.228176
23
0.000000
33
-25.372242
0
3DFACE
8
0
10
20.022551
20
0.000000
30
26.280977
11
-18.771824
21
0.000000
31
-25.372242
12
30.000000
22
0.000000
32
38.000000
13
30.000000
23
0.000000
33
38.000000
0
3DFACE
8
0
10
20.022551
20
0.000000
30
-26.280977
11
20.500000
21
0.000000
31
-27.750000
12
30.000000
22
0.000000
32
38.000000
13
30.000000
23
0.000000
33
38.000000
0
3DFACE
8
0
10
18.771824
20
0.000000
30
-25.372242
11
20.022551
21
0.000000
31
-26.280977
12
30.000000
22
0.000000
32
38.000000
13
30.000000
23
0.000000
33
38.000000
0
3DFACE
8
0
10
17.228176
20
0.000000
30
-25.372242
11
18.771824
21
0.000000
31
-25.372242
12
30.000000
22
0.000000
32
38.000000
13
30.000000
23
0.000000
33
38.000000
0
3DFACE
8
0
10
-18.771824
20
0.000000
30
30.127758
11
-17.228176
21
0.000000
31
30.127758
12
30.000000
22
0.000000
32
38.000000
13
30.000000
23
0.000000
33
38.000000
0
3DFACE
8
0
10
17.228176
20
0.000000
30
30.127758
11
30.000000
21
0.000000
31
38.000000
12
-17.228176
22
0.000000
32
30.127758
13
-17.228176
23
0.000000
33
30.127758
0
3DFACE
8
0
10
20.500000
20
0.000000
30
27.750000
11
20.022551
21
0.000000
31
26.280977
12
30.000000
22
0.000000
32
38.000000
13
30.000000
23
0.000000
33
38.000000
0
3DFACE
8
0
10
20.022551
20
0.000000
30
29.219023
11
20.500000
21
0.000000
31
27.750000
12
30.000000
22
0.000000
32
38.000000
13
30.000000
23
0.000000
33
38.000000
0
3DFACE
8
0
10
18.771824
20
0.000000
30
30.127758
11
20.022551
21
0.000000
31
29.219023
12
30.000000
22
0.000000
32
38.000000
13
30.000000
23
0.000000
33
38.000000
0
3DFACE
8
0
10
17.228176
20
0.000000
30
30.127758
11
18.771824
21
0.000000
31
30.127758
12
30.000000
22
0.000000
32
38.000000
13
30.000000
23
0.000000
33
38.000000
0
3DFACE
8
0
10
-30.000000
20
5.000000
30
38.000000
11
30.000000
21
0.000000
31
38.000000
12
30.000000
22
5.000000
32
38.000000
13
30.000000
23
5.000000
33
38.000000
0
3DFACE
8
0
10
20.022551
20
0.000000
30
-29.219023
11
18.771824
21
0.000000
31
-30.127758
12
30.000000
22
0.000000
32
-38.000000
13
30.000000
23
0.000000
33
-38.000000
0
3DFACE
8
0
10
20.500000
20
0.000000
30
-27.750000
11
20.022551
21
0.000000
31
-29.219023
12
30.000000
22
0.000000
32
-38.000000
13
30.000000
23
0.000000
33
-38.000000
0
3DFACE
8
0
10
30.000000
20
5.000000
30
38.000000
11
30.000000
21
0.000000
31
-38.000000
12
30.000000
22
5.000000
32
-38.000000
13
30.000000
23
5.000000
33
-38.000000
0
3DFACE
8
0
10
15.977449
20
0.000000
30
-26.280977
11
-15.977449
21
0.000000
31
-26.280977
12
-15.500000
22
0.000000
32
-27.750000
13
-15.500000
23
0.000000
33
-27.750000
0
3DFACE
8
0
10
-15.500000
20
5.000000
30
-27.750000
11
-15.500000
21
0.000000
31
-27.750000
12
-15.977449
22
0.000000
32
-26.280977
13
-15.977449
23
0.000000
33
-26.280977
0
3DFACE
8
0
10
15.500000
20
0.000000
30
-27.750000
11
-15.500000
21
0.000000
31
-27.750000
12
-15.977449
22
0.000000
32
-29.219023
13
-15.977449
23
0.000000
33
-29.219023
0
3DFACE
8
0
10
-15.977449
20
5.000000
30
-29.219023
11
-15.977449
21
0.000000
31
-29.219023
12
-15.500000
22
0.000000
32
-27.750000
13
-15.500000
23
0.000000
33
-27.750000
0
3DFACE
8
0
10
15.977449
20
0.000000
30
-26.280977
11
-15.500000
21
0.000000
31
-27.750000
12
15.500000
22
0.000000
32
-27.750000
13
15.500000
23
0.000000
33
-27.750000
0
3DFACE
8
0
10
-15.977449
20
5.000000
30
-29.219023
11
-15.500000
21
0.000000
31
-27.750000
12
-15.500000
22
5.000000
32
-27.750000
13
-15.500000
23
5.000000
33
-27.750000
0
3DFACE
8
0
10
17.228176
20
0.000000
30
-25.372242
11
-17.228176
21
0.000000
31
-25.372242
12
-15.977449
22
0.000000
32
-26.280977
13
-15.977449
23
0.000000
33
-26.280977
0
3DFACE
8
0
10
-15.977449
20
5.000000
30
-26.280977
11
-15.977449
21
0.000000
31
-26.280977
12
-17.228176
22
0.000000
32
-25.372242
13
-17.228176
23
0.000000
33
-25.372242
0
3DFACE
8
0
10
15.977449
20
0.000000
30
-26.280977
11
17.228176
21
0.000000
31
-25.372242
12
-15.977449
22
0.000000
32
-26.280977
13
-15.977449
23
0.000000
33
-26.280977
0
3DFACE
8
0
10
-15.977449
20
5.000000
30
-26.280977
11
-15.500000
21
5.000000
31
-27.750000
12
-15.977449
22
0.000000
32
-26.280977
13
-15.977449
23
0.000000
33
-26.280977
0
3DFACE
8
0
10
-17.228176
20
5.000000
30
-25.372242
11
-17.228176
21
0.000000
31
-25.372242
12
-18.771824
22
0.000000
32
-25.372242
13
-18.771824
23
0.000000
33
-25.372242
0
3DFACE
8
0
10
-15.977449
20
5.000000
30
-26.280977
11
-17.228176
21
0.000000
31
-25.372242
12
-17.228176
22
5.000000
32
-25.372242
13
-17.228176
23
5.000000
33
-25.372242
0
3DFACE
8
0
10
18.771824
20
0.000000
30
25.372242
11
-20.022551
21
0.000000
31
-26.280977
12
-18.771824
22
0.000000
32
-25.372242
13
-18.771824
23
0.000000
33
-25.372242
0
3DFACE
8
0
10
-18.771824
20
5.000000
30
-25.372242
11
-18.771824
21
0.000000
31
-25.372242
12
-20.022551
22
0.000000
32
-26.280977
13
-20.022551
23
0.000000
33
-26.280977
0
3DFACE
8
0
10
20.022551
20
0.000000
30
26.280977
11
18.771824
21
0.000000
31
25.372242
12
-18.771824
22
0.000000
32
-25.372242
13
-18.771824
23
0.000000
33
-25.372242
0
3DFACE
8
0
10
-17.228176
20
5.000000
30
-25.372242
11
-18.771824
21
0.000000
31
-25.372242
12
-18.771824
22
5.000000
32
-25.372242
13
-18.771824
23
5.000000
33
-25.372242
0
3DFACE
8
0
10
-20.022551
20
5.000000
30
-26.280977
11
-20.022551
21
0.000000
31
-26.280977
12
-20.500000
22
0.000000
32
-27.750000
13
-20.500000
23
0.000000
33
-27.750000
0
3DFACE
8
0
10
-18.771824
20
5.000000
30
-25.372242
11
-20.022551
21
0.000000
31
-26.280977
12
-20.022551
22
5.000000
32
-26.280977
13
-20.022551
23
5.000000
33
-26.280977
0
3DFACE
8
0
10
-20.500000
20
5.000000
30
-27.750000
11
-20.500000
21
0.000000
31
-27.750000
12
-20.022551
22
0.000000
32
-29.219023
13
-20.022551
23
0.000000
33
-29.219023
0
3DFACE
8
0
10
-20.022551
20
5.000000
30
-26.280977
11
-20.500000
21
0.000000
31
-27.750000
12
-20.500000
22
5.000000
32
-27.750000
13
-20.500000
23
5.000000
33
-27.750000
0
3DFACE
8
0
10
-20.022551
20
5.000000
30
-29.219023
11
-20.022551
21
0.000000
31
-29.219023
12
-18.771824
22
0.000000
32
-30.127758
13
-18.771824
23
0.000000
33
-30.127758
0
3DFACE
8
0
10
-20.500000
20
5.000000
30
-27.750000
11
-20.022551
21
0.000000
31
-29.219023
12
-20.022551
22
5.000000
32
-29.219023
13
-20.022551
23
5.000000
33
-29.219023
0
3DFACE
8
0
10
-18.771824
20
5.000000
30
-30.127758
11
-18.771824
21
0.000000
31
-30.127758
12
-17.228176
22
0.000000
32
-30.127758
13
-17.228176
23
0.000000
33
-30.127758
0
3DFACE
8
0
10
-20.022551
20
5.000000
30
-29.219023
11
-18.771824
21
0.000000
31
-30.127758
12
-18.771824
22
5.000000
32
-30.127758
13
-18.771824
23
5.000000
33
-30.127758
0
3DFACE
8
0
10
15.977449
20
0.000000
30
-29.219023
11
-15.977449
21
0.000000
31
-29.219023
12
-17.228176
22
0.000000
32
-30.127758
13
-17.228176
23
0.000000
33
-30.127758
0
3DFACE
8
0
10
-17.228176
20
5.000000
30
-30.127758
11
-17.228176
21
0.000000
31
-30.127758
12
-15.977449
22
0.000000
32
-29.219023
13
-15.977449
23
0.000000
33
-29.219023
0
3DFACE
8
0
10
17.228176
20
0.000000
30
-30.127758
11
15.977449
21
0.000000
31
-29.219023
12
-17.228176
22
0.000000
32
-30.127758
13
-17.228176
23
0.000000
33
-30.127758
0
3DFACE
8
0
10
-18.771824
20
5.000000
30
-30.127758
11
-17.228176
21
0.000000
31
-30.127758
12
-17.228176
22
5.000000
32
-30.127758
13
-17.228176
23
5.000000
33
-30.127758
0
3DFACE
8
0
10
15.977449
20
0.000000
30
-29.219023
11
15.500000
21
0.000000
31
-27.750000
12
-15.977449
22
0.000000
32
-29.219023
13
-15.977449
23
0.000000
33
-29.219023
0
3DFACE
8
0
10
-17.228176
20
5.000000
30
-30.127758
11
-15.977449
21
0.000000
31
-29.219023
12
-15.977449
22
5.000000
32
-29.219023
13
-15.977449
23
5.000000
33
-29.219023
0
3DFACE
8
0
10
15.500000
20
5.000000
30
-27.750000
11
15.500000
21
0.000000
31
-27.750000
12
15.977449
22
0.000000
32
-29.219023
13
15.977449
23
0.000000
33
-29.219023
0
3DFACE
8
0
10
15.977449
20
5.000000
30
-26.280977
11
15.977449
21
0.000000
31
-26.280977
12
15.500000
22
0.000000
32
-27.750000
13
15.500000
23
0.000000
33
-27.750000
0
3DFACE
8
0
10
15.977449
20
5.000000
30
-26.280977
11
15.500000
21
0.000000
31
-27.750000
12
15.500000
22
5.000000
32
-27.750000
13
15.500000
23
5.000000
33
-27.750000
0
3DFACE
8
0
10
15.977449
20
5.000000
30
-29.219023
11
15.977449
21
0.000000
31
-29.219023
12
17.228176
22
0.000000
32
-30.127758
13
17.228176
23
0.000000
33
-30.127758
0
3DFACE
8
0
10
15.977449
20
5.000000
30
-29.219023
11
15.500000
21
5.000000
31
-27.750000
12
15.977449
22
0.000000
32
-29.219023
13
15.977449
23
0.000000
33
-29.219023
0
3DFACE
8
0
10
17.228176
20
5.000000
30
-30.127758
11
17.228176
21
0.000000
31
-30.127758
12
18.771824
22
0.000000
32
-30.127758
13
18.771824
23
0.000000
33
-30.127758
0
3DFACE
8
0
10
15.977449
20
5.000000
30
-29.219023
11
17.228176
21
0.000000
31
-30.127758
12
17.228176
22
5.000000
32
-30.127758
13
17.228176
23
5.000000
33
-30.127758
0
3DFACE
8
0
10
18.771824
20
5.000000
30
-30.127758
11
18.771824
21
0.000000
31
-30.127758
12
20.022551
22
0.000000
32
-29.219023
13
20.022551
23
0.000000
33
-29.219023
0
3DFACE
8
0
10
17.228176
20
5.000000
30
-30.127758
11
18.771824
21
0.000000
31
-30.127758
12
18.771824
22
5.000000
32
-30.127758
13
18.771824
23
5.000000
33
-30.127758
0
3DFACE
8
0
10
20.022551
20
5.000000
30
-29.219023
11
20.022551
21
0.000000
31
-29.219023
12
20.500000
22
0.000000
32
-27.750000
13
20.500000
23
0.000000
33
-27.750000
0
3DFACE
8
0
10
18.771824
20
5.000000
30
-30.127758
11
20.022551
21
0.000000
31
-29.219023
12
20.022551
22
5.000000
32
-29.219023
13
20.022551
23
5.000000
33
-29.219023
0
3DFACE
8
0
10
20.500000
20
5.000000
30
-27.750000
11
20.500000
21
0.000000
31
-27.750000
12
20.022551
22
0.000000
32
-26.280977
13
20.022551
23
0.000000
33
-26.280977
0
3DFACE
8
0
10
20.022551
20
5.000000
30
-29.219023
11
20.500000
21
0.000000
31
-27.750000
12
20.500000
22
5.000000
32
-27.750000
13
20.500000
23
5.000000
33
-27.750000
0
3DFACE
8
0
10
20.022551
20
5.000000
30
-26.280977
11
20.022551
21
0.000000
31
-26.280977
12
18.771824
22
0.000000
32
-25.372242
13
18.771824
23
0.000000
33
-25.372242
0
3DFACE
8
0
10
20.500000
20
5.000000
30
-27.750000
11
20.022551
21
0.000000
31
-26.280977
12
20.022551
22
5.000000
32
-26.280977
13
20.022551
23
5.000000
33
-26.280977
0
3DFACE
8
0
10
18.771824
20
5.000000
30
-25.372242
11
18.771824
21
0.000000
31
-25.372242
12
17.228176
22
0.000000
32
-25.372242
13
17.228176
23
0.000000
33
-25.372242
0
3DFACE
8
0
10
20.022551
20
5.000000
30
-26.280977
11
18.771824
21
0.000000
31
-25.372242
12
18.771824
22
5.000000
32
-25.372242
13
18.771824
23
5.000000
33
-25.372242
0
3DFACE
8
0
10
17.228176
20
5.000000
30
-25.372242
11
17.228176
21
0.000000
31
-25.372242
12
15.977449
22
0.000000
32
-26.280977
13
15.977449
23
0.000000
33
-26.280977
0
3DFACE
8
0
10
18.771824
20
5.000000
30
-25.372242
11
17.228176
21
0.000000
31
-25.372242
12
17.228176
22
5.000000
32
-25.372242
13
17.228176
23
5.000000
33
-25.372242
0
3DFACE
8
0
10
17.228176
20
5.000000
30
-25.372242
11
15.977449
21
0.000000
31
-26.280977
12
15.977449
22
5.000000
32
-26.280977
13
15.977449
23
5.000000
33
-26.280977
0
3DFACE
8
0
10
15.977449
20
0.000000
30
29.219023
11
-15.977449
21
0.000000
31
29.219023
12
-15.500000
22
0.000000
32
27.750000
13
-15.500000
23
0.000000
33
27.750000
0
3DFACE
8
0
10
-15.500000
20
5.000000
30
27.750000
11
-15.500000
21
0.000000
31
27.750000
12
-15.977449
22
0.000000
32
29.219023
13
-15.977449
23
0.000000
33
29.219023
0
3DFACE
8
0
10
15.500000
20
0.000000
30
27.750000
11
-15.500000
21
0.000000
31
27.750000
12
-15.977449
22
0.000000
32
26.280977
13
-15.977449
23
0.000000
33
26.280977
0
3DFACE
8
0
10
-15.977449
20
5.000000
30
26.280977
11
-15.977449
21
0.000000
31
26.280977
12
-15.500000
22
0.000000
32
27.750000
13
-15.500000
23
0.000000
33
27.750000
0
3DFACE
8
0
10
15.977449
20
0.000000
30
29.219023
11
-15.500000
21
0.000000
31
27.750000
12
15.500000
22
0.000000
32
27.750000
13
15.500000
23
0.000000
33
27.750000
0
3DFACE
8
0
10
-15.977449
20
5.000000
30
26.280977
11
-15.500000
21
0.000000
31
27.750000
12
-15.500000
22
5.000000
32
27.750000
13
-15.500000
23
5.000000
33
27.750000
0
3DFACE
8
0
10
17.228176
20
0.000000
30
30.127758
11
-17.228176
21
0.000000
31
30.127758
12
-15.977449
22
0.000000
32
29.219023
13
-15.977449
23
0.000000
33
29.219023
0
3DFACE
8
0
10
-15.977449
20
5.000000
30
29.219023
11
-15.977449
21
0.000000
31
29.219023
12
-17.228176
22
0.000000
32
30.127758
13
-17.228176
23
0.000000
33
30.127758
0
3DFACE
8
0
10
15.977449
20
0.000000
30
29.219023
11
17.228176
21
0.000000
31
30.127758
12
-15.977449
22
0.000000
32
29.219023
13
-15.977449
23
0.000000
33
29.219023
0
3DFACE
8
0
10
-15.977449
20
5.000000
30
29.219023
11
-15.500000
21
5.000000
31
27.750000
12
-15.977449
22
0.000000
32
29.219023
13
-15.977449
23
0.000000
33
29.219023
0
3DFACE
8
0
10
-17.228176
20
5.000000
30
30.127758
11
-17.228176
21
0.000000
31
30.127758
12
-18.771824
22
0.000000
32
30.127758
13
-18.771824
23
0.000000
33
30.127758
0
3DFACE
8
0
10
-15.977449
20
5.000000
30
29.219023
11
-17.228176
21
0.000000
31
30.127758
12
-17.228176
22
5.000000
32
30.127758
13
-17.228176
23
5.000000
33
30.127758
0
3DFACE
8
0
10
-18.771824
20
5.000000
30
30.127758
11
-18.771824
21
0.000000
31
30.127758
12
-20.022551
22
0.000000
32
29.219023
13
-20.022551
23
0.000000
33
29.219023
0
3DFACE
8
0
10
-17.228176
20
5.000000
30
30.127758
11
-18.771824
21
0.000000
31
30.127758
12
-18.771824
22
5.000000
32
30.127758
13
-18.771824
23
5.000000
33
30.127758
0
3DFACE
8
0
10
-20.022551
20
5.000000
30
29.219023
11
-20.022551
21
0.000000
31
29.219023
12
-20.500000
22
0.000000
32
27.750000
13
-20.500000
23
0.000000
33
27.750000
0
3DFACE
8
0
10
-18.771824
20
5.000000
30
30.127758
11
-20.022551
21
0.000000
31
29.219023
12
-20.022551
22
5.000000
32
29.219023
13
-20.022551
23
5.000000
33
29.219023
0
3DFACE
8
0
10
-20.500000
20
5.000000
30
27.750000
11
-20.500000
21
0.000000
31
27.750000
12
-20.022551
22
0.000000
32
26.280977
13
-20.022551
23
0.000000
33
26.280977
0
3DFACE
8
0
10
-20.022551
20
5.000000
30
29.219023
11
-20.500000
21
0.000000
31
27.750000
12
-20.500000
22
5.000000
32
27.750000
13
-20.500000
23
5.000000
33
27.750000
0
3DFACE
8
0
10
-20.022551
20
5.000000
30
26.280977
11
-20.022551
21
0.000000
31
26.280977
12
-18.771824
22
0.000000
32
25.372242
13
-18.771824
23
0.000000
33
25.372242
0
3DFACE
8
0
10
-20.500000
20
5.000000
30
27.750000
11
-20.022551
21
0.000000
31
26.280977
12
-20.022551
22
5.000000
32
26.280977
13
-20.022551
23
5.000000
33
26.280977
0
3DFACE
8
0
10
-18.771824
20
5.000000
30
25.372242
11
-18.771824
21
0.000000
31
25.372242
12
-17.228176
22
0.000000
32
25.372242
13
-17.228176
23
0.000000
33
25.372242
0
3DFACE
8
0
10
-20.022551
20
5.000000
30
26.280977
11
-18.771824
21
0.000000
31
25.372242
12
-18.771824
22
5.000000
32
25.372242
13
-18.771824
23
5.000000
33
25.372242
0
3DFACE
8
0
10
15.977449
20
0.000000
30
26.280977
11
-15.977449
21
0.000000
31
26.280977
12
-17.228176
22
0.000000
32
25.372242
13
-17.228176
23
0.000000
33
25.372242
0
3DFACE
8
0
10
-17.228176
20
5.000000
30
25.372242
11
-17.228176
21
0.000000
31
25.372242
12
-15.977449
22
0.000000
32
26.280977
13
-15.977449
23
0.000000
33
26.280977
0
3DFACE
8
0
10
17.228176
20
0.000000
30
25.372242
11
15.977449
21
0.000000
31
26.280977
12
-17.228176
22
0.000000
32
25.372242
13
-17.228176
23
0.000000
33
25.372242
0
3DFACE
8
0
10
-18.771824
20
5.000000
30
25.372242
11
-17.228176
21
0.000000
31
25.372242
12
-17.228176
22
5.000000
32
25.372242
13
-17.228176
23
5.000000
33
25.372242
0
3DFACE
8
0
10
15.977449
20
0.000000
30
26.280977
11
15.500000
21
0.000000
31
27.750000
12
-15.977449
22
0.000000
32
26.280977
13
-15.977449
23
0.000000
33
26.280977
0
3DFACE
8
0
10
-17.228176
20
5.000000
30
25.372242
11
-15.977449
21
0.000000
31
26.280977
12
-15.977449
22
5.000000
32
26.280977
13
-15.977449
23
5.000000
33
26.280977
0
3DFACE
8
0
10
15.500000
20
5.000000
30
27.750000
11
15.500000
21
0.000000
31
27.750000
12
15.977449
22
0.000000
32
26.280977
13
15.977449
23
0.000000
33
26.280977
0
3DFACE
8
0
10
15.977449
20
5.000000
30
29.219023
11
15.977449
21
0.000000
31
29.219023
12
15.500000
22
0.000000
32
27.750000
13
15.500000
23
0.000000
33
27.750000
0
3DFACE
8
0
10
15.977449
20
5.000000
30
29.219023
11
15.500000
21
0.000000
31
27.750000
12
15.500000
22
5.000000
32
27.750000
13
15.500000
23
5.000000
33
27.750000
0
3DFACE
8
0
10
15.977449
20
5.000000
30
26.280977
11
15.977449
21
0.000000
31
26.280977
12
17.228176
22
0.000000
32
25.372242
13
17.228176
23
0.000000
33
25.372242
0
3DFACE
8
0
10
15.977449
20
5.000000
30
26.280977
11
15.500000
21
5.000000
31
27.750000
12
15.977449
22
0.000000
32
26.280977
13
15.977449
23
0.000000
33
26.280977
0
3DFACE
8
0
10
17.228176
20
5.000000
30
25.372242
11
17.228176
21
0.000000
31
25.372242
12
18.771824
22
0.000000
32
25.372242
13
18.771824
23
0.000000
33
25.372242
0
3DFACE
8
0
10
15.977449
20
5.000000
30
26.280977
11
17.228176
21
0.000000
31
25.372242
12
17.228176
22
5.000000
32
25.372242
13
17.228176
23
5.000000
33
25.372242
0
3DFACE
8
0
10
18.771824
20
5.000000
30
25.372242
11
18.771824
21
0.000000
31
25.372242
12
20.022551
22
0.000000
32
26.280977
13
20.022551
23
0.000000
33
26.280977
0
3DFACE
8
0
10
17.228176
20
5.000000
30
25.372242
11
18.771824
21
0.000000
31
25.372242
12
18.771824
22
5.000000
32
25.372242
13
18.771824
23
5.000000
33
25.372242
0
3DFACE
8
0
10
20.022551
20
5.000000
30
26.280977
11
20.022551
21
0.000000
31
26.280977
12
20.500000
22
0.000000
32
27.750000
13
20.500000
23
0.000000
33
27.750000
0
3DFACE
8
0
10
18.771824
20
5.000000
30
25.372242
11
20.022551
21
0.000000
31
26.280977
12
20.022551
22
5.000000
32
26.280977
13
20.022551
23
5.000000
33
26.280977
0
3DFACE
8
0
10
20.500000
20
5.000000
30
27.750000
11
20.500000
21
0.000000
31
27.750000
12
20.022551
22
0.000000
32
29.219023
13
20.022551
23
0.000000
33
29.219023
0
3DFACE
8
0
10
20.022551
20
5.000000
30
26.280977
11
20.500000
21
0.000000
31
27.750000
12
20.500000
22
5.000000
32
27.750000
13
20.500000
23
5.000000
33
27.750000
0
3DFACE
8
0
10
20.022551
20
5.000000
30
29.219023
11
20.022551
21
0.000000
31
29.219023
12
18.771824
22
0.000000
32
30.127758
13
18.771824
23
0.000000
33
30.127758
0
3DFACE
8
0
10
20.500000
20
5.000000
30
27.750000
11
20.022551
21
0.000000
31
29.219023
12
20.022551
22
5.000000
32
29.219023
13
20.022551
23
5.000000
33
29.219023
0
3DFACE
8
0
10
18.771824
20
5.000000
30
30.127758
11
18.771824
21
0.000000
31
30.127758
12
17.228176
22
0.000000
32
30.127758
13
17.228176
23
0.000000
33
30.127758
0
3DFACE
8
0
10
20.022551
20
5.000000
30
29.219023
11
18.771824
21
0.000000
31
30.127758
12
18.771824
22
5.000000
32
30.127758
13
18.771824
23
5.000000
33
30.127758
0
3DFACE
8
0
10
17.228176
20
5.000000
30
30.127758
11
17.228176
21
0.000000
31
30.127758
12
15.977449
22
0.000000
32
29.219023
13
15.977449
23
0.000000
33
29.219023
0
3DFACE
8
0
10
18.771824
20
5.000000
30
30.127758
11
17.228176
21
0.000000
31
30.127758
12
17.228176
22
5.000000
32
30.127758
13
17.228176
23
5.000000
33
30.127758
0
3DFACE
8
0
10
17.228176
20
5.000000
30
30.127758
11
15.977449
21
0.000000
31
29.219023
12
15.977449
22
5.000000
32
29.219023
13
15.977449
23
5.000000
33
29.219023
0
3DFACE
8
0
10
-18.771824
20
5.000000
30
-30.127758
11
30.000000
21
5.000000
31
-38.000000
12
-30.000000
22
5.000000
32
-38.000000
13
-30.000000
23
5.000000
33
-38.000000
0
3DFACE
8
0
10
-20.500000
20
5.000000
30
-27.750000
11
-30.000000
21
5.000000
31
-38.000000
12
-30.000000
22
5.000000
32
38.000000
13
-30.000000
23
5.000000
33
38.000000
0
3DFACE
8
0
10
-20.022551
20
5.000000
30
-29.219023
11
-18.771824
21
5.000000
31
-30.127758
12
-30.000000
22
5.000000
32
-38.000000
13
-30.000000
23
5.000000
33
-38.000000
0
3DFACE
8
0
10
-20.500000
20
5.000000
30
-27.750000
11
-20.022551
21
5.000000
31
-29.219023
12
-30.000000
22
5.000000
32
-38.000000
13
-30.000000
23
5.000000
33
-38.000000
0
3DFACE
8
0
10
20.500000
20
5.000000
30
27.750000
11
30.000000
21
5.000000
31
38.000000
12
30.000000
22
5.000000
32
-38.000000
13
30.000000
23
5.000000
33
-38.000000
0
3DFACE
8
0
10
-18.771824
20
5.000000
30
-30.127758
11
-17.228176
21
5.000000
31
-30.127758
12
30.000000
22
5.000000
32
-38.000000
13
30.000000
23
5.000000
33
-38.000000
0
3DFACE
8
0
10
17.228176
20
5.000000
30
-30.127758
11
30.000000
21
5.000000
31
-38.000000
12
-17.228176
22
5.000000
32
-30.127758
13
-17.228176
23
5.000000
33
-30.127758
0
3DFACE
8
0
10
20.500000
20
5.000000
30
-27.750000
11
20.022551
21
5.000000
31
-26.280977
12
30.000000
22
5.000000
32
-38.000000
13
30.000000
23
5.000000
33
-38.000000
0
3DFACE
8
0
10
-18.771824
20
5.000000
30
25.372242
11
30.000000
21
5.000000
31
-38.000000
12
20.022551
22
5.000000
32
-26.280977
13
20.022551
23
5.000000
33
-26.280977
0
3DFACE
8
0
10
20.022551
20
5.000000
30
-29.219023
11
20.500000
21
5.000000
31
-27.750000
12
30.000000
22
5.000000
32
-38.000000
13
30.000000
23
5.000000
33
-38.000000
0
3DFACE
8
0
10
18.771824
20
5.000000
30
-30.127758
11
20.022551
21
5.000000
31
-29.219023
12
30.000000
22
5.000000
32
-38.000000
13
30.000000
23
5.000000
33
-38.000000
0
3DFACE
8
0
10
17.228176
20
5.000000
30
-30.127758
11
18.771824
21
5.000000
31
-30.127758
12
30.000000
22
5.000000
32
-38.000000
13
30.000000
23
5.000000
33
-38.000000
0
3DFACE
8
0
10
-18.771824
20
5.000000
30
25.372242
11
-17.228176
21
5.000000
31
25.372242
12
30.000000
22
5.000000
32
-38.000000
13
30.000000
23
5.000000
33
-38.000000
0
3DFACE
8
0
10
17.228176
20
5.000000
30
25.372242
11
30.000000
21
5.000000
31
-38.000000
12
-17.228176
22
5.000000
32
25.372242
13
-17.228176
23
5.000000
33
25.372242
0
3DFACE
8
0
10
20.022551
20
5.000000
30
26.280977
11
20.500000
21
5.000000
31
27.750000
12
30.000000
22
5.000000
32
-38.000000
13
30.000000
23
5.000000
33
-38.000000
0
3DFACE
8
0
10
18.771824
20
5.000000
30
25.372242
11
20.022551
21
5.000000
31
26.280977
12
30.000000
22
5.000000
32
-38.000000
13
30.000000
23
5.000000
33
-38.000000
0
3DFACE
8
0
10
17.228176
20
5.000000
30
25.372242
11
18.771824
21
5.000000
31
25.372242
12
30.000000
22
5.000000
32
-38.000000
13
30.000000
23
5.000000
33
-38.000000
0
3DFACE
8
0
10
18.771824
20
5.000000
30
30.127758
11
-30.000000
21
5.000000
31
38.000000
12
30.000000
22
5.000000
32
38.000000
13
30.000000
23
5.000000
33
38.000000
0
3DFACE
8
0
10
20.022551
20
5.000000
30
29.219023
11
18.771824
21
5.000000
31
30.127758
12
30.000000
22
5.000000
32
38.000000
13
30.000000
23
5.000000
33
38.000000
0
3DFACE
8
0
10
20.500000
20
5.000000
30
27.750000
11
20.022551
21
5.000000
31
29.219023
12
30.000000
22
5.000000
32
38.000000
13
30.000000
23
5.000000
33
38.000000
0
3DFACE
8
0
10
-20.022551
20
5.000000
30
-26.280977
11
-20.500000
21
5.000000
31
-27.750000
12
-30.000000
22
5.000000
32
38.000000
13
-30.000000
23
5.000000
33
38.000000
0
3DFACE
8
0
10
-18.771824
20
5.000000
30
-25.372242
11
-20.022551
21
5.000000
31
-26.280977
12
-30.000000
22
5.000000
32
38.000000
13
-30.000000
23
5.000000
33
38.000000
0
3DFACE
8
0
10
-17.228176
20
5.000000
30
-25.372242
11
-18.771824
21
5.000000
31
-25.372242
12
-30.000000
22
5.000000
32
38.000000
13
-30.000000
23
5.000000
33
38.000000
0
3DFACE
8
0
10
17.228176
20
5.000000
30
-25.372242
11
-17.228176
21
5.000000
31
-25.372242
12
-30.000000
22
5.000000
32
38.000000
13
-30.000000
23
5.000000
33
38.000000
0
3DFACE
8
0
10
18.771824
20
5.000000
30
-25.372242
11
17.228176
21
5.000000
31
-25.372242
12
-30.000000
22
5.000000
32
38.000000
13
-30.000000
23
5.000000
33
38.000000
0
3DFACE
8
0
10
-20.022551
20
5.000000
30
26.280977
11
18.771824
21
5.000000
31
-25.372242
12
-30.000000
22
5.000000
32
38.000000
13
-30.000000
23
5.000000
33
38.000000
0
3DFACE
8
0
10
-20.500000
20
5.000000
30
27.750000
11
-20.022551
21
5.000000
31
26.280977
12
-30.000000
22
5.000000
32
38.000000
13
-30.000000
23
5.000000
33
38.000000
0
3DFACE
8
0
10
-20.022551
20
5.000000
30
29.219023
11
-20.500000
21
5.000000
31
27.750000
12
-30.000000
22
5.000000
32
38.000000
13
-30.000000
23
5.000000
33
38.000000
0
3DFACE
8
0
10
-18.771824
20
5.000000
30
30.127758
11
-20.022551
21
5.000000
31
29.219023
12
-30.000000
22
5.000000
32
38.000000
13
-30.000000
23
5.000000
33
38.000000
0
3DFACE
8
0
10
-17.228176
20
5.000000
30
30.127758
11
-18.771824
21
5.000000
31
30.127758
12
-30.000000
22
5.000000
32
38.000000
13
-30.000000
23
5.000000
33
38.000000
0
3DFACE
8
0
10
17.228176
20
5.000000
30
30.127758
11
-17.228176
21
5.000000
31
30.127758
12
-30.000000
22
5.000000
32
38.000000
13
-30.000000
23
5.000000
33
38.000000
0
3DFACE
8
0
10
18.771824
20
5.000000
30
30.127758
11
17.228176
21
5.000000
31
30.127758
12
-30.000000
22
5.000000
32
38.000000
13
-30.000000
23
5.000000
33
38.000000
0
3DFACE
8
0
10
15.977449
20
5.000000
30
-29.219023
11
-15.977449
21
5.000000
31
-29.219023
12
-15.500000
22
5.000000
32
-27.750000
13
-15.500000
23
5.000000
33
-27.750000
0
3DFACE
8
0
10
15.500000
20
5.000000
30
-27.750000
11
-15.500000
21
5.000000
31
-27.750000
12
-15.977449
22
5.000000
32
-26.280977
13
-15.977449
23
5.000000
33
-26.280977
0
3DFACE
8
0
10
15.977449
20
5.000000
30
-29.219023
11
-15.500000
21
5.000000
31
-27.750000
12
15.500000
22
5.000000
32
-27.750000
13
15.500000
23
5.000000
33
-27.750000
0
3DFACE
8
0
10
17.228176
20
5.000000
30
-30.127758
11
-17.228176
21
5.000000
31
-30.127758
12
-15.977449
22
5.000000
32
-29.219023
13
-15.977449
23
5.000000
33
-29.219023
0
3DFACE
8
0
10
15.977449
20
5.000000
30
-29.219023
11
17.228176
21
5.000000
31
-30.127758
12
-15.977449
22
5.000000
32
-29.219023
13
-15.977449
23
5.000000
33
-29.219023
0
3DFACE
8
0
10
15.977449
20
5.000000
30
-26.280977
11
-15.977449
21
5.000000
31
-26.280977
12
-17.228176
22
5.000000
32
-25.372242
13
-17.228176
23
5.000000
33
-25.372242
0
3DFACE
8
0
10
17.228176
20
5.000000
30
-25.372242
11
15.977449
21
5.000000
31
-26.280977
12
-17.228176
22
5.000000
32
-25.372242
13
-17.228176
23
5.000000
33
-25.372242
0
3DFACE
8
0
10
15.977449
20
5.000000
30
-26.280977
11
15.500000
21
5.000000
31
-27.750000
12
-15.977449
22
5.000000
32
-26.280977
13
-15.977449
23
5.000000
33
-26.280977
0
3DFACE
8
0
10
-18.771824
20
5.000000
30
25.372242
11
20.022551
21
5.000000
31
-26.280977
12
18.771824
22
5.000000
32
-25.372242
13
18.771824
23
5.000000
33
-25.372242
0
3DFACE
8
0
10
-20.022551
20
5.000000
30
26.280977
11
-18.771824
21
5.000000
31
25.372242
12
18.771824
22
5.000000
32
-25.372242
13
18.771824
23
5.000000
33
-25.372242
0
3DFACE
8
0
10
15.977449
20
5.000000
30
26.280977
11
-15.977449
21
5.000000
31
26.280977
12
-15.500000
22
5.000000
32
27.750000
13
-15.500000
23
5.000000
33
27.750000
0
3DFACE
8
0
10
15.500000
20
5.000000
30
27.750000
11
-15.500000
21
5.000000
31
27.750000
12
-15.977449
22
5.000000
32
29.219023
13
-15.977449
23
5.000000
33
29.219023
0
3DFACE
8
0
10
15.977449
20
5.000000
30
26.280977
11
-15.500000
21
5.000000
31
27.750000
12
15.500000
22
5.000000
32
27.750000
13
15.500000
23
5.000000
33
27.750000
0
3DFACE
8
0
10
17.228176
20
5.000000
30
25.372242
11
-17.228176
21
5.000000
31
25.372242
12
-15.977449
22
5.000000
32
26.280977
13
-15.977449
23
5.000000
33
26.280977
0
3DFACE
8
0
10
15.977449
20
5.000000
30
26.280977
11
17.228176
21
5.000000
31
25.372242
12
-15.977449
22
5.000000
32
26.280977
13
-15.977449
23
5.000000
33
26.280977
0
3DFACE
8
0
10
15.977449
20
5.000000
30
29.219023
11
-15.977449
21
5.000000
31
29.219023
12
-17.228176
22
5.000000
32
30.127758
13
-17.228176
23
5.000000
33
30.127758
0
3DFACE
8
0
10
17.228176
20
5.000000
30
30.127758
11
15.977449
21
5.000000
31
29.219023
12
-17.228176
22
5.000000
32
30.127758
13
-17.228176
23
5.000000
33
30.127758
0
3DFACE
8
0
10
15.977449
20
5.000000
30
29.219023
11
15.500000
21
5.000000
31
27.750000
12
-15.977449
22
5.000000
32
29.219023
13
-15.977449
23
5.000000
33
29.219023
0
ENDSEC
0
EOF
